<?xml version="1.0" encoding="UTF-8"?>
<svg version="1.1" xmlns="http://www.w3.org/2000/svg" width="1080" height="1080">
<path d="M0 0 C356.4 0 712.8 0 1080 0 C1080 356.4 1080 712.8 1080 1080 C723.6 1080 367.2 1080 0 1080 C0 723.6 0 367.2 0 0 Z " fill="#FBFBFB" transform="translate(0,0)"/>
<path d="M0 0 C134.64 0 269.28 0 408 0 C414.6 15.18 421.2 30.36 428 46 C437.86206954 68.48724042 437.86206954 68.48724042 447.74609375 90.96484375 C449.20898505 94.28764575 450.66767406 97.61225444 452.125 100.9375 C452.53314941 101.86103271 452.94129883 102.78456543 453.36181641 103.73608398 C453.71937012 104.55407471 454.07692383 105.37206543 454.4453125 106.21484375 C454.74969238 106.90698975 455.05407227 107.59913574 455.36767578 108.31225586 C456 110 456 110 456 112 C481.41 112 506.82 112 533 112 C533 145.33 533 178.66 533 213 C523.1 213 513.2 213 503 213 C502.09807665 220.16335346 502.09807665 220.16335346 501.20556641 227.32788086 C500.52515606 232.63648929 499.6717843 237.81708495 498.44628906 243.02661133 C497.82120881 245.79057395 497.43386524 248.56677146 497.0625 251.375 C496.29049183 256.99015315 495.45315022 262.58994329 494.5625 268.1875 C494.43496338 268.98978027 494.30742676 269.79206055 494.17602539 270.61865234 C493.91466179 272.26062303 493.65302278 273.9025499 493.39111328 275.54443359 C492.63818209 280.2716383 491.89416102 285.0002524 491.14859009 289.72862244 C490.53526487 293.61606437 489.92037058 297.50323854 489.30053711 301.38964844 C487.61311753 311.9892153 486.00739194 322.59909056 484.43762207 333.21664429 C482.41468769 346.87836343 480.3227037 360.51488094 477.859375 374.10546875 C476.81476921 380.05497352 475.91850354 386.02972702 475 392 C488.86 392 502.72 392 517 392 C514.54098468 408.14397013 511.72029545 424.19349299 508.75 440.25 C505.805195 456.17799712 502.87342831 472.10775318 500.02648926 488.05358887 C499.67889252 489.99885723 499.33020026 491.9439302 498.98034668 493.88879395 C498.49433488 496.59200687 498.01223213 499.29588821 497.53125 502 C497.38999695 502.78227966 497.2487439 503.56455933 497.10321045 504.37054443 C496.43750379 508.14016071 495.88241086 511.88645791 495.48925781 515.69482422 C495.12361946 519.17980294 494.50752721 522.48166224 493.640625 525.8828125 C491.78968295 533.62046733 490.48610861 541.42134547 489.1836853 549.26565552 C488.42489631 553.83104398 487.6514315 558.39395044 486.87890625 562.95703125 C486.72126297 563.88948166 486.56361969 564.82193207 486.40119934 565.78263855 C484.88633631 574.71952735 483.29903292 583.64260345 481.6875 592.5625 C481.5479892 593.33524261 481.40847839 594.10798523 481.26473999 594.90414429 C480.67225815 598.18568893 480.07971194 601.46722186 479.48670959 604.74867249 C478.18687672 611.94785951 476.90057906 619.14942804 475.6171875 626.3515625 C475.40940674 627.51745911 475.20162598 628.68335571 474.98754883 629.88458252 C474.56081549 632.2792533 474.13409853 634.67392699 473.70739746 637.06860352 C471.03081512 652.08847105 468.35211483 667.1078147 465.6171875 682.1171875 C465.43057053 683.14135269 465.24395355 684.16551788 465.05168152 685.22071838 C464.17834497 690.0098361 463.30267275 694.7985152 462.42407227 699.58666992 C462.26669586 700.44708893 462.10931946 701.30750793 461.94717407 702.19400024 C461.65850224 703.77223309 461.3687864 705.35027556 461.07772827 706.92807007 C460.46717476 710.27040814 459.92100123 713.58894949 459.46899414 716.95874023 C459 720 459 720 458 721 C455.3337397 721.08855161 452.69352886 721.11524673 450.02734375 721.09765625 C449.22970108 721.0962413 448.43205841 721.09482635 447.61024475 721.09336853 C445.05262565 721.08775316 442.49509282 721.07519812 439.9375 721.0625 C438.20768355 721.05748698 436.47786574 721.05292373 434.74804688 721.04882812 C430.49866447 721.03777875 426.24934688 721.02050386 422 721 C421.94376465 721.76111084 421.8875293 722.52222168 421.82958984 723.30639648 C421.33807897 729.61477597 420.67391757 735.82391172 419.625 742.0625 C419.35664969 743.70961568 419.08842411 745.35675169 418.8203125 747.00390625 C418.68399414 747.83164551 418.54767578 748.65938477 418.40722656 749.51220703 C417.75359401 753.50532194 417.12781283 757.50275957 416.5 761.5 C416.25014219 763.08335578 416.00014198 764.66668909 415.75 766.25 C415.62625 767.03375 415.5025 767.8175 415.375 768.625 C414.25 775.75 414.25 775.75 413.87548828 778.12133789 C413.62362701 779.71684139 413.37200223 781.31238223 413.12060547 782.90795898 C412.52594314 786.68042009 411.92828969 790.45231655 411.3203125 794.22265625 C410.10534543 801.79051083 408.93982821 809.36370315 407.83984375 816.94921875 C405.86085176 830.58962686 403.87493255 844.21287775 401.45166016 857.78320312 C399.47951006 868.8304342 397.74725717 879.91537062 396 891 C395.72928313 892.71095593 395.45845682 894.42189455 395.1875 896.1328125 C394.5762605 899.99550111 393.9671465 903.85852087 393.35888672 907.72167969 C392.74040795 911.64796803 392.12006973 915.57396266 391.5 919.5 C391.37689453 920.27988281 391.25378906 921.05976562 391.12695312 921.86328125 C390.49038958 925.8959613 389.85316249 929.92853488 389.21484375 933.9609375 C389.08464844 934.78400391 388.95445312 935.60707031 388.8203125 936.45507812 C388.5770454 937.99287375 388.33357877 939.53063784 388.08984375 941.06835938 C387.03970272 947.70930806 386.02238583 954.3544921 385 961 C266.2 961 147.4 961 25 961 C24.01 954.4 23.02 947.8 22 941 C20.91572378 934.05930239 20.91572378 934.05930239 19.81640625 927.12109375 C19.21681252 923.36378828 18.62129406 919.60585796 18.02734375 915.84765625 C16.56705541 906.63526307 15.10560177 897.42733064 13.4375 888.25 C12.1701515 881.26730769 11.16826363 874.26030753 10.19726562 867.23095703 C9.25221772 860.50177526 8.12851374 853.81469212 6.9375 847.125 C5.60996765 839.66241581 4.44071671 832.2232241 3.48828125 824.703125 C1.96736159 813.16847031 -0.03897547 801.70507957 -2.0625 790.25 C-3.14239383 784.13541887 -4.17597048 778.03907855 -4.9375 771.875 C-6.02084814 763.11957729 -7.63905648 754.45334798 -9.23608398 745.77880859 C-10.71565515 737.50377441 -11.56290947 729.39294012 -12 721 C-13.145896 721.00523682 -14.29179199 721.01047363 -15.47241211 721.01586914 C-19.70840682 721.03391717 -23.94439812 721.04543128 -28.18041992 721.05493164 C-30.01668875 721.05997231 -31.85295354 721.06680477 -33.68920898 721.07543945 C-36.32276401 721.08751672 -38.95626616 721.09323081 -41.58984375 721.09765625 C-42.82890724 721.10539818 -42.82890724 721.10539818 -44.09300232 721.11329651 C-46.06236368 721.11349205 -48.03161614 721.06204152 -50 721 C-51.52747207 719.47252793 -51.46948892 717.84623555 -51.82861328 715.73193359 C-51.98641769 714.81522385 -52.14422211 713.8985141 -52.30680847 712.95402527 C-52.4762648 711.9456813 -52.64572113 710.93733734 -52.8203125 709.8984375 C-52.99947708 708.85242874 -53.17864166 707.80641998 -53.36323547 706.72871399 C-53.75066262 704.46496785 -54.13633669 702.20092115 -54.52047729 699.93661499 C-55.54017974 693.92892083 -56.5737502 687.92360884 -57.60546875 681.91796875 C-57.81190506 680.71427139 -58.01834137 679.51057404 -58.23103333 678.270401 C-59.92523644 668.40188147 -61.66149592 658.54160019 -63.4375 648.6875 C-63.57361694 647.93107208 -63.70973389 647.17464417 -63.84997559 646.39529419 C-65.6630762 636.32555333 -67.49964111 626.2601307 -69.33984375 616.1953125 C-70.18542512 611.56780486 -71.03044611 606.94019527 -71.875 602.3125 C-72.1931366 600.5695314 -72.1931366 600.5695314 -72.5177002 598.79135132 C-75.66272716 581.54248049 -78.71431207 564.27928942 -81.6875 547 C-81.87372925 545.91770111 -82.0599585 544.83540222 -82.25183105 543.7203064 C-82.52887878 542.11018173 -82.52887878 542.11018173 -82.81152344 540.4675293 C-85.0412987 527.51244518 -87.29886926 514.56315525 -89.625 501.625 C-89.76643433 500.83827911 -89.90786865 500.05155823 -90.05358887 499.24099731 C-91.58285225 490.7464411 -93.13317303 482.25593721 -94.70703125 473.76953125 C-94.84944244 473.00155716 -94.99185364 472.23358307 -95.13858032 471.44233704 C-95.28137421 470.672379 -95.42416809 469.90242096 -95.57128906 469.10913086 C-95.86005104 467.55192521 -96.14878809 465.99471493 -96.4375 464.4375 C-96.57845093 463.67744659 -96.71940186 462.91739319 -96.86462402 462.13430786 C-99.45861745 448.12611354 -101.93422905 434.09814152 -104.375 420.0625 C-104.55030243 419.05597382 -104.72560486 418.04944763 -104.90621948 417.01242065 C-105.40506693 414.14524689 -105.90216092 411.27777601 -106.3984375 408.41015625 C-106.54603012 407.56079498 -106.69362274 406.71143372 -106.84568787 405.83633423 C-106.98346146 405.03706512 -107.12123505 404.23779602 -107.26318359 403.41430664 C-107.38196869 402.72728165 -107.50075378 402.04025665 -107.62313843 401.33241272 C-108.12470518 398.22819423 -108.55530366 395.11287437 -109 392 C-94.48 392 -79.96 392 -65 392 C-67.53924397 375.04817533 -67.53924397 375.04817533 -70.18359375 358.11328125 C-70.31362793 357.29811035 -70.44366211 356.48293945 -70.57763672 355.64306641 C-71.55622504 349.51925301 -72.53611798 343.39564882 -73.51708984 337.2722168 C-74.53900484 330.89087103 -75.55542708 324.50870477 -76.5625 318.125 C-76.68310791 317.36155273 -76.80371582 316.59810547 -76.92797852 315.81152344 C-77.52740229 312.01314645 -78.12246376 308.21415186 -78.7109375 304.4140625 C-80.0698097 295.6750452 -81.52235182 286.95901886 -83.0625 278.25 C-84.38445183 270.75852972 -85.55513018 263.28650857 -86.50390625 255.73828125 C-87.0940229 251.29149669 -87.7900696 246.86646779 -88.5 242.4375 C-89.41679723 236.69050758 -90.33132865 230.94388608 -91.1875 225.1875 C-91.34605469 224.12917969 -91.50460938 223.07085937 -91.66796875 221.98046875 C-92 219 -92 219 -92 213 C-101.57 213 -111.14 213 -121 213 C-121 179.67 -121 146.34 -121 112 C-96.91 112 -72.82 112 -48 112 C-47.01 109.03 -46.02 106.06 -45 103 C-44.40260112 101.49066554 -43.78322185 99.98937853 -43.12158203 98.50708008 C-42.78288086 97.74255524 -42.44417969 96.9780304 -42.09521484 96.19033813 C-41.55695068 94.99203873 -41.55695068 94.99203873 -41.0078125 93.76953125 C-40.62560547 92.90927338 -40.24339844 92.0490155 -39.84960938 91.16268921 C-39.03385464 89.32759125 -38.21628541 87.49329897 -37.39703369 85.65975952 C-35.23537786 80.82121224 -33.08750902 75.97654327 -30.9375 71.1328125 C-30.29640793 69.69004189 -30.29640793 69.69004189 -29.6423645 68.21812439 C-24.0025263 55.51826912 -18.50780078 42.75786507 -13 30 C-8.71 20.1 -4.42 10.2 0 0 Z " fill="#030202" transform="translate(330,69)"/>
<path d="M0 0 C180.84 0 361.68 0 548 0 C547.37640705 6.85952242 546.71089774 13.33813152 545.3984375 20.0390625 C545.16284874 21.27954597 545.16284874 21.27954597 544.92250061 22.54508972 C544.58580546 24.31728815 544.24699514 26.08908584 543.90621948 27.86050415 C542.98575359 32.65066004 542.08389412 37.44430005 541.18359375 42.23828125 C540.99908157 43.22030014 540.8145694 44.20231903 540.62446594 45.21409607 C538.78423183 55.06166978 537.09788632 64.93327856 535.4375 74.8125 C533.24833938 87.81183146 530.97326575 100.78988492 528.5625 113.75 C526.00822699 127.49058035 523.50636191 141.23931882 521.0625 155 C520.89615051 155.93656433 520.72980103 156.87312866 520.55841064 157.83807373 C517.98428747 172.34453446 515.45485886 186.85859754 512.9375 201.375 C510.49226452 215.46989884 508.03672329 229.5628697 505.52615356 243.64630127 C505.21931682 245.3693775 504.91353498 247.09264195 504.6088562 248.81610107 C504.19152904 251.17483618 503.77020408 253.53282036 503.34765625 255.890625 C503.22512482 256.58719208 503.10259338 257.28375916 502.97634888 258.00143433 C502.11448802 262.77102395 502.11448802 262.77102395 501 265 C482.40052193 265.04988394 463.80367207 265.06187702 445.20581055 264.78564453 C444.47167714 264.77481 443.73754373 264.76397547 442.98116386 264.75281262 C439.93829537 264.70761638 436.89543692 264.66180109 433.85258836 264.61528218 C387.69930711 263.91153847 341.54938631 263.8402697 295.39159667 263.86942744 C287.8324346 263.87419501 280.27327475 263.87650108 272.71411133 263.87768555 C212.85047368 263.88888764 152.99518986 264.07449559 93.1356411 264.81433487 C77.4230282 265.00824428 61.71374322 265.06065281 46 265 C45.77449463 263.57010742 45.77449463 263.57010742 45.54443359 262.11132812 C42.94701101 245.68454974 40.3218696 229.27173822 37.1875 212.9375 C34.51566771 199.00777709 32.08431473 185.04200733 29.6875 171.0625 C26.71366841 153.72883811 23.6428983 136.41734412 20.4375 119.125 C17.16718423 101.47478883 14.01549881 83.80793279 10.96655273 66.11816406 C9.249178 56.15906609 7.50847452 46.2048935 5.72265625 36.2578125 C5.53557602 35.21415527 5.34849579 34.17049805 5.15574646 33.09521484 C4.25389554 28.06626578 3.34835631 23.03802355 2.43725586 18.01074219 C2.11428188 16.21291554 1.79143932 14.41506527 1.46875 12.6171875 C1.3191835 11.79969025 1.169617 10.98219299 1.01551819 10.1399231 C0.39808889 6.68291927 0 3.52451155 0 0 Z " fill="#FEFEFE" transform="translate(260,493)"/>
<path d="M0 0 C174.9 0 349.8 0 530 0 C526.55946934 26.37740173 526.55946934 26.37740173 525.0546875 35.2734375 C524.8836853 36.30632401 524.71268311 37.33921051 524.53649902 38.40339661 C524.17329418 40.59596915 523.80847537 42.78827492 523.44207764 44.98031616 C522.44177079 50.96843006 521.45563967 56.95888138 520.46875 62.94921875 C520.16256241 64.80583885 520.16256241 64.80583885 519.85018921 66.69996643 C517.276784 82.33979951 514.81827663 97.99767589 512.35888672 113.65576172 C508.93662639 135.44224667 505.46500104 157.21999344 502 179 C345.58 179 189.16 179 28 179 C15.30222775 99.00403479 15.30222775 99.00403479 12.07226562 77.95825195 C10.4441296 67.37349381 8.77890066 56.79456686 7.11376953 46.21557617 C6.70376559 43.60828378 6.29458917 41.00086113 5.88623047 38.39331055 C5.29072905 34.59131812 4.69251639 30.78976069 4.09375 26.98828125 C3.91348267 25.83387039 3.73321533 24.67945953 3.54748535 23.49006653 C2.62691418 17.66442021 1.62078058 11.88473952 0.3638916 6.12150574 C0 4 0 4 0 0 Z " fill="#FEDC00" transform="translate(270,282)"/>
<path d="M0 0 C1.46122284 0.01468512 1.46122284 0.01468512 2.95196533 0.0296669 C30.80744288 0.31227309 58.6521827 0.85393634 86.5 1.5625 C86.55365119 6.05350335 86.54276573 10.30720932 85.79736328 14.74658203 C85.64365265 15.68180695 85.48994202 16.61703186 85.33157349 17.58059692 C85.0784993 19.06050613 85.0784993 19.06050613 84.8203125 20.5703125 C84.64748749 21.61339569 84.47466248 22.65647888 84.29660034 23.73117065 C83.7454412 27.05098785 83.18560387 30.3692659 82.625 33.6875 C81.8959533 38.04385806 81.17024428 42.40076799 80.4453125 46.7578125 C80.27099197 47.80292496 80.09667145 48.84803741 79.91706848 49.92481995 C78.66653855 57.45750644 77.52179785 64.99504974 76.5 72.5625 C76.13632901 75.18446551 75.77062443 77.80613888 75.40429688 80.42773438 C75.1781122 82.04721666 74.95412012 83.66700683 74.73242188 85.28710938 C73.98410169 90.60803797 73.10248388 95.89854898 72.15625 101.1875 C70.32127313 111.4447925 68.64129394 121.72664866 66.96557617 132.01098633 C66.43657477 135.25567502 65.90490647 138.49991936 65.37304688 141.74414062 C65.0284854 143.85414047 64.68407905 145.96416566 64.33984375 148.07421875 C64.18458725 149.02044601 64.02933075 149.96667328 63.86936951 150.9415741 C62.64563611 158.47199204 61.57957296 166.00548925 60.5 173.5625 C58.52 185.1125 56.54 196.6625 54.5 208.5625 C-45.82 208.5625 -146.14 208.5625 -249.5 208.5625 C-255.23543677 175.29696675 -255.23543677 175.29696675 -256.859375 164.515625 C-257.04974335 163.26904114 -257.24011169 162.02245728 -257.43624878 160.73809814 C-257.93930812 157.44269565 -258.44013453 154.1469635 -258.94019318 150.85110474 C-259.80480055 145.16177655 -260.67773643 139.47371484 -261.54938126 133.78546143 C-261.7715795 132.33531962 -261.99369413 130.88516501 -262.21572495 129.43499756 C-264.48137754 114.6382616 -266.79039891 99.84852027 -269.125 85.0625 C-269.30711029 83.90731873 -269.48922058 82.75213745 -269.67684937 81.56195068 C-271.68670959 68.82288339 -273.73282446 56.09056268 -275.83984375 43.3671875 C-276.02836914 42.22586365 -276.21689453 41.08453979 -276.41113281 39.90863037 C-277.30435627 34.50352067 -278.20325923 29.09949062 -279.11376953 23.69726562 C-279.43151115 21.78518882 -279.74906754 19.87308122 -280.06640625 17.9609375 C-280.21279037 17.10644012 -280.3591745 16.25194275 -280.50999451 15.37155151 C-280.64148392 14.5726651 -280.77297333 13.77377869 -280.90844727 12.95068359 C-281.02342056 12.26767181 -281.13839386 11.58466003 -281.2568512 10.88095093 C-281.58320287 7.76915135 -281.53583005 4.68860174 -281.5 1.5625 C-187.66188634 -0.69327401 -93.85859993 -0.95429887 0 0 Z " fill="#FEDC00" transform="translate(632.5,788.4375)"/>
<path d="M0 0 C1.65804882 0.00056958 1.65804882 0.00056958 3.34959358 0.00115067 C4.61954062 -0.00084038 5.88948766 -0.00283143 7.19791794 -0.00488281 C8.62558715 -0.00202922 10.05325617 0.00091639 11.48092502 0.00394398 C12.9832156 0.00350841 14.4855061 0.00263377 15.98779619 0.00135481 C20.13571931 -0.00089295 24.28361687 0.00313496 28.43153673 0.00813287 C32.89713689 0.01243318 37.36273549 0.01099125 41.82833713 0.0102306 C49.5718512 0.0097051 57.31535687 0.01285464 65.05886883 0.01846844 C76.25482202 0.02657989 87.45077114 0.02919829 98.64672696 0.03045643 C116.80943375 0.03264751 134.97213607 0.03930911 153.13484043 0.04875904 C170.78295218 0.05793171 188.43106271 0.06501326 206.07917637 0.06926686 C207.16618003 0.06952958 208.2531837 0.0697923 209.37312687 0.07006299 C214.82605817 0.07136798 220.27898947 0.0726317 225.73192078 0.07387489 C271.00189124 0.08424925 316.27185681 0.10186908 361.54182285 0.1241985 C362.49884806 2.02663899 363.45452938 3.92975556 364.40965122 5.83315235 C364.94199186 6.89287691 365.4743325 7.95260147 366.02280468 9.0444389 C367.99548165 13.04397685 369.80456849 17.09832092 371.56526035 21.194511 C371.91513004 22.00048725 372.26499973 22.80646351 372.62547153 23.63686329 C373.72572049 26.17296547 374.82149822 28.71096622 375.91682285 31.2491985 C377.00144721 33.75532336 378.0870495 36.26102132 379.17323154 38.76647145 C379.8893123 40.41851393 380.6046118 42.0708953 381.31910557 43.72362477 C383.14093646 47.9301057 384.98397321 52.12558925 386.86311191 56.30681568 C387.23537906 57.1361562 387.60764621 57.96549671 387.99119419 58.81996876 C388.70284156 60.40132986 389.41768919 61.98125575 390.13615268 63.55953175 C392.54182285 68.90474236 392.54182285 68.90474236 392.54182285 71.1241985 C251.96182285 71.1241985 111.38182285 71.1241985 -33.45817715 71.1241985 C-31.20812388 64.37403868 -31.20812388 64.37403868 -29.84514004 61.25969654 C-29.38755055 60.20897717 -29.38755055 60.20897717 -28.92071682 59.13703114 C-28.59405529 58.39416355 -28.26739376 57.65129597 -27.9308334 56.88591725 C-27.58568188 56.09539463 -27.24053036 55.30487202 -26.8849197 54.49039418 C-25.76609118 51.92968903 -24.64352008 49.37064559 -23.52067715 46.8116985 C-22.75097234 45.05314815 -21.9814419 43.29452147 -21.2120834 41.53581959 C-19.67995168 38.03480834 -18.14616445 34.53452949 -16.61100918 31.03484303 C-14.98386704 27.32495896 -13.36071843 23.61336028 -11.74075466 19.9003368 C-10.48190383 17.01574533 -9.21991739 14.13252704 -7.95817715 11.2491985 C-7.5083749 10.21754566 -7.05857266 9.18589283 -6.59514004 8.12297779 C-6.18900479 7.19783375 -5.78286953 6.27268971 -5.36442715 5.319511 C-5.01702481 4.52560963 -4.66962246 3.73170826 -4.31169277 2.91374928 C-2.99414862 0.15127826 -2.99414862 0.15127826 0 0 Z " fill="#FEFEFE" transform="translate(354.4581771492958,100.8758015036583)"/>
<path d="M0 0 C194.7 0 389.4 0 590 0 C590 12.21 590 24.42 590 37 C395.3 37 200.6 37 0 37 C0 24.79 0 12.58 0 0 Z " fill="#FCFCFC" transform="translate(241,213)"/>
<path d="M0 0 C14.19 0 28.38 0 43 0 C43 8.99940798 43 8.99940798 42.29736328 13.18408203 C42.06679733 14.5869194 42.06679733 14.5869194 41.83157349 16.01809692 C41.66285736 17.00470306 41.49414124 17.9913092 41.3203125 19.0078125 C41.14748749 20.05089569 40.97466248 21.09397888 40.79660034 22.16867065 C40.2454412 25.48848785 39.68560387 28.8067659 39.125 32.125 C38.3959533 36.48135806 37.67024428 40.83826799 36.9453125 45.1953125 C36.77099197 46.24042496 36.59667145 47.28553741 36.41706848 48.36231995 C35.16653855 55.89500644 34.02179785 63.43254974 33 71 C32.63632901 73.62196551 32.27062443 76.24363888 31.90429688 78.86523438 C31.6781122 80.48471666 31.45412012 82.10450683 31.23242188 83.72460938 C30.48410169 89.04553797 29.60248388 94.33604898 28.65625 99.625 C26.82127313 109.8822925 25.14129394 120.16414866 23.46557617 130.44848633 C22.93657477 133.69317502 22.40490647 136.93741936 21.87304688 140.18164062 C19.81024948 152.76094114 19.81024948 152.76094114 17.94921875 165.37109375 C16.78690905 173.73883292 15.31957371 182.0523304 13.875 190.375 C12.92625 195.86125 11.9775 201.3475 11 207 C-3.52 207 -18.04 207 -33 207 C-32.2575 201.72 -31.515 196.44 -30.75 191 C-30.52538086 189.39125 -30.30076172 187.7825 -30.06933594 186.125 C-28.56580387 175.46303211 -26.83319918 164.84687299 -25.04394531 154.22949219 C-23.30073872 143.87140821 -21.65560137 133.49737286 -20 123.125 C-19.82469757 122.0283905 -19.64939514 120.93178101 -19.46878052 119.80194092 C-17.44507038 107.14066797 -15.43706126 94.47779907 -13.5078125 81.80175781 C-10.02856237 59.01266945 -6.39558872 36.24271761 -2.625 13.5 C-2.46966797 12.55882324 -2.31433594 11.61764648 -2.15429688 10.64794922 C-1.94256836 9.38362061 -1.94256836 9.38362061 -1.7265625 8.09375 C-1.60877441 7.38927734 -1.49098633 6.68480469 -1.36962891 5.95898438 C-0.99173645 3.95620426 -0.49431658 1.9772663 0 0 Z " fill="#FD9001" transform="translate(676,790)"/>
<path d="M0 0 C31.02 0 62.04 0 94 0 C90.55946934 26.37740173 90.55946934 26.37740173 89.0546875 35.2734375 C88.7981842 36.82276726 88.7981842 36.82276726 88.53649902 38.40339661 C88.17329418 40.59596915 87.80847537 42.78827492 87.44207764 44.98031616 C86.44177079 50.96843006 85.45563967 56.95888138 84.46875 62.94921875 C84.16256241 64.80583885 84.16256241 64.80583885 83.85018921 66.69996643 C81.276784 82.33979951 78.81827663 97.99767589 76.35888672 113.65576172 C72.93662639 135.44224667 69.46500104 157.21999344 66 179 C-81.84 179 -229.68 179 -382 179 C-382 178.67 -382 178.34 -382 178 C-248.68 178 -115.36 178 22 178 C22.33 174.7 22.66 171.4 23 168 C23.38539367 165.35934564 23.79626931 162.72226604 24.234375 160.08984375 C24.41151031 159.0144635 24.41151031 159.0144635 24.59222412 157.9173584 C24.84465054 156.38552451 25.09835985 154.85390154 25.35327148 153.32247925 C26.0397945 149.19536692 26.71566675 145.06651727 27.390625 140.9375 C27.52782959 140.09859726 27.66503418 139.25969452 27.80639648 138.39537048 C29.10516542 130.41930867 30.31049353 122.43045224 31.5 114.4375 C33.3463855 102.04784965 35.36079588 89.69198135 37.4486084 77.34085083 C39.34237395 66.12801191 41.11219856 54.90703984 42.70727539 43.64697266 C43.48362998 38.2190513 44.40638372 32.86476001 45.51806641 27.49609375 C46.37749878 23.04480873 46.9574181 18.55419262 47.5625 14.0625 C47.8111828 12.21969672 48.06237303 10.37722959 48.31640625 8.53515625 C48.42412354 7.734729 48.53184082 6.93430176 48.64282227 6.10961914 C49 4 49 4 50 1 C33.5 1 17 1 0 1 C0 0.67 0 0.34 0 0 Z " fill="#F99104" transform="translate(706,282)"/>
<path d="M0 0 C8.91 0 17.82 0 27 0 C27.33 3.96 27.66 7.92 28 12 C28.44773875 14.59048849 28.89796043 17.18090041 29.3984375 19.76171875 C30.17731631 23.95451443 30.84043086 28.16201252 31.5 32.375 C31.61843262 33.12918213 31.73686523 33.88336426 31.85888672 34.66040039 C32.55421351 39.10549153 33.2380968 43.55229449 33.91967773 47.99951172 C34.9480983 54.68527203 36.00320809 61.36656861 37.06640625 68.046875 C37.46932017 70.58235669 37.87223356 73.11783846 38.27514648 75.65332031 C38.48711876 76.98653364 38.6991042 78.31974488 38.91110229 79.6529541 C40.02760456 86.67473797 41.14279159 93.69673077 42.2578125 100.71875 C42.37154898 101.43498787 42.48528545 102.15122574 42.60246849 102.88916779 C45.05602996 118.3414297 47.49861445 133.79541483 49.9375 149.25 C50.12240997 150.42171753 50.30731995 151.59343506 50.49783325 152.80065918 C50.67780853 153.94119751 50.85778381 155.08173584 51.04321289 156.25683594 C51.30606079 157.92233238 51.30606079 157.92233238 51.57421875 159.62147522 C51.91271636 161.76760739 52.25086258 163.91379503 52.58862305 166.06004333 C53.3491566 170.89072165 54.11438741 175.72050305 54.89428711 180.5480957 C55.03286636 181.41074036 55.17144562 182.27338501 55.31422424 183.16217041 C55.56725283 184.73548483 55.82228281 186.30847958 56.0799408 187.88104248 C57.1004 194.24514141 57.62124747 200.56120705 58 207 C49.42 207 40.84 207 32 207 C28.63515959 187.78938631 25.48538068 168.57089948 22.55980682 149.28860474 C21.69519945 143.59927655 20.82226357 137.91121484 19.95061874 132.22296143 C19.7284205 130.77281962 19.50630587 129.32266501 19.28427505 127.87249756 C17.01862246 113.0757616 14.70960109 98.28602027 12.375 83.5 C12.19288971 82.34481873 12.01077942 81.18963745 11.82315063 79.99945068 C9.81329041 67.26038339 7.76717554 54.52806268 5.66015625 41.8046875 C5.47163086 40.66336365 5.28310547 39.52203979 5.08886719 38.34613037 C4.19564373 32.94102067 3.29674077 27.53699062 2.38623047 22.13476562 C2.06848885 20.22268882 1.75093246 18.31058122 1.43359375 16.3984375 C1.28720963 15.54394012 1.1408255 14.68944275 0.99000549 13.80905151 C0.85851608 13.0101651 0.72702667 12.21127869 0.59155273 11.38818359 C0.47657944 10.70517181 0.36160614 10.02216003 0.2431488 9.31845093 C-0.08094383 6.22819159 0 3.10720755 0 0 Z " fill="#E1E0DF" transform="translate(351,790)"/>
<path d="M0 0 C8.58 0 17.16 0 26 0 C27.48747382 4.46242145 28.45543248 8.10460513 29.1484375 12.671875 C29.29643295 13.63205536 29.29643295 13.63205536 29.44741821 14.6116333 C29.7615331 16.65703975 30.06845496 18.7034469 30.375 20.75 C30.67415125 22.70629171 30.97330489 24.66258307 31.27261353 26.61885071 C31.60180595 28.77585142 31.9287884 30.93317884 32.25537109 33.09057617 C34.69271777 49.17677542 37.19021302 65.25336894 39.7265625 81.32421875 C39.96503975 82.83596759 40.20351427 84.34771686 40.44198608 85.85946655 C41.41657256 92.03629165 42.3914675 98.2130669 43.36914062 104.3894043 C43.9783115 108.23819318 44.58569983 112.08725997 45.19199753 115.93650246 C45.41855817 117.3727823 45.64574584 118.80896342 45.87364578 120.24503136 C47.22497293 128.7617969 48.46918056 137.2843606 49.56929016 145.83699036 C50.08240114 149.60513033 50.76976573 153.2812047 51.5625 157 C53.15837201 164.54111542 54 171.23051922 54 179 C45.42 179 36.84 179 28 179 C15.79636299 102.22372055 15.79636299 102.22372055 12.07226562 77.95825195 C10.4441296 67.37349381 8.77890066 56.79456686 7.11376953 46.21557617 C6.70376559 43.60828378 6.29458917 41.00086113 5.88623047 38.39331055 C5.29072905 34.59131812 4.69251639 30.78976069 4.09375 26.98828125 C3.91348267 25.83387039 3.73321533 24.67945953 3.54748535 23.49006653 C2.62691418 17.66442021 1.62078058 11.88473952 0.3638916 6.12150574 C0 4 0 4 0 0 Z " fill="#E1E1DF" transform="translate(270,282)"/>
<path d="M0 0 C3.92919107 0.0036344 7.8583784 0.00520371 11.78757095 0.0062561 C62.83617675 0.0219691 113.87865443 0.44977703 164.92267227 1.12857056 C164.92267227 1.78857056 164.92267227 2.44857056 164.92267227 3.12857056 C155.72331353 3.15206903 146.5239656 3.1696718 137.32458305 3.18038273 C133.04981401 3.18553158 128.77506596 3.19247739 124.50030899 3.20401001 C92.20105144 3.288867 92.20105144 3.288867 78.52032852 2.63247681 C60.09897682 1.76617025 41.64598086 1.97845247 23.20904922 1.99819946 C17.81105393 2.00390634 12.41310829 2.0005972 7.01511478 1.994627 C2.77737954 1.99096954 -1.46034443 1.99218326 -5.69808006 1.99475479 C-7.68586165 1.99540925 -9.67364436 1.9946493 -11.66142464 1.99227524 C-23.02022986 1.98167249 -34.32848315 2.22546394 -45.67445374 2.77045918 C-54.9155891 3.20074098 -64.13654153 3.25693916 -73.38592148 3.22622681 C-75.10182783 3.22435223 -76.81773473 3.22293328 -78.53364182 3.22193909 C-82.96059379 3.21819551 -87.38751078 3.20843948 -91.81444931 3.19723511 C-96.36756543 3.18684104 -100.92068744 3.18240371 -105.4738121 3.17739868 C-114.34166636 3.16680614 -123.20949265 3.14983357 -132.07732773 3.12857056 C-131.93947861 4.01770142 -131.80162949 4.90683228 -131.65960312 5.82290649 C-131.4790538 6.99111938 -131.29850449 8.15933228 -131.11248398 9.36294556 C-130.93338486 10.52020142 -130.75428574 11.67745728 -130.56975937 12.86978149 C-130.19182883 15.37083098 -129.84123205 17.87058299 -129.51482773 20.37857056 C-129.36846169 23.03317913 -129.36846169 23.03317913 -128.07732773 24.12857056 C-127.75206068 27.4896634 -127.56373313 30.85191046 -127.35857773 34.22232056 C-127.39872883 37.01907187 -127.39872883 37.01907187 -126.07732773 38.12857056 C-126.0048872 40.14821254 -125.99355585 42.17024179 -126.01482773 44.19107056 C-126.02385117 45.29579712 -126.0328746 46.40052368 -126.04217148 47.53872681 C-126.05377304 48.39337524 -126.0653746 49.24802368 -126.07732773 50.12857056 C-125.41732773 50.12857056 -124.75732773 50.12857056 -124.07732773 50.12857056 C-124.07732773 54.41857056 -124.07732773 58.70857056 -124.07732773 63.12857056 C-124.40732773 63.12857056 -124.73732773 63.12857056 -125.07732773 63.12857056 C-126.61746498 56.60954132 -127.71721917 50.14395972 -128.57732773 43.50357056 C-128.70478378 42.54732788 -128.83223984 41.59108521 -128.9635582 40.60586548 C-129.54589316 36.22807245 -130.1140279 31.84849082 -130.67889023 27.46841431 C-130.81327499 26.43611694 -130.81327499 26.43611694 -130.9503746 25.38296509 C-131.18617964 23.56552975 -131.4170902 21.74746124 -131.64764023 19.92935181 C-132.00790929 17.05564301 -132.00790929 17.05564301 -133.07732773 14.12857056 C-133.21122498 10.12772072 -133.12036398 6.13094153 -133.07732773 2.12857056 C-117.18225018 1.31842718 -101.29890122 0.84328446 -85.38592148 0.57388306 C-83.59003491 0.54247915 -83.59003491 0.54247915 -81.75786781 0.51044083 C-54.50542906 0.0420859 -27.25584693 -0.02860558 0 0 Z " fill="#D5BC22" transform="translate(511.0773277282715,787.8714294433594)"/>
<path d="M0 0 C0.33 0 0.66 0 1 0 C1.0821704 1.85339912 1.13971265 3.70789582 1.1875 5.5625 C1.22230469 6.59503906 1.25710938 7.62757813 1.29296875 8.69140625 C0.936826 12.71344501 -0.34839725 15.32913668 -2 19 C-29.66969536 19.01194068 -57.33902641 18.98794266 -85.00862622 18.91545701 C-89.89814989 18.90277644 -94.78767521 18.89075777 -99.67720032 18.87864685 C-108.09003033 18.85772394 -116.50285927 18.83640882 -124.91568756 18.81480408 C-137.07826756 18.78357031 -149.24084909 18.75296417 -161.40343103 18.72249681 C-181.1506283 18.67301353 -200.8978243 18.62304328 -220.64501953 18.57275391 C-239.7937819 18.52398961 -258.94254484 18.47546267 -278.09130859 18.42724609 C-279.27753399 18.4242591 -280.46375938 18.4212721 -281.685931 18.41819459 C-287.63863565 18.40320672 -293.59134031 18.38822341 -299.54404497 18.37324238 C-348.69603178 18.24953683 -397.84801656 18.12503557 -447 18 C-447 17.67 -447 17.34 -447 17 C-300.15 17 -153.3 17 -2 17 C-1.67 13.37 -1.34 9.74 -1 6 C-0.69424388 3.99559877 -0.37691162 1.99224716 0 0 Z " fill="#100400" transform="translate(774,444)"/>
<path d="M0 0 C4.68037458 0.01038073 9.36075483 0.01482866 14.0411377 0.01983643 C23.16224601 0.03043947 32.28332962 0.04742 41.40441895 0.06866455 C41.40441895 0.39866455 41.40441895 0.72866455 41.40441895 1.06866455 C21.16209469 2.2830671 0.93681696 2.1886303 -19.33270264 2.1373291 C-23.88581876 2.12693503 -28.43894076 2.12249771 -32.99206543 2.11749268 C-41.85991969 2.10690013 -50.72774597 2.08992757 -59.59558105 2.06866455 C-59.45773193 2.95779541 -59.31988281 3.84692627 -59.17785645 4.76300049 C-58.99730713 5.93121338 -58.81675781 7.09942627 -58.6307373 8.30303955 C-58.45163818 9.46029541 -58.27253906 10.61755127 -58.0880127 11.80987549 C-57.71008216 14.31092497 -57.35948538 16.81067699 -57.03308105 19.31866455 C-56.88671502 21.97327313 -56.88671502 21.97327313 -55.59558105 23.06866455 C-55.27031401 26.4297574 -55.08198645 29.79200445 -54.87683105 33.16241455 C-54.91698215 35.95916587 -54.91698215 35.95916587 -53.59558105 37.06866455 C-53.52314052 39.08830654 -53.51180917 41.11033579 -53.53308105 43.13116455 C-53.54210449 44.23589111 -53.55112793 45.34061768 -53.5604248 46.4788208 C-53.57202637 47.33346924 -53.58362793 48.18811768 -53.59558105 49.06866455 C-52.93558105 49.06866455 -52.27558105 49.06866455 -51.59558105 49.06866455 C-51.59558105 53.35866455 -51.59558105 57.64866455 -51.59558105 62.06866455 C-51.92558105 62.06866455 -52.25558105 62.06866455 -52.59558105 62.06866455 C-54.13571831 55.54963531 -55.23547249 49.08405372 -56.09558105 42.44366455 C-56.22303711 41.48742187 -56.35049316 40.5311792 -56.48181152 39.54595947 C-57.06414648 35.16816645 -57.63228123 30.78858482 -58.19714355 26.4085083 C-58.33152832 25.37621094 -58.33152832 25.37621094 -58.46862793 24.32305908 C-58.70443297 22.50562374 -58.93534353 20.68755524 -59.16589355 18.8694458 C-59.52616262 15.99573701 -59.52616262 15.99573701 -60.59558105 13.06866455 C-60.7294783 9.06781472 -60.6386173 5.07103552 -60.59558105 1.06866455 C-40.41041135 -0.23308371 -20.21586162 -0.04969132 0 0 Z " fill="#ECD22B" transform="translate(438.5955810546875,788.9313354492188)"/>
<path d="M0 0 C0.33 0 0.66 0 1 0 C1.13277344 0.63808594 1.26554687 1.27617187 1.40234375 1.93359375 C1.57894531 2.75988281 1.75554687 3.58617187 1.9375 4.4375 C2.19853516 5.67306641 2.19853516 5.67306641 2.46484375 6.93359375 C2.80752994 8.97661204 2.80752994 8.97661204 4 10 C4.07258946 12.18639453 4.08373783 14.37500389 4.0625 16.5625 C4.05347656 17.76003906 4.04445313 18.95757812 4.03515625 20.19140625 C4.02355469 21.11824219 4.01195312 22.04507812 4 23 C4.66 23 5.32 23 6 23 C6.06058594 23.91523438 6.12117188 24.83046875 6.18359375 25.7734375 C6.26738281 26.96195312 6.35117187 28.15046875 6.4375 29.375 C6.51871094 30.55835938 6.59992188 31.74171875 6.68359375 32.9609375 C6.81084936 35.91518901 6.81084936 35.91518901 8 38 C8.31045526 40.59143905 8.50973912 43.18371732 8.71875 45.78515625 C8.7665741 47.97070668 8.7665741 47.97070668 10 49 C10.07226502 50.85287502 10.0838122 52.70833878 10.0625 54.5625 C10.05347656 55.57441406 10.04445313 56.58632813 10.03515625 57.62890625 C10.02355469 58.41136719 10.01195312 59.19382812 10 60 C10.66 60 11.32 60 12 60 C12 64.62 12 69.24 12 74 C11.67 74 11.34 74 11 74 C7.997039 59.55558984 5.77313635 45.04570857 3.7512207 30.43823242 C3.65084 29.71416702 3.55045929 28.99010162 3.44703674 28.24409485 C3.24967993 26.82025959 3.05292241 25.39634112 2.85679626 23.97233582 C2.14022368 18.8305785 1.29447905 13.72071725 0.35400391 8.61547852 C-0.03823464 5.71751196 -0.05827393 2.92091382 0 0 Z " fill="#F1D63D" transform="translate(311,372)"/>
<path d="M0 0 C8.58 0 17.16 0 26 0 C27.42212392 4.26637176 28.40043794 7.71484237 29.0703125 12.0625 C29.24433594 13.18914062 29.41835938 14.31578125 29.59765625 15.4765625 C29.77167969 16.63929688 29.94570313 17.80203125 30.125 19 C30.30675781 20.16273438 30.48851562 21.32546875 30.67578125 22.5234375 C31.47054826 27.74619211 32.10157667 32.7061788 32 38 C31.67 38 31.34 38 31 38 C28.38718512 32.12116651 28.81671798 26.29268272 29 20 C28.34 20 27.68 20 27 20 C26.93941406 19.22914063 26.87882812 18.45828125 26.81640625 17.6640625 C26.69072266 16.15972656 26.69072266 16.15972656 26.5625 14.625 C26.48128906 13.62726563 26.40007812 12.62953125 26.31640625 11.6015625 C26.15034374 9.02072387 26.15034374 9.02072387 25 7 C25 5.02 25 3.04 25 1 C17.08 1 9.16 1 1 1 C0.67 1.99 0.34 2.98 0 4 C0 2.68 0 1.36 0 0 Z " fill="#DAD2B2" transform="translate(270,282)"/>
<path d="M0 0 C2.00577798 3.00866697 2.45878503 4.64476075 3.0625 8.125 C3.41604626 11.36108392 3.41604626 11.36108392 5 14 C5.32526705 17.36109285 5.5135946 20.7233399 5.71875 24.09375 C5.6785989 26.89050132 5.6785989 26.89050132 7 28 C7.07244053 30.01964199 7.08377188 32.04167124 7.0625 34.0625 C7.05347656 35.16722656 7.04445313 36.27195312 7.03515625 37.41015625 C7.02355469 38.26480469 7.01195312 39.11945312 7 40 C7.66 40 8.32 40 9 40 C9 44.29 9 48.58 9 53 C8.67 53 8.34 53 8 53 C6.45987158 46.48100816 5.35980773 40.01540621 4.5 33.375 C4.37254395 32.41585693 4.24508789 31.45671387 4.11376953 30.46850586 C3.73921139 27.64609453 3.36945192 24.82308345 3 22 C2.62667562 19.18727412 2.25073513 16.37490551 1.875 13.5625 C1.72804688 12.45003906 1.58109375 11.33757813 1.4296875 10.19140625 C0.97192154 6.79145361 0.4893692 3.39553543 0 0 Z " fill="#F1D53A" transform="translate(378,798)"/>
<path d="M0 0 C0.33 0 0.66 0 1 0 C1.10739502 0.71148193 1.21479004 1.42296387 1.32543945 2.15600586 C2.23101204 8.10245967 3.16451484 14.04289597 4.1388855 19.97842407 C4.68662703 23.31703713 5.22802275 26.65666941 5.76928711 29.99633789 C6.05079308 31.72366378 6.33502419 33.45054751 6.62182617 35.17700195 C7.04047856 37.7014877 7.44893506 40.22744448 7.85546875 42.75390625 C7.9855986 43.52368301 8.11572845 44.29345978 8.24980164 45.08656311 C8.82531265 48.7220735 9.04724976 51.47857745 8 55 C6.80842534 51.18696108 5.88224429 47.59900541 5.4375 43.625 C5.40206859 40.1963063 5.40206859 40.1963063 4 39 C3.64574482 36.33266687 3.33837445 33.67558884 3.0625 31 C2.31865858 24.06561055 2.31865858 24.06561055 0.875 17.25 C-0.55150228 11.59971363 -0.16090262 5.78355531 0 0 Z " fill="#E9DEAB" transform="translate(383,832)"/>
<path d="M0 0 C0.66 0 1.32 0 2 0 C2.04898437 0.73863281 2.09796875 1.47726562 2.1484375 2.23828125 C2.594655 8.2929911 3.30668645 14.16960122 4.45703125 20.12890625 C5.06996408 23.36995396 5.60830205 26.61723776 6.125 29.875 C6.29257812 30.92429687 6.46015625 31.97359375 6.6328125 33.0546875 C6.96805422 35.74375407 7.06988372 38.29450162 7 41 C4.70176341 38.70176341 4.70309616 38.05119118 4.4375 34.9375 C4.44086552 31.23263383 4.44086552 31.23263383 3 30 C2.79160985 28.35892758 2.63248275 26.71143707 2.5 25.0625 C2.24785057 21.39442535 2.24785057 21.39442535 1 18 C0.84995027 16.6265365 0.75161994 15.2471474 0.68359375 13.8671875 C0.62075195 12.65869141 0.62075195 12.65869141 0.55664062 11.42578125 C0.51732422 10.58402344 0.47800781 9.74226562 0.4375 8.875 C0.39431641 8.02550781 0.35113281 7.17601562 0.30664062 6.30078125 C0.20045764 4.20071777 0.09971503 2.10038052 0 0 Z " fill="#E6DAA4" transform="translate(376,790)"/>
<path d="M0 0 C0.33 0 0.66 0 1 0 C1.50787046 2.99885414 2.00646625 5.99878126 2.5 9 C2.64308594 9.83917969 2.78617187 10.67835938 2.93359375 11.54296875 C3.06894531 12.37441406 3.20429688 13.20585937 3.34375 14.0625 C3.46943359 14.81660156 3.59511719 15.57070313 3.72460938 16.34765625 C4.09143521 19.88063134 4 23.44803235 4 27 C-4.58 27 -13.16 27 -22 27 C-22 26.67 -22 26.34 -22 26 C-13.75 26 -5.5 26 3 26 C3 24.35 3 22.7 3 21 C2.34 21 1.68 21 1 21 C0.67 14.07 0.34 7.14 0 0 Z " fill="#DAD2B2" transform="translate(320,434)"/>
<path d="M0 0 C0.33 0 0.66 0 1 0 C5.5691466 25.9701529 5.5691466 25.9701529 6 37 C5.34 37 4.68 37 4 37 C3.93941406 36.22914063 3.87882812 35.45828125 3.81640625 34.6640625 C3.73261719 33.66117188 3.64882813 32.65828125 3.5625 31.625 C3.44068359 30.12839844 3.44068359 30.12839844 3.31640625 28.6015625 C3.15034374 26.02072387 3.15034374 26.02072387 2 24 C1.68744353 21.14792222 1.48962518 18.29503146 1.28125 15.43359375 C1.26165078 13.05456695 1.26165078 13.05456695 0 12 C-0.07244053 9.98035801 -0.08377188 7.95832876 -0.0625 5.9375 C-0.05347656 4.83277344 -0.04445313 3.72804688 -0.03515625 2.58984375 C-0.02355469 1.73519531 -0.01195312 0.88054688 0 0 Z " fill="#EDE3B6" transform="translate(403,960)"/>
<path d="M0 0 C0.33 0 0.66 0 1 0 C1.16065663 6.07002657 0.57707978 11.70855776 -0.4375 17.6875 C-0.57220703 18.51572266 -0.70691406 19.34394531 -0.84570312 20.19726562 C-1.49396271 24.14690571 -2.17811554 28.08208475 -3 32 C-3.33 32 -3.66 32 -4 32 C-4 28.04 -4 24.08 -4 20 C-3.34 20 -2.68 20 -2 20 C-2.02320313 19.14277344 -2.04640625 18.28554688 -2.0703125 17.40234375 C-2.16826645 11.19626131 -2.17409407 5.8428778 0 0 Z " fill="#DC871B" transform="translate(711,834)"/>
<path d="M0 0 C2.67927341 4.01891012 2.15601248 6.24161923 2 11 C2.66 11 3.32 11 4 11 C4 15.95 4 20.9 4 26 C3.67 26 3.34 26 3 26 C2.49168133 23.16793882 1.99318495 20.33470266 1.5 17.5 C1.35691406 16.70851563 1.21382813 15.91703125 1.06640625 15.1015625 C0.18613543 9.9876082 -0.1428131 5.18887598 0 0 Z " fill="#F1D539" transform="translate(403,952)"/>
<path d="M0 0 C1.94337637 2.91506455 2.27674667 3.82971692 2.5625 7.125 C2.56686899 10.77463966 2.56686899 10.77463966 4 12 C4.07313567 14.53049402 4.09247527 17.03304837 4.0625 19.5625 C4.05798828 20.27341797 4.05347656 20.98433594 4.04882812 21.71679688 C4.03700864 23.47790013 4.01907263 25.23896036 4 27 C3.67 27 3.34 27 3 27 C2.49129467 23.813827 1.99463419 20.62588525 1.5 17.4375 C1.35691406 16.54224609 1.21382813 15.64699219 1.06640625 14.72460938 C0.30107612 9.74996352 -0.16568252 5.03260643 0 0 Z " fill="#F2D53A" transform="translate(391,876)"/>
<path d="M0 0 C0.33 0 0.66 0 1 0 C0.67 6.93 0.34 13.86 0 21 C-0.99 21.33 -1.98 21.66 -3 22 C-2.69003741 19.27052356 -2.37712025 16.54144015 -2.0625 13.8125 C-1.97548828 13.04357422 -1.88847656 12.27464844 -1.79882812 11.48242188 C-1.35035579 7.61227172 -0.8470999 3.80813376 0 0 Z " fill="#361702" transform="translate(717,804)"/>
<path d="M0 0 C0.66 0 1.32 0 2 0 C2.22786458 2.05078125 2.45572917 4.1015625 2.68359375 6.15234375 C2.81886614 8.01140229 2.81886614 8.01140229 4 9 C4.07313567 11.53049402 4.09247527 14.03304837 4.0625 16.5625 C4.05798828 17.27341797 4.05347656 17.98433594 4.04882812 18.71679688 C4.03700864 20.47790013 4.01907263 22.23896036 4 24 C3.67 24 3.34 24 3 24 C2.49515526 20.75073335 1.99697406 17.50047901 1.5 14.25 C1.35691406 13.32960938 1.21382813 12.40921875 1.06640625 11.4609375 C0.93105469 10.57148437 0.79570312 9.68203125 0.65625 8.765625 C0.53056641 7.94868164 0.40488281 7.13173828 0.27539062 6.29003906 C0 4 0 4 0 0 Z " fill="#F1D636" transform="translate(395,904)"/>
<path d="M0 0 C0.33 0 0.66 0 1 0 C1.05384521 2.29141286 1.09272087 4.58318188 1.125 6.875 C1.14820313 8.15117188 1.17140625 9.42734375 1.1953125 10.7421875 C1 14 1 14 -1 16 C-2.03038433 12.0585998 -1.87693282 9.16384848 -1.0625 5.1875 C-0.86785156 4.21167969 -0.67320312 3.23585938 -0.47265625 2.23046875 C-0.31667969 1.49441406 -0.16070313 0.75835938 0 0 Z " fill="#351602" transform="translate(708,861)"/>
<path d="M0 0 C0.33 0 0.66 0 1 0 C1.0809723 2.43816585 1.14046972 4.87364384 1.1875 7.3125 C1.22520508 8.34793945 1.22520508 8.34793945 1.26367188 9.40429688 C1.29296875 11.42578125 1.29296875 11.42578125 1 15 C0.01 15.99 -0.98 16.98 -2 18 C-1.34 12.06 -0.68 6.12 0 0 Z " fill="#361701" transform="translate(788,354)"/>
<path d="M0 0 C0.33 0 0.66 0 1 0 C1.02703381 1.93742341 1.04641125 3.87495479 1.0625 5.8125 C1.07410156 6.89144531 1.08570313 7.97039062 1.09765625 9.08203125 C1 12 1 12 0 15 C-0.66 15 -1.32 15 -2 15 C-1.47462276 9.9697924 -0.89405214 4.98114761 0 0 Z " fill="#321401" transform="translate(774,444)"/>
</svg>
