<svg id="svg" version="1.1" xmlns="http://www.w3.org/2000/svg" xmlns:xlink="http://www.w3.org/1999/xlink" width="400" height="400" viewBox="0, 0, 400,400"><g id="svgg"><path id="path0" d="M104.800 75.656 C 67.222 83.893,66.411 133.321,103.706 142.339 C 117.596 145.698,134.224 137.086,140.659 123.200 C 141.790 120.759,142.087 119.878,143.168 115.754 C 147.225 100.282,135.675 81.154,119.600 76.719 C 115.079 75.472,107.968 74.961,104.800 75.656 M255.800 155.622 C 237.846 156.690,224.684 163.171,215.430 175.500 C 212.875 178.904,212.909 178.968,212.708 170.500 C 212.518 162.520,212.283 161.469,210.310 159.779 C 208.194 157.968,208.624 158.000,186.600 158.000 C 164.102 158.000,164.871 157.933,162.712 160.084 C 160.233 162.553,160.400 156.707,160.400 241.200 C 160.400 324.018,160.289 319.426,162.355 322.052 C 164.503 324.783,164.657 324.800,186.547 324.800 C 208.088 324.800,207.995 324.809,210.324 322.488 C 212.498 320.321,212.394 322.453,212.550 276.800 C 212.691 235.590,212.778 232.499,213.944 227.200 C 218.617 205.956,233.855 195.778,252.200 201.649 C 259.611 204.021,264.794 209.814,267.724 219.000 C 268.704 222.075,269.094 224.015,269.989 230.277 C 270.250 232.104,270.401 248.886,270.401 276.277 L 270.403 319.400 271.256 320.800 C 273.741 324.878,273.238 324.800,297.000 324.800 C 318.923 324.800,318.749 324.814,321.340 322.776 C 324.146 320.568,324.000 323.169,324.001 275.467 C 324.003 224.413,323.692 217.303,320.810 202.400 C 319.349 194.845,314.121 181.281,311.752 178.898 C 311.477 178.621,311.138 178.036,310.999 177.598 C 310.860 177.159,310.621 176.800,310.467 176.800 C 310.314 176.800,309.746 176.084,309.205 175.209 C 308.665 174.334,306.597 172.033,304.611 170.095 C 298.428 164.065,291.133 159.945,282.600 157.665 C 281.116 157.269,280.238 157.075,277.900 156.628 C 272.238 155.544,263.668 155.155,255.800 155.622 M88.321 158.654 C 86.427 159.653,84.471 162.330,84.011 164.551 C 83.221 168.372,83.649 317.867,84.455 319.642 C 85.393 321.706,87.582 323.720,89.519 324.300 C 92.560 325.211,128.672 324.998,130.867 324.056 C 133.073 323.109,135.094 321.044,135.601 319.221 C 136.341 316.555,136.126 164.675,135.379 162.887 C 134.638 161.115,133.063 159.390,131.449 158.585 C 129.734 157.729,89.952 157.793,88.321 158.654 " stroke="none" fill="#fafbfb" fill-rule="evenodd"></path><path id="path1" d="M43.100 0.292 C 42.055 0.375,41.200 0.614,41.200 0.822 C 41.200 1.030,40.480 1.200,39.600 1.200 C 38.720 1.200,38.000 1.380,38.000 1.600 C 38.000 1.820,37.460 2.000,36.800 2.000 C 36.140 2.000,35.600 2.180,35.600 2.400 C 35.600 2.620,35.150 2.800,34.600 2.800 C 34.050 2.800,33.600 2.980,33.600 3.200 C 33.600 3.420,33.150 3.600,32.600 3.600 C 32.050 3.600,31.600 3.780,31.600 4.000 C 31.600 4.220,31.240 4.400,30.800 4.400 C 30.360 4.400,29.999 4.535,29.997 4.700 C 29.993 5.065,28.051 6.000,27.297 6.000 C 26.998 6.000,26.864 6.180,27.000 6.400 C 27.136 6.620,26.916 6.800,26.512 6.800 C 26.107 6.800,25.517 7.160,25.200 7.600 C 24.883 8.040,24.305 8.400,23.915 8.400 C 23.526 8.400,22.982 8.760,22.707 9.200 C 22.432 9.640,21.899 10.000,21.522 10.000 C 21.144 10.000,19.802 11.009,18.539 12.243 C 17.275 13.476,15.827 14.757,15.321 15.089 C 14.814 15.421,14.400 15.835,14.400 16.011 C 14.400 16.186,13.410 17.343,12.200 18.582 C 10.990 19.822,10.000 21.188,10.000 21.618 C 10.000 22.060,9.729 22.400,9.376 22.400 C 9.033 22.400,8.864 22.580,9.000 22.800 C 9.136 23.020,9.057 23.200,8.824 23.200 C 8.591 23.200,8.400 23.520,8.400 23.912 C 8.400 24.303,8.040 24.883,7.600 25.200 C 7.160 25.517,6.800 26.107,6.800 26.512 C 6.800 26.916,6.620 27.136,6.400 27.000 C 6.180 26.864,6.000 27.123,6.000 27.576 C 6.000 28.029,5.820 28.400,5.600 28.400 C 5.380 28.400,5.200 28.760,5.200 29.200 C 5.200 29.640,5.020 30.000,4.800 30.000 C 4.580 30.000,4.400 30.360,4.400 30.800 C 4.400 31.240,4.258 31.600,4.085 31.600 C 3.912 31.600,3.740 32.002,3.703 32.494 C 3.666 32.986,3.448 33.451,3.218 33.527 C 2.988 33.604,2.800 34.102,2.800 34.633 C 2.800 35.165,2.620 35.600,2.400 35.600 C 2.180 35.600,2.000 36.140,2.000 36.800 C 2.000 37.460,1.820 38.000,1.600 38.000 C 1.380 38.000,1.200 38.705,1.200 39.567 C 1.200 40.464,0.987 41.204,0.700 41.300 C -0.036 41.545,-0.036 358.455,0.700 358.700 C 0.987 358.796,1.200 359.536,1.200 360.433 C 1.200 361.295,1.380 362.000,1.600 362.000 C 1.820 362.000,2.000 362.540,2.000 363.200 C 2.000 363.860,2.180 364.400,2.400 364.400 C 2.620 364.400,2.800 364.850,2.800 365.400 C 2.800 365.950,2.980 366.400,3.200 366.400 C 3.420 366.400,3.600 366.850,3.600 367.400 C 3.600 367.950,3.780 368.400,4.000 368.400 C 4.220 368.400,4.400 368.760,4.400 369.200 C 4.400 369.640,4.580 370.000,4.800 370.000 C 5.020 370.000,5.200 370.360,5.200 370.800 C 5.200 371.240,5.380 371.600,5.600 371.600 C 5.820 371.600,6.000 371.960,6.000 372.400 C 6.000 372.840,6.180 373.200,6.400 373.200 C 6.620 373.200,6.800 373.430,6.800 373.712 C 6.800 373.993,7.160 374.483,7.600 374.800 C 8.040 375.117,8.400 375.697,8.400 376.088 C 8.400 376.480,8.591 376.800,8.824 376.800 C 9.057 376.800,9.148 376.961,9.026 377.158 C 8.904 377.355,9.074 377.619,9.402 377.746 C 9.731 377.872,10.000 378.266,10.000 378.622 C 10.000 379.262,20.524 390.000,21.151 390.000 C 21.331 390.000,21.893 390.360,22.400 390.800 C 22.907 391.240,23.615 391.600,23.973 391.600 C 24.331 391.600,24.883 391.960,25.200 392.400 C 25.517 392.840,26.107 393.200,26.512 393.200 C 26.916 393.200,27.136 393.380,27.000 393.600 C 26.864 393.820,26.998 394.000,27.297 394.000 C 28.051 394.000,29.993 394.935,29.997 395.300 C 29.999 395.465,30.360 395.600,30.800 395.600 C 31.240 395.600,31.600 395.780,31.600 396.000 C 31.600 396.220,32.050 396.400,32.600 396.400 C 33.150 396.400,33.600 396.580,33.600 396.800 C 33.600 397.020,34.050 397.200,34.600 397.200 C 35.150 397.200,35.600 397.380,35.600 397.600 C 35.600 397.820,36.140 398.000,36.800 398.000 C 37.460 398.000,38.000 398.180,38.000 398.400 C 38.000 398.620,38.705 398.800,39.567 398.800 C 40.464 398.800,41.204 399.013,41.300 399.300 C 41.545 400.036,358.455 400.036,358.700 399.300 C 358.796 399.013,359.536 398.800,360.433 398.800 C 361.295 398.800,362.000 398.620,362.000 398.400 C 362.000 398.180,362.540 398.000,363.200 398.000 C 363.860 398.000,364.400 397.820,364.400 397.600 C 364.400 397.380,364.850 397.200,365.400 397.200 C 365.950 397.200,366.400 397.020,366.400 396.800 C 366.400 396.580,366.850 396.400,367.400 396.400 C 367.950 396.400,368.400 396.220,368.400 396.000 C 368.400 395.780,368.760 395.600,369.200 395.600 C 369.640 395.600,370.000 395.420,370.000 395.200 C 370.000 394.980,370.360 394.800,370.800 394.800 C 371.240 394.800,371.600 394.620,371.600 394.400 C 371.600 394.180,371.960 394.000,372.400 394.000 C 372.840 394.000,373.200 393.820,373.200 393.600 C 373.200 393.380,373.430 393.200,373.712 393.200 C 373.993 393.200,374.483 392.840,374.800 392.400 C 375.117 391.960,375.669 391.600,376.027 391.600 C 376.385 391.600,377.093 391.240,377.600 390.800 C 378.107 390.360,378.663 390.000,378.835 390.000 C 379.006 390.000,380.046 389.145,381.145 388.100 C 382.244 387.055,383.561 385.830,384.071 385.377 C 385.390 384.209,389.665 379.384,390.145 378.523 C 390.367 378.125,390.785 377.562,391.074 377.271 C 391.363 376.981,391.600 376.435,391.600 376.060 C 391.600 375.684,391.960 375.117,392.400 374.800 C 392.840 374.483,393.200 373.993,393.200 373.712 C 393.200 373.430,393.380 373.200,393.600 373.200 C 393.820 373.200,394.000 372.840,394.000 372.400 C 394.000 371.960,394.180 371.600,394.400 371.600 C 394.620 371.600,394.800 371.240,394.800 370.800 C 394.800 370.360,394.980 370.000,395.200 370.000 C 395.420 370.000,395.600 369.640,395.600 369.200 C 395.600 368.760,395.780 368.400,396.000 368.400 C 396.220 368.400,396.400 367.950,396.400 367.400 C 396.400 366.850,396.580 366.400,396.800 366.400 C 397.020 366.400,397.200 365.950,397.200 365.400 C 397.200 364.850,397.380 364.400,397.600 364.400 C 397.820 364.400,398.000 363.860,398.000 363.200 C 398.000 362.540,398.180 362.000,398.400 362.000 C 398.620 362.000,398.800 361.316,398.800 360.480 C 398.800 359.644,399.025 358.735,399.300 358.460 C 400.036 357.724,400.036 41.545,399.300 41.300 C 399.013 41.204,398.800 40.464,398.800 39.567 C 398.800 38.705,398.620 38.000,398.400 38.000 C 398.180 38.000,398.000 37.460,398.000 36.800 C 398.000 36.140,397.820 35.600,397.600 35.600 C 397.380 35.600,397.200 35.161,397.200 34.624 C 397.200 34.087,397.020 33.536,396.800 33.400 C 396.580 33.264,396.400 32.803,396.400 32.376 C 396.400 31.949,396.220 31.600,396.000 31.600 C 395.780 31.600,395.600 31.240,395.600 30.800 C 395.600 30.360,395.420 30.000,395.200 30.000 C 394.980 30.000,394.800 29.640,394.800 29.200 C 394.800 28.760,394.620 28.400,394.400 28.400 C 394.180 28.400,394.000 28.029,394.000 27.576 C 394.000 27.123,393.820 26.864,393.600 27.000 C 393.380 27.136,393.200 26.916,393.200 26.512 C 393.200 26.107,392.840 25.517,392.400 25.200 C 391.960 24.883,391.600 24.331,391.600 23.973 C 391.600 23.615,391.240 22.907,390.800 22.400 C 390.360 21.893,390.000 21.337,390.000 21.165 C 390.000 20.993,389.043 19.895,387.874 18.726 C 386.705 17.557,385.425 16.105,385.028 15.500 C 384.632 14.895,384.165 14.400,383.989 14.400 C 383.814 14.400,382.657 13.410,381.418 12.200 C 380.178 10.990,378.897 10.000,378.570 10.000 C 378.242 10.000,377.872 9.731,377.746 9.402 C 377.619 9.074,377.355 8.904,377.158 9.026 C 376.961 9.148,376.800 9.057,376.800 8.824 C 376.800 8.591,376.480 8.400,376.088 8.400 C 375.697 8.400,375.117 8.040,374.800 7.600 C 374.483 7.160,373.993 6.800,373.712 6.800 C 373.430 6.800,373.200 6.620,373.200 6.400 C 373.200 6.180,372.840 6.000,372.400 6.000 C 371.960 6.000,371.600 5.820,371.600 5.600 C 371.600 5.380,371.240 5.200,370.800 5.200 C 370.360 5.200,370.000 5.020,370.000 4.800 C 370.000 4.580,369.640 4.400,369.200 4.400 C 368.760 4.400,368.400 4.220,368.400 4.000 C 368.400 3.780,367.950 3.600,367.400 3.600 C 366.850 3.600,366.400 3.420,366.400 3.200 C 366.400 2.980,365.950 2.800,365.400 2.800 C 364.850 2.800,364.400 2.620,364.400 2.400 C 364.400 2.180,363.860 2.000,363.200 2.000 C 362.540 2.000,362.000 1.820,362.000 1.600 C 362.000 1.380,361.295 1.200,360.433 1.200 C 359.536 1.200,358.796 0.987,358.700 0.700 C 358.544 0.230,48.871 -0.170,43.100 0.292 M117.200 75.200 C 117.200 75.420,117.819 75.600,118.576 75.600 C 119.333 75.600,120.064 75.780,120.200 76.000 C 120.336 76.220,120.799 76.400,121.229 76.400 C 121.659 76.400,122.323 76.560,122.705 76.756 C 123.087 76.952,124.300 77.534,125.400 78.049 C 127.446 79.007,130.235 80.808,132.895 82.890 C 136.064 85.369,141.600 93.318,141.600 95.389 C 141.600 95.725,141.780 96.000,142.000 96.000 C 142.220 96.000,142.400 96.349,142.400 96.776 C 142.400 97.203,142.580 97.664,142.800 97.800 C 143.020 97.936,143.200 98.566,143.200 99.200 C 143.200 99.834,143.380 100.464,143.600 100.600 C 143.820 100.736,144.000 101.726,144.000 102.800 C 144.000 103.874,144.180 104.864,144.400 105.000 C 144.623 105.138,144.800 106.996,144.800 109.200 C 144.800 111.404,144.623 113.262,144.400 113.400 C 144.180 113.536,144.000 114.537,144.000 115.624 C 144.000 116.711,143.820 117.600,143.600 117.600 C 143.380 117.600,143.200 118.230,143.200 119.000 C 143.200 119.770,143.020 120.400,142.800 120.400 C 142.580 120.400,142.400 120.850,142.400 121.400 C 142.400 121.950,142.220 122.400,142.000 122.400 C 141.780 122.400,141.600 122.764,141.600 123.209 C 141.600 123.653,141.117 124.778,140.527 125.709 C 139.936 126.639,138.873 128.305,138.165 129.411 C 135.114 134.170,125.184 141.600,121.873 141.600 C 121.529 141.600,121.136 141.780,121.000 142.000 C 120.864 142.220,120.133 142.400,119.376 142.400 C 118.619 142.400,118.000 142.564,118.000 142.764 C 118.000 143.420,107.682 144.242,107.075 143.635 C 106.836 143.396,105.596 143.200,104.320 143.200 C 103.040 143.200,102.000 143.021,102.000 142.800 C 102.000 142.580,101.370 142.400,100.600 142.400 C 99.830 142.400,99.200 142.220,99.200 142.000 C 99.200 141.780,98.845 141.600,98.412 141.600 C 93.368 141.600,82.636 132.272,79.177 124.882 C 78.487 123.407,77.759 121.887,77.561 121.505 C 77.362 121.123,77.200 120.358,77.200 119.805 C 77.200 119.252,77.020 118.800,76.800 118.800 C 76.580 118.800,76.400 118.091,76.400 117.224 C 76.400 116.357,76.220 115.536,76.000 115.400 C 75.761 115.253,75.600 112.670,75.600 109.000 C 75.600 105.330,75.761 102.747,76.000 102.600 C 76.220 102.464,76.400 101.744,76.400 101.000 C 76.400 100.256,76.580 99.536,76.800 99.400 C 77.020 99.264,77.200 98.815,77.200 98.403 C 77.200 92.261,91.256 77.200,96.989 77.200 C 97.325 77.200,97.600 77.020,97.600 76.800 C 97.600 76.580,98.039 76.400,98.576 76.400 C 99.113 76.400,99.664 76.220,99.800 76.000 C 99.936 75.780,100.656 75.600,101.400 75.600 C 102.144 75.600,102.864 75.420,103.000 75.200 C 103.150 74.958,106.004 74.800,110.224 74.800 C 114.608 74.800,117.200 74.949,117.200 75.200 M274.200 155.005 C 275.740 155.148,277.171 155.430,277.380 155.632 C 277.589 155.835,278.433 156.000,279.256 156.000 C 280.079 156.000,280.864 156.180,281.000 156.400 C 281.136 156.620,281.856 156.800,282.600 156.800 C 283.344 156.800,284.064 156.980,284.200 157.200 C 284.336 157.420,284.876 157.600,285.400 157.600 C 285.924 157.600,286.464 157.780,286.600 158.000 C 286.736 158.220,287.287 158.400,287.824 158.400 C 288.361 158.400,288.800 158.580,288.800 158.800 C 288.800 159.020,289.250 159.200,289.800 159.200 C 290.350 159.200,290.800 159.380,290.800 159.600 C 290.800 159.820,291.053 160.000,291.362 160.000 C 291.889 160.000,295.160 161.550,295.600 162.008 C 295.710 162.123,296.250 162.415,296.800 162.658 C 299.354 163.785,308.800 172.102,308.800 173.223 C 308.800 173.434,309.340 174.172,310.000 174.863 C 310.660 175.554,311.200 176.279,311.200 176.476 C 311.200 176.673,311.531 177.189,311.936 177.623 C 312.341 178.058,312.926 178.905,313.235 179.507 C 313.545 180.108,313.893 180.690,314.007 180.800 C 314.245 181.028,316.718 186.139,317.249 187.500 C 317.987 189.392,318.506 190.625,318.847 191.295 C 319.041 191.677,319.200 192.264,319.200 192.600 C 319.200 192.936,319.362 193.523,319.561 193.905 C 319.939 194.632,320.457 196.494,321.175 199.700 C 321.409 200.745,321.775 202.365,321.990 203.300 C 322.204 204.235,322.650 207.070,322.980 209.600 C 323.311 212.130,323.789 215.730,324.043 217.600 C 324.698 222.416,325.042 317.215,324.414 319.549 C 323.911 321.416,322.047 323.748,320.360 324.620 C 319.420 325.107,315.646 325.198,296.920 325.187 L 274.600 325.173 273.000 324.074 C 272.120 323.470,271.222 322.576,271.005 322.087 C 270.788 321.599,270.473 321.200,270.305 321.200 C 270.137 321.200,270.000 320.786,270.000 320.280 C 270.000 319.774,269.822 319.182,269.603 318.963 C 269.348 318.708,269.152 302.502,269.052 273.383 C 268.903 230.098,268.776 224.271,267.963 223.420 C 267.763 223.211,267.600 222.457,267.600 221.744 C 267.600 221.031,267.420 220.336,267.200 220.200 C 266.980 220.064,266.800 219.601,266.800 219.171 C 266.800 218.741,266.634 218.077,266.431 217.695 C 266.229 217.313,265.409 215.586,264.609 213.858 C 262.352 208.981,255.450 202.765,252.324 202.794 C 251.952 202.797,251.536 202.620,251.400 202.400 C 251.264 202.180,250.544 202.000,249.800 202.000 C 249.056 202.000,248.336 201.820,248.200 201.600 C 248.055 201.366,245.737 201.200,242.600 201.200 C 239.463 201.200,237.145 201.366,237.000 201.600 C 236.864 201.820,236.221 202.000,235.571 202.000 C 234.921 202.000,234.077 202.158,233.695 202.351 C 233.313 202.543,231.740 203.308,230.200 204.051 C 227.278 205.459,221.940 210.295,220.704 212.655 C 219.302 215.329,217.466 219.072,217.101 220.000 C 216.884 220.550,216.548 221.313,216.353 221.695 C 216.159 222.077,216.000 222.842,216.000 223.395 C 216.000 223.948,215.820 224.400,215.600 224.400 C 215.380 224.400,215.200 224.994,215.200 225.720 C 215.200 226.446,215.037 227.211,214.837 227.420 C 214.027 228.268,213.897 233.998,213.748 275.584 C 213.648 303.502,213.452 319.108,213.196 319.364 C 212.978 319.582,212.800 319.997,212.800 320.286 C 212.800 321.328,210.968 323.575,209.462 324.379 C 207.966 325.178,207.343 325.200,186.234 325.200 L 164.544 325.200 162.862 323.760 C 159.727 321.077,160.000 328.952,160.000 241.174 C 160.000 162.453,160.001 162.306,160.819 160.854 C 161.651 159.375,163.916 157.600,164.971 157.600 C 165.291 157.600,165.664 157.420,165.800 157.200 C 165.960 156.942,173.337 156.800,186.624 156.800 C 200.075 156.800,207.200 156.939,207.200 157.200 C 207.200 157.420,207.621 157.600,208.136 157.600 C 209.211 157.600,212.800 160.783,212.800 161.737 C 212.800 162.076,212.980 162.464,213.200 162.600 C 213.441 162.749,213.600 165.505,213.600 169.524 L 213.601 176.200 214.600 175.038 C 215.150 174.399,215.600 173.747,215.600 173.590 C 215.600 171.793,226.925 162.793,232.200 160.398 C 233.740 159.699,235.313 158.964,235.695 158.764 C 236.077 158.564,236.752 158.400,237.195 158.400 C 237.638 158.400,238.000 158.220,238.000 158.000 C 238.000 157.780,238.540 157.600,239.200 157.600 C 239.860 157.600,240.400 157.420,240.400 157.200 C 240.400 156.980,241.120 156.800,242.000 156.800 C 242.880 156.800,243.600 156.620,243.600 156.400 C 243.600 156.180,244.399 156.000,245.376 156.000 C 246.353 156.000,247.264 155.820,247.400 155.600 C 247.536 155.380,248.762 155.197,250.124 155.194 C 251.486 155.191,252.870 155.010,253.200 154.792 C 253.831 154.375,269.089 154.530,274.200 155.005 M130.200 157.200 C 130.336 157.420,130.719 157.600,131.052 157.600 C 132.426 157.600,135.042 159.943,136.116 162.136 L 137.200 164.350 137.200 241.142 C 137.200 327.662,137.476 320.027,134.242 323.000 C 131.738 325.301,132.852 325.201,109.905 325.187 L 88.600 325.173 87.004 324.070 C 86.127 323.464,84.867 322.165,84.204 321.184 L 83.000 319.400 83.000 241.033 C 83.000 178.696,83.102 162.633,83.500 162.500 C 83.775 162.408,84.000 162.072,84.000 161.753 C 84.000 160.980,86.306 158.737,87.803 158.054 C 88.461 157.753,89.270 157.359,89.600 157.177 C 90.491 156.687,129.897 156.709,130.200 157.200 " stroke="none" fill="#0474b4" fill-rule="evenodd"></path><path id="path2" d="M108.707 75.090 C 109.426 75.179,110.506 75.177,111.107 75.086 C 111.708 74.995,111.120 74.922,109.800 74.924 C 108.480 74.926,107.988 75.001,108.707 75.090 M160.196 241.200 C 160.196 283.550,160.243 300.875,160.300 279.700 C 160.357 258.525,160.357 223.875,160.300 202.700 C 160.243 181.525,160.196 198.850,160.196 241.200 M324.151 235.200 C 324.151 237.730,324.216 238.765,324.296 237.500 C 324.375 236.235,324.375 234.165,324.296 232.900 C 324.216 231.635,324.151 232.670,324.151 235.200 M100.500 325.100 C 105.725 325.163,114.275 325.163,119.500 325.100 C 124.725 325.036,120.450 324.985,110.000 324.985 C 99.550 324.985,95.275 325.036,100.500 325.100 M176.672 325.100 C 181.992 325.163,190.812 325.163,196.272 325.100 C 201.733 325.037,197.380 324.985,186.600 324.985 C 175.820 324.985,171.353 325.037,176.672 325.100 M286.928 325.100 C 292.608 325.162,301.788 325.162,307.328 325.100 C 312.868 325.037,308.220 324.986,297.000 324.986 C 285.780 324.986,281.248 325.037,286.928 325.100 " stroke="none" fill="#7cbcdc" fill-rule="evenodd"></path><path id="path3" d="M112.500 75.076 C 112.885 75.176,113.515 75.176,113.900 75.076 C 114.285 74.975,113.970 74.893,113.200 74.893 C 112.430 74.893,112.115 74.975,112.500 75.076 M133.800 84.800 C 134.883 85.900,135.860 86.800,135.970 86.800 C 136.080 86.800,135.283 85.900,134.200 84.800 C 133.117 83.700,132.140 82.800,132.030 82.800 C 131.920 82.800,132.717 83.700,133.800 84.800 M84.575 86.100 L 83.400 87.400 84.700 86.225 C 85.912 85.130,86.184 84.800,85.875 84.800 C 85.806 84.800,85.221 85.385,84.575 86.100 M75.742 109.000 C 75.741 110.980,75.808 111.840,75.892 110.912 C 75.976 109.984,75.977 108.364,75.895 107.312 C 75.812 106.260,75.743 107.020,75.742 109.000 M144.124 109.400 C 144.126 110.720,144.201 111.212,144.290 110.493 C 144.379 109.774,144.377 108.694,144.286 108.093 C 144.195 107.492,144.122 108.080,144.124 109.400 M267.300 155.076 C 267.685 155.176,268.315 155.176,268.700 155.076 C 269.085 154.975,268.770 154.893,268.000 154.893 C 267.230 154.893,266.915 154.975,267.300 155.076 M251.700 155.476 C 252.085 155.576,252.715 155.576,253.100 155.476 C 253.485 155.375,253.170 155.293,252.400 155.293 C 251.630 155.293,251.315 155.375,251.700 155.476 M271.905 155.483 C 272.402 155.579,273.122 155.575,273.505 155.475 C 273.887 155.375,273.480 155.296,272.600 155.301 C 271.720 155.305,271.407 155.387,271.905 155.483 M100.300 157.500 C 105.635 157.563,114.365 157.563,119.700 157.500 C 125.035 157.437,120.670 157.385,110.000 157.385 C 99.330 157.385,94.965 157.437,100.300 157.500 M176.500 157.500 C 181.945 157.563,190.855 157.563,196.300 157.500 C 201.745 157.437,197.290 157.385,186.400 157.385 C 175.510 157.385,171.055 157.437,176.500 157.500 M133.600 159.800 C 134.346 160.570,135.047 161.200,135.157 161.200 C 135.267 161.200,134.746 160.570,134.000 159.800 C 133.254 159.030,132.553 158.400,132.443 158.400 C 132.333 158.400,132.854 159.030,133.600 159.800 M136.596 241.400 C 136.596 283.420,136.643 300.669,136.700 279.732 C 136.757 258.794,136.757 224.414,136.700 203.332 C 136.643 182.249,136.596 199.380,136.596 241.400 M83.396 241.200 C 83.396 282.450,83.443 299.325,83.500 278.700 C 83.557 258.075,83.557 224.325,83.500 203.700 C 83.443 183.075,83.396 199.950,83.396 241.200 M219.785 169.700 L 217.800 171.800 219.900 169.815 C 221.055 168.723,222.000 167.778,222.000 167.715 C 222.000 167.417,221.629 167.749,219.785 169.700 M304.800 169.800 C 305.995 171.010,307.063 172.000,307.173 172.000 C 307.283 172.000,306.395 171.010,305.200 169.800 C 304.005 168.590,302.937 167.600,302.827 167.600 C 302.717 167.600,303.605 168.590,304.800 169.800 M241.300 200.687 C 241.905 200.778,242.895 200.778,243.500 200.687 C 244.105 200.595,243.610 200.520,242.400 200.520 C 241.190 200.520,240.695 200.595,241.300 200.687 M324.131 228.200 C 324.133 229.740,324.205 230.321,324.292 229.491 C 324.379 228.661,324.377 227.401,324.289 226.691 C 324.200 225.981,324.129 226.660,324.131 228.200 M213.293 232.800 C 213.293 233.570,213.375 233.885,213.476 233.500 C 213.576 233.115,213.576 232.485,213.476 232.100 C 213.375 231.715,213.293 232.030,213.293 232.800 M269.728 235.600 C 269.728 237.030,269.801 237.615,269.889 236.900 C 269.978 236.185,269.978 235.015,269.889 234.300 C 269.801 233.585,269.728 234.170,269.728 235.600 M212.993 277.200 C 212.993 299.970,213.041 309.285,213.100 297.900 C 213.159 286.515,213.159 267.885,213.100 256.500 C 213.041 245.115,212.993 254.430,212.993 277.200 M269.792 281.000 C 269.792 301.240,269.840 309.579,269.900 299.530 C 269.959 289.482,269.959 272.922,269.900 262.730 C 269.840 252.539,269.792 260.760,269.792 281.000 " stroke="none" fill="#62aad3" fill-rule="evenodd"></path><path id="path4" d="M75.849 103.815 C 75.712 104.173,75.615 104.766,75.634 105.133 C 75.653 105.500,75.827 105.269,76.021 104.620 C 76.398 103.358,76.265 102.733,75.849 103.815 M85.800 133.600 C 87.106 134.920,88.265 136.000,88.375 136.000 C 88.485 136.000,87.506 134.920,86.200 133.600 C 84.894 132.280,83.735 131.200,83.625 131.200 C 83.515 131.200,84.494 132.280,85.800 133.600 M108.900 143.487 C 109.505 143.578,110.495 143.578,111.100 143.487 C 111.705 143.395,111.210 143.320,110.000 143.320 C 108.790 143.320,108.295 143.395,108.900 143.487 M259.682 154.696 C 261.158 154.773,263.678 154.773,265.282 154.697 C 266.887 154.621,265.680 154.558,262.600 154.558 C 259.520 154.557,258.207 154.619,259.682 154.696 M100.700 157.100 C 105.815 157.163,114.185 157.163,119.300 157.100 C 124.415 157.036,120.230 156.985,110.000 156.985 C 99.770 156.985,95.585 157.036,100.700 157.100 M177.328 157.100 C 182.568 157.163,191.028 157.163,196.128 157.100 C 201.227 157.036,196.940 156.985,186.600 156.985 C 176.260 156.985,172.087 157.037,177.328 157.100 M83.293 165.200 C 83.293 165.970,83.375 166.285,83.476 165.900 C 83.576 165.515,83.576 164.885,83.476 164.500 C 83.375 164.115,83.293 164.430,83.293 165.200 M213.276 170.276 C 213.234 173.838,213.335 176.837,213.500 176.939 C 213.665 177.042,213.753 175.118,213.695 172.663 C 213.505 164.572,213.352 163.704,213.276 170.276 M237.700 201.076 C 238.085 201.176,238.715 201.176,239.100 201.076 C 239.485 200.975,239.170 200.893,238.400 200.893 C 237.630 200.893,237.315 200.975,237.700 201.076 M246.100 201.076 C 246.485 201.176,247.115 201.176,247.500 201.076 C 247.885 200.975,247.570 200.893,246.800 200.893 C 246.030 200.893,245.715 200.975,246.100 201.076 M324.101 224.200 C 324.105 225.080,324.187 225.393,324.283 224.895 C 324.379 224.398,324.375 223.678,324.275 223.295 C 324.175 222.913,324.096 223.320,324.101 224.200 M269.314 231.000 C 269.317 232.100,269.395 232.503,269.487 231.895 C 269.579 231.286,269.577 230.386,269.482 229.895 C 269.387 229.403,269.311 229.900,269.314 231.000 M213.393 275.800 C 213.393 298.900,213.441 308.291,213.500 296.669 C 213.559 285.048,213.559 266.148,213.500 254.669 C 213.441 243.191,213.393 252.700,213.393 275.800 M269.740 241.200 C 269.740 243.070,269.809 243.835,269.893 242.900 C 269.977 241.965,269.977 240.435,269.893 239.500 C 269.809 238.565,269.740 239.330,269.740 241.200 M83.301 317.400 C 83.305 318.280,83.387 318.593,83.483 318.095 C 83.579 317.598,83.575 316.878,83.475 316.495 C 83.375 316.113,83.296 316.520,83.301 317.400 " stroke="none" fill="#3294c4" fill-rule="evenodd"></path><path id="path5" d="M103.800 75.600 C 102.722 75.874,102.702 75.906,103.600 75.913 C 104.150 75.917,105.050 75.776,105.600 75.600 C 106.944 75.169,105.492 75.169,103.800 75.600 M114.200 75.590 C 114.964 75.928,117.514 76.157,117.167 75.856 C 117.075 75.776,116.190 75.604,115.200 75.473 C 113.998 75.314,113.666 75.353,114.200 75.590 M92.576 79.823 C 91.269 80.606,89.840 81.606,89.400 82.046 C 88.960 82.486,89.787 82.071,91.237 81.123 C 92.687 80.175,94.217 79.186,94.637 78.924 C 96.486 77.769,94.718 78.541,92.576 79.823 M126.400 79.321 C 126.400 79.412,127.435 80.151,128.700 80.963 C 129.965 81.775,130.508 82.021,129.906 81.510 C 128.718 80.500,126.400 79.053,126.400 79.321 M85.787 85.300 L 83.400 87.800 85.900 85.413 C 87.275 84.099,88.400 82.974,88.400 82.913 C 88.400 82.617,88.005 82.978,85.787 85.300 M133.600 85.000 C 134.795 86.210,135.863 87.200,135.973 87.200 C 136.083 87.200,135.195 86.210,134.000 85.000 C 132.805 83.790,131.737 82.800,131.627 82.800 C 131.517 82.800,132.405 83.790,133.600 85.000 M82.279 89.300 C 81.194 90.768,80.462 92.032,81.063 91.400 C 81.805 90.620,83.638 88.000,83.441 88.000 C 83.331 88.000,82.808 88.585,82.279 89.300 M140.446 94.200 C 140.453 94.420,140.806 95.320,141.229 96.200 C 141.652 97.080,141.886 97.350,141.749 96.800 C 141.467 95.667,140.425 93.588,140.446 94.200 M142.868 101.000 C 142.862 101.440,143.011 102.160,143.200 102.600 C 143.638 103.619,143.638 102.568,143.200 101.200 C 142.943 100.396,142.877 100.357,142.868 101.000 M76.493 103.600 C 76.493 104.370,76.575 104.685,76.676 104.300 C 76.776 103.915,76.776 103.285,76.676 102.900 C 76.575 102.515,76.493 102.830,76.493 103.600 M143.746 109.000 C 143.747 111.200,143.814 112.049,143.895 110.887 C 143.976 109.724,143.976 107.924,143.893 106.887 C 143.811 105.849,143.745 106.800,143.746 109.000 M76.070 111.800 C 76.057 112.240,76.195 113.320,76.377 114.200 C 76.655 115.545,76.708 115.609,76.707 114.600 C 76.705 113.199,76.108 110.570,76.070 111.800 M143.000 116.000 C 142.848 116.691,142.807 117.341,142.909 117.442 C 143.011 117.544,143.209 117.053,143.350 116.350 C 143.683 114.683,143.360 114.360,143.000 116.000 M137.830 128.234 C 137.014 129.463,135.204 131.611,133.807 133.007 C 132.411 134.404,130.263 136.214,129.034 137.030 C 126.633 138.624,126.009 139.307,128.036 138.123 C 131.453 136.126,136.402 131.175,138.856 127.299 C 140.254 125.091,139.400 125.869,137.830 128.234 M82.432 129.000 C 83.481 130.528,84.800 132.059,84.785 131.731 C 84.777 131.549,84.120 130.680,83.327 129.800 C 82.533 128.920,82.130 128.560,82.432 129.000 M89.967 136.545 C 90.500 137.201,92.000 138.193,92.000 137.889 C 92.000 137.813,91.415 137.322,90.700 136.799 C 89.896 136.210,89.616 136.113,89.967 136.545 M95.750 140.018 C 96.728 140.641,100.846 142.087,101.054 141.879 C 101.192 141.741,100.272 141.380,95.800 139.819 C 95.040 139.554,95.038 139.564,95.750 140.018 M122.200 140.470 C 118.759 141.856,118.477 142.004,119.800 141.729 C 121.090 141.460,125.264 139.666,124.600 139.665 C 124.380 139.665,123.300 140.027,122.200 140.470 M102.800 142.400 C 104.168 142.838,105.219 142.838,104.200 142.400 C 103.760 142.211,103.040 142.062,102.600 142.068 C 101.957 142.077,101.996 142.143,102.800 142.400 M115.800 142.400 C 114.781 142.838,115.832 142.838,117.200 142.400 C 118.004 142.143,118.043 142.077,117.400 142.068 C 116.960 142.062,116.240 142.211,115.800 142.400 M108.100 143.094 C 109.145 143.176,110.855 143.176,111.900 143.094 C 112.945 143.012,112.090 142.944,110.000 142.944 C 107.910 142.944,107.055 143.012,108.100 143.094 M257.200 155.174 C 255.469 155.307,257.667 155.409,262.400 155.415 C 268.306 155.422,269.649 155.349,267.200 155.152 C 263.341 154.843,261.469 154.847,257.200 155.174 M249.000 156.000 C 247.922 156.274,247.902 156.306,248.800 156.313 C 249.350 156.317,250.250 156.176,250.800 156.000 C 252.144 155.569,250.692 155.569,249.000 156.000 M274.000 156.000 C 274.550 156.176,275.450 156.317,276.000 156.313 C 276.898 156.306,276.878 156.274,275.800 156.000 C 274.108 155.569,272.656 155.569,274.000 156.000 M244.400 156.800 C 243.596 157.057,243.557 157.123,244.200 157.132 C 244.640 157.138,245.360 156.989,245.800 156.800 C 246.819 156.362,245.768 156.362,244.400 156.800 M278.800 156.800 C 279.130 157.013,279.760 157.178,280.200 157.166 L 281.000 157.144 280.200 156.800 C 279.004 156.286,278.005 156.286,278.800 156.800 M99.900 157.900 C 105.455 157.962,114.545 157.962,120.100 157.900 C 125.655 157.837,121.110 157.786,110.000 157.786 C 98.890 157.786,94.345 157.837,99.900 157.900 M176.328 157.900 C 182.118 157.962,191.478 157.962,197.128 157.900 C 202.778 157.837,198.040 157.786,186.600 157.786 C 175.160 157.786,170.538 157.837,176.328 157.900 M85.847 160.401 C 85.051 161.282,84.400 162.128,84.400 162.281 C 84.400 162.435,84.535 162.389,84.701 162.180 C 84.867 161.971,85.622 161.125,86.380 160.300 C 87.137 159.475,87.653 158.800,87.525 158.800 C 87.397 158.800,86.642 159.521,85.847 160.401 M133.479 160.001 C 134.182 160.770,135.030 162.030,135.363 162.800 C 135.696 163.570,135.976 163.966,135.984 163.680 C 136.012 162.775,134.918 161.042,133.536 159.801 L 132.200 158.602 133.479 160.001 M162.528 159.702 C 161.146 161.237,160.984 161.876,162.340 160.445 C 163.046 159.700,163.559 159.026,163.480 158.947 C 163.401 158.868,162.973 159.207,162.528 159.702 M295.174 162.724 C 295.709 163.159,296.699 163.819,297.374 164.191 L 298.600 164.867 297.626 164.076 C 297.091 163.641,296.101 162.981,295.426 162.609 L 294.200 161.933 295.174 162.724 M212.738 170.473 C 212.889 178.450,212.900 178.517,213.916 177.378 C 214.297 176.950,214.436 176.735,214.224 176.900 C 213.327 177.600,213.198 176.896,213.160 171.100 C 213.138 167.745,213.003 164.583,212.860 164.073 C 212.717 163.563,212.662 166.443,212.738 170.473 M136.196 241.200 C 136.196 283.330,136.243 300.565,136.300 279.500 C 136.357 258.435,136.357 223.965,136.300 202.900 C 136.243 181.835,136.196 199.070,136.196 241.200 M298.800 164.925 C 298.800 165.024,299.461 165.609,300.268 166.225 C 301.076 166.841,301.611 167.141,301.456 166.891 C 301.140 166.379,298.800 164.647,298.800 164.925 M220.177 169.710 L 217.800 172.200 220.191 170.000 C 221.506 168.790,222.661 167.755,222.757 167.700 C 222.854 167.645,222.848 167.515,222.744 167.410 C 222.640 167.306,221.485 168.341,220.177 169.710 M304.812 170.207 C 306.456 171.971,307.882 173.359,307.982 173.292 C 308.082 173.225,306.737 171.782,304.994 170.085 L 301.825 167.000 304.812 170.207 M216.344 173.900 C 215.193 175.289,214.706 176.000,214.904 176.000 C 215.014 176.000,215.586 175.370,216.173 174.600 C 217.263 173.171,217.395 172.632,216.344 173.900 M309.237 175.200 C 310.396 176.996,310.400 177.001,310.398 176.567 C 310.397 176.365,309.932 175.660,309.365 175.000 L 308.334 173.800 309.237 175.200 M238.400 200.353 C 237.630 200.489,239.501 200.600,242.558 200.600 C 245.851 200.600,247.481 200.487,246.558 200.323 C 244.696 199.992,240.351 200.008,238.400 200.353 M252.000 201.691 C 252.346 202.020,256.800 203.964,256.800 203.786 C 256.800 203.550,254.011 202.166,252.800 201.802 C 252.250 201.636,251.890 201.586,252.000 201.691 M257.400 204.257 C 259.437 206.064,260.187 206.591,259.402 205.663 C 258.966 205.148,258.247 204.541,257.804 204.314 C 257.362 204.087,257.180 204.062,257.400 204.257 M225.291 206.300 L 223.326 208.200 225.163 206.638 C 227.738 204.449,227.789 204.400,227.508 204.400 C 227.369 204.400,226.372 205.255,225.291 206.300 M321.693 206.800 C 321.693 207.570,321.775 207.885,321.876 207.500 C 321.976 207.115,321.976 206.485,321.876 206.100 C 321.775 205.715,321.693 206.030,321.693 206.800 M261.600 208.200 C 262.346 208.970,263.029 209.600,263.118 209.600 C 263.454 209.600,260.982 206.856,260.622 206.829 C 260.413 206.813,260.854 207.430,261.600 208.200 M221.329 210.173 C 220.708 210.927,219.877 212.142,219.483 212.873 C 218.793 214.149,218.793 214.162,219.483 213.210 C 219.877 212.666,220.784 211.451,221.497 210.510 C 223.047 208.467,222.928 208.228,221.329 210.173 M322.509 212.400 C 322.509 213.390,322.587 213.795,322.682 213.300 C 322.778 212.805,322.778 211.995,322.682 211.500 C 322.587 211.005,322.509 211.410,322.509 212.400 M323.334 221.200 C 323.334 222.850,323.405 223.525,323.491 222.700 C 323.578 221.875,323.578 220.525,323.491 219.700 C 323.405 218.875,323.334 219.550,323.334 221.200 M268.056 220.800 C 268.056 221.130,268.211 221.760,268.400 222.200 C 268.617 222.704,268.744 222.778,268.744 222.400 C 268.744 222.070,268.589 221.440,268.400 221.000 C 268.183 220.496,268.056 220.422,268.056 220.800 M268.880 224.600 C 268.880 225.040,269.024 225.850,269.200 226.400 C 269.454 227.192,269.520 227.233,269.520 226.600 C 269.520 226.160,269.376 225.350,269.200 224.800 C 268.946 224.008,268.880 223.967,268.880 224.600 M323.734 227.200 C 323.734 228.850,323.805 229.525,323.891 228.700 C 323.978 227.875,323.978 226.525,323.891 225.700 C 323.805 224.875,323.734 225.550,323.734 227.200 M214.249 225.415 C 214.112 225.773,214.015 226.366,214.034 226.733 C 214.053 227.100,214.227 226.869,214.421 226.220 C 214.798 224.958,214.665 224.333,214.249 225.415 M213.449 229.015 C 213.312 229.373,213.216 230.056,213.236 230.533 C 213.262 231.147,213.385 231.008,213.659 230.056 C 214.057 228.672,213.894 227.858,213.449 229.015 M269.902 267.639 C 269.958 288.627,270.053 308.680,270.113 312.200 C 270.172 315.720,270.251 299.250,270.288 275.600 C 270.324 251.950,270.229 231.897,270.077 231.039 C 269.925 230.180,269.846 246.650,269.902 267.639 M212.653 234.836 C 212.514 235.531,212.443 254.753,212.495 277.550 L 212.589 319.000 212.795 276.400 C 212.908 252.970,212.979 233.749,212.953 233.686 C 212.927 233.623,212.792 234.141,212.653 234.836 M324.192 278.600 C 324.192 300.160,324.241 308.921,324.300 298.070 C 324.359 287.218,324.359 269.578,324.300 258.870 C 324.241 248.161,324.192 257.040,324.192 278.600 M83.606 317.633 C 83.609 318.165,83.789 318.870,84.006 319.200 C 84.282 319.622,84.323 319.385,84.142 318.400 C 83.825 316.675,83.598 316.349,83.606 317.633 M160.638 319.600 C 161.208 321.736,163.464 323.992,165.600 324.562 C 166.160 324.711,165.897 324.465,165.000 324.001 C 162.989 322.962,162.238 322.211,161.199 320.200 C 160.735 319.303,160.489 319.040,160.638 319.600 M323.267 319.980 C 323.033 320.651,322.927 321.200,323.031 321.200 C 323.301 321.200,324.056 319.122,323.857 318.924 C 323.767 318.833,323.501 319.308,323.267 319.980 M84.414 320.222 C 84.430 320.624,86.395 323.155,86.398 322.778 C 86.399 322.655,85.950 321.945,85.400 321.200 C 84.850 320.455,84.406 320.015,84.414 320.222 M133.600 322.277 C 132.731 323.189,132.555 323.504,133.137 323.109 C 133.947 322.559,135.469 320.792,135.123 320.804 C 135.055 320.807,134.370 321.469,133.600 322.277 M209.800 322.910 C 209.012 323.702,208.876 323.972,209.404 323.696 C 210.336 323.208,211.899 321.575,211.362 321.651 C 211.163 321.680,210.460 322.246,209.800 322.910 M321.789 322.387 C 321.355 322.820,320.280 323.547,319.400 324.001 C 318.503 324.465,318.240 324.711,318.800 324.562 C 319.915 324.264,321.602 323.162,322.385 322.219 C 323.112 321.342,322.727 321.451,321.789 322.387 M130.600 324.214 C 129.595 324.698,129.563 324.753,130.400 324.551 C 130.950 324.419,131.571 324.150,131.780 323.955 C 132.298 323.471,132.014 323.533,130.600 324.214 " stroke="none" fill="#84bcdc" fill-rule="evenodd"></path><path id="path6" d="M134.200 84.400 C 135.059 85.280,135.852 86.000,135.962 86.000 C 136.072 86.000,135.459 85.280,134.600 84.400 C 133.741 83.520,132.948 82.800,132.838 82.800 C 132.728 82.800,133.341 83.520,134.200 84.400 M139.000 90.400 C 139.341 91.060,139.711 91.600,139.821 91.600 C 139.931 91.600,139.741 91.060,139.400 90.400 C 139.059 89.740,138.689 89.200,138.579 89.200 C 138.469 89.200,138.659 89.740,139.000 90.400 M80.015 126.600 C 80.017 126.820,80.386 127.450,80.836 128.000 C 81.379 128.664,81.515 128.731,81.240 128.200 C 80.566 126.895,80.012 126.172,80.015 126.600 M107.141 143.701 C 107.343 143.903,107.933 144.001,108.454 143.919 C 109.255 143.793,109.198 143.737,108.087 143.552 C 107.293 143.421,106.919 143.479,107.141 143.701 M112.000 143.600 C 111.176 143.864,111.141 143.926,111.800 143.954 C 112.240 143.973,112.870 143.813,113.200 143.600 C 113.901 143.147,113.414 143.147,112.000 143.600 M253.200 154.818 C 252.762 155.115,252.924 155.152,253.800 154.956 C 255.271 154.627,255.590 154.398,254.567 154.406 C 254.145 154.409,253.530 154.595,253.200 154.818 M82.996 241.400 C 82.996 282.540,83.043 299.311,83.100 278.668 C 83.157 258.026,83.157 224.366,83.100 203.868 C 83.043 183.371,82.996 200.260,82.996 241.400 M224.181 208.100 L 222.600 209.800 224.300 208.219 C 225.235 207.349,226.000 206.584,226.000 206.519 C 226.000 206.216,225.652 206.519,224.181 208.100 M260.425 207.831 C 261.181 208.728,261.881 209.397,261.980 209.317 C 262.079 209.238,261.460 208.504,260.605 207.687 L 259.050 206.200 260.425 207.831 M323.709 218.000 C 323.709 218.990,323.787 219.395,323.882 218.900 C 323.978 218.405,323.978 217.595,323.882 217.100 C 323.787 216.605,323.709 217.010,323.709 218.000 M324.593 274.000 C 324.593 298.750,324.641 308.875,324.700 296.500 C 324.759 284.125,324.759 263.875,324.700 251.500 C 324.641 239.125,324.593 249.250,324.593 274.000 " stroke="none" fill="#1484bc" fill-rule="evenodd"></path><path id="path7" d="M136.996 241.400 C 136.996 282.980,137.043 299.931,137.100 279.068 C 137.157 258.206,137.157 224.186,137.100 203.468 C 137.043 182.751,136.996 199.820,136.996 241.400 M269.393 276.400 C 269.393 299.390,269.441 308.795,269.500 297.300 C 269.559 285.805,269.559 266.995,269.500 255.500 C 269.441 244.005,269.393 253.410,269.393 276.400 " stroke="none" fill="#1c84bc" fill-rule="evenodd"></path><path id="path8" d="M219.775 169.300 L 218.600 170.600 219.900 169.425 C 220.615 168.779,221.200 168.194,221.200 168.125 C 221.200 167.816,220.870 168.088,219.775 169.300 M241.111 201.093 C 242.051 201.178,243.491 201.177,244.311 201.091 C 245.130 201.005,244.360 200.936,242.600 200.937 C 240.840 200.939,240.170 201.009,241.111 201.093 " stroke="none" fill="#248cbc" fill-rule="evenodd"></path></g></svg>