<svg id="svg" version="1.1" xmlns="http://www.w3.org/2000/svg" xmlns:xlink="http://www.w3.org/1999/xlink" width="400" height="400" viewBox="0, 0, 400,400"><g id="svgg"><path id="path0" d="M26.900 183.700 L 27.000 367.400 43.341 367.327 C 52.328 367.287,59.933 367.158,60.241 367.040 C 60.719 366.856,60.800 340.107,60.800 183.413 L 60.800 0.000 43.800 0.000 L 26.799 0.000 26.900 183.700 M350.098 36.700 L 350.200 73.400 361.700 73.600 L 373.201 73.800 373.200 36.900 L 373.200 0.000 361.598 -0.000 L 349.996 -0.000 350.098 36.700 " stroke="none" fill="#040404" fill-rule="evenodd"></path><path id="path1" d="M205.501 60.900 L 205.400 121.800 203.200 122.000 L 201.000 122.200 200.897 147.100 C 200.840 160.795,200.930 172.000,201.097 172.000 C 201.264 172.000,201.352 160.925,201.294 147.390 C 201.194 124.190,201.228 122.763,201.894 122.490 C 202.282 122.330,208.270 122.200,215.200 122.200 L 227.800 122.200 230.400 123.481 C 241.603 129.002,244.305 142.960,235.895 151.870 L 233.941 153.940 236.170 157.802 C 237.397 159.926,238.400 161.829,238.400 162.032 C 238.400 162.234,238.559 162.400,238.753 162.400 C 238.948 162.400,239.210 162.715,239.336 163.100 C 239.462 163.485,240.117 164.700,240.791 165.800 C 241.466 166.900,242.133 168.070,242.274 168.400 C 242.415 168.730,242.861 169.478,243.265 170.062 C 244.593 171.980,244.517 172.000,236.047 172.000 C 228.826 172.000,228.072 171.936,227.864 171.300 C 227.738 170.915,227.177 169.835,226.618 168.900 C 225.216 166.559,223.945 164.370,221.738 160.500 L 219.857 157.200 217.537 157.200 L 215.218 157.200 215.109 164.500 L 215.000 171.800 210.200 171.911 L 205.400 172.022 205.521 177.598 L 205.642 183.174 200.921 183.287 L 196.200 183.400 196.200 208.400 L 196.200 233.400 200.800 233.600 L 205.400 233.800 205.400 300.700 L 205.400 367.600 277.700 367.600 L 350.000 367.600 350.000 294.267 C 350.000 253.933,349.880 171.223,349.734 110.467 L 349.467 0.000 277.535 0.000 L 205.603 0.000 205.501 60.900 M164.400 122.063 C 161.411 122.878,160.152 123.288,158.900 123.852 C 156.804 124.796,157.409 124.865,159.700 123.944 C 164.338 122.078,169.714 121.581,174.396 122.585 C 175.824 122.891,177.060 123.073,177.143 122.990 C 177.226 122.907,176.778 122.723,176.147 122.581 C 175.516 122.439,174.370 122.161,173.600 121.963 C 171.812 121.505,166.225 121.566,164.400 122.063 M101.895 122.238 C 101.506 122.627,101.511 171.498,101.900 171.738 C 102.065 171.840,102.200 160.826,102.200 147.262 L 102.200 122.600 114.200 122.600 C 120.800 122.600,126.824 122.738,127.587 122.907 C 128.708 123.156,128.878 123.117,128.468 122.707 C 127.902 122.141,102.442 121.691,101.895 122.238 M287.510 128.300 L 287.621 134.400 280.614 134.400 L 273.608 134.400 273.504 153.100 L 273.400 171.800 266.300 171.909 L 259.200 172.018 259.200 153.218 L 259.200 134.418 252.100 134.309 L 245.000 134.200 244.885 129.000 C 244.821 126.140,244.870 123.393,244.993 122.896 L 245.217 121.993 266.309 122.096 L 287.400 122.200 287.510 128.300 M129.233 123.349 C 129.325 123.431,130.030 123.802,130.800 124.173 L 132.200 124.848 131.200 124.033 C 130.414 123.392,128.562 122.748,129.233 123.349 M178.400 123.724 C 179.728 124.413,180.800 124.812,180.800 124.617 C 180.800 124.376,178.337 123.200,177.839 123.202 C 177.597 123.204,177.850 123.438,178.400 123.724 M134.444 126.821 C 135.678 128.032,136.997 129.620,137.374 130.349 C 137.751 131.078,138.165 131.568,138.295 131.439 C 138.649 131.084,135.200 126.833,133.600 125.652 C 132.716 125.000,133.027 125.431,134.444 126.821 M154.707 126.126 C 153.666 126.826,152.811 127.535,152.807 127.699 C 152.802 127.930,154.978 126.544,157.167 124.923 C 157.258 124.856,157.168 124.811,156.967 124.826 C 156.765 124.840,155.748 125.425,154.707 126.126 M182.840 126.047 C 183.808 126.733,185.667 128.308,186.971 129.547 C 188.275 130.786,188.905 131.255,188.371 130.589 C 186.739 128.553,182.206 124.800,181.378 124.800 C 181.214 124.800,181.872 125.361,182.840 126.047 M150.145 130.202 C 149.077 131.439,148.051 132.755,147.865 133.126 C 147.679 133.497,148.038 133.173,148.663 132.406 C 149.289 131.640,150.392 130.402,151.116 129.656 C 151.840 128.909,152.354 128.221,152.259 128.126 C 152.164 128.031,151.213 128.965,150.145 130.202 M139.440 135.066 C 139.808 136.599,140.000 136.744,140.000 135.490 C 140.000 134.917,139.813 134.332,139.584 134.190 C 139.311 134.021,139.262 134.323,139.440 135.066 M146.621 135.024 C 146.252 135.588,146.011 136.232,146.085 136.456 C 146.160 136.681,146.529 136.220,146.904 135.432 C 147.703 133.756,147.574 133.570,146.621 135.024 M115.688 139.500 L 115.800 144.600 119.701 144.623 L 123.602 144.646 119.801 144.508 L 116.000 144.371 116.000 139.619 C 116.000 136.191,116.139 134.810,116.500 134.665 C 116.794 134.546,116.707 134.450,116.288 134.432 C 115.635 134.403,115.585 134.825,115.688 139.500 M123.050 134.676 C 125.676 135.191,126.844 141.224,124.749 143.454 C 124.260 143.974,124.006 144.400,124.183 144.400 C 124.871 144.400,125.951 142.677,126.204 141.174 C 126.790 137.707,125.193 134.315,123.042 134.454 L 122.200 134.509 123.050 134.676 M165.200 134.806 C 164.778 135.082,165.015 135.123,166.000 134.942 C 167.725 134.625,168.051 134.398,166.767 134.406 C 166.235 134.409,165.530 134.589,165.200 134.806 M170.433 134.543 C 170.876 134.922,173.217 135.151,172.996 134.794 C 172.862 134.577,172.193 134.400,171.510 134.400 C 170.826 134.400,170.342 134.464,170.433 134.543 M215.200 139.400 L 215.200 144.400 219.700 144.387 C 225.463 144.371,226.400 143.679,226.400 139.434 C 226.400 137.512,226.242 137.090,225.053 135.828 L 223.706 134.400 219.453 134.400 L 215.200 134.400 215.200 139.400 M162.053 136.648 C 161.123 137.444,160.441 138.175,160.538 138.272 C 160.636 138.369,161.139 138.033,161.658 137.524 C 162.176 137.016,163.050 136.294,163.600 135.921 C 164.150 135.548,164.407 135.233,164.172 135.221 C 163.937 135.209,162.983 135.851,162.053 136.648 M174.200 135.667 C 174.640 135.910,175.405 136.476,175.900 136.924 C 176.395 137.373,176.799 137.573,176.797 137.370 C 176.794 136.946,174.340 135.194,173.775 135.212 C 173.569 135.219,173.760 135.423,174.200 135.667 M192.313 137.819 C 192.684 138.820,193.052 139.443,193.132 139.204 C 193.274 138.778,192.119 136.000,191.800 136.000 C 191.711 136.000,191.942 136.819,192.313 137.819 M140.000 139.600 C 140.000 140.993,140.100 142.033,140.223 141.911 C 140.524 141.609,140.538 137.605,140.239 137.305 C 140.107 137.174,140.000 138.207,140.000 139.600 M159.400 140.000 C 159.038 140.701,158.826 141.359,158.929 141.462 C 159.032 141.565,159.406 141.069,159.760 140.360 C 160.114 139.651,160.326 138.993,160.231 138.898 C 160.136 138.803,159.762 139.299,159.400 140.000 M144.667 139.467 C 144.520 139.613,144.411 140.108,144.425 140.567 C 144.449 141.333,144.482 141.323,144.834 140.442 C 145.226 139.463,145.144 138.989,144.667 139.467 M193.463 141.280 C 193.800 143.049,194.000 143.201,194.000 141.690 C 194.000 141.007,193.823 140.338,193.606 140.204 C 193.360 140.052,193.306 140.455,193.463 141.280 M143.843 142.633 C 143.499 143.528,143.552 150.905,143.906 151.462 C 144.068 151.716,144.200 149.691,144.200 146.962 C 144.200 144.233,144.174 142.000,144.143 142.000 C 144.111 142.000,143.976 142.285,143.843 142.633 M158.250 143.250 C 157.917 144.917,158.240 145.240,158.600 143.600 C 158.752 142.909,158.793 142.259,158.691 142.158 C 158.589 142.056,158.391 142.547,158.250 143.250 M139.649 143.200 C 139.616 143.530,139.489 144.250,139.367 144.800 C 139.175 145.664,139.207 145.703,139.599 145.088 C 139.848 144.697,139.975 143.977,139.881 143.488 C 139.786 143.000,139.682 142.870,139.649 143.200 M179.799 147.245 C 179.798 149.672,179.915 151.240,180.059 150.729 C 180.406 149.494,180.415 144.380,180.072 143.516 C 179.922 143.140,179.799 144.818,179.799 147.245 M194.173 147.135 C 194.186 149.360,194.320 150.870,194.470 150.490 C 194.836 149.567,194.820 144.794,194.447 143.844 C 194.284 143.429,194.161 144.909,194.173 147.135 M135.222 151.726 L 133.044 154.200 134.953 152.400 C 136.531 150.912,137.975 149.122,137.514 149.226 C 137.451 149.240,136.420 150.365,135.222 151.726 M158.046 150.000 C 158.065 150.330,158.224 151.050,158.400 151.600 L 158.720 152.600 158.754 151.600 C 158.773 151.050,158.613 150.330,158.400 150.000 C 158.055 149.467,158.016 149.467,158.046 150.000 M179.000 152.800 C 178.850 153.273,178.817 153.750,178.927 153.860 C 179.037 153.970,179.250 153.673,179.400 153.200 C 179.550 152.727,179.583 152.250,179.473 152.140 C 179.363 152.030,179.150 152.327,179.000 152.800 M193.654 152.667 C 193.625 153.144,193.496 153.864,193.370 154.267 C 193.152 154.961,193.164 154.962,193.596 154.288 C 193.847 153.897,193.975 153.177,193.881 152.688 C 193.709 151.801,193.709 151.801,193.654 152.667 M144.428 153.476 C 144.413 153.958,144.580 154.464,144.800 154.600 C 145.273 154.892,145.273 154.501,144.800 153.400 C 144.469 152.629,144.455 152.631,144.428 153.476 M158.803 153.100 C 158.806 153.457,160.394 155.908,160.397 155.561 C 160.399 155.430,160.117 154.755,159.771 154.061 C 159.162 152.841,158.797 152.479,158.803 153.100 M131.500 154.629 C 130.895 154.957,130.400 155.310,130.400 155.413 C 130.400 155.799,131.032 155.557,132.000 154.800 C 133.189 153.870,133.011 153.809,131.500 154.629 M128.400 156.000 C 127.867 156.345,127.867 156.388,128.400 156.388 C 128.730 156.388,129.270 156.213,129.600 156.000 C 130.133 155.655,130.133 155.612,129.600 155.612 C 129.270 155.612,128.730 155.787,128.400 156.000 M161.230 157.038 C 161.764 157.609,162.740 158.333,163.400 158.647 L 164.600 159.218 163.620 158.509 C 163.081 158.119,162.234 157.395,161.738 156.900 C 160.483 155.647,160.043 155.767,161.230 157.038 M120.400 156.780 L 115.800 157.000 115.787 164.400 L 115.774 171.800 115.896 164.500 L 116.018 157.200 120.909 157.194 C 123.599 157.191,126.070 157.013,126.400 156.800 C 126.867 156.498,126.779 156.429,126.000 156.486 C 125.450 156.526,122.930 156.659,120.400 156.780 M175.830 157.624 C 175.407 158.051,174.822 158.400,174.530 158.400 C 174.239 158.400,174.000 158.590,174.000 158.823 C 174.000 159.279,176.195 158.119,176.880 157.300 C 177.548 156.501,176.677 156.770,175.830 157.624 M146.800 159.361 C 146.800 159.782,149.126 163.107,149.645 163.428 C 149.884 163.576,149.415 162.730,148.604 161.548 C 146.928 159.108,146.800 158.954,146.800 159.361 M165.200 159.600 C 165.530 159.813,166.070 159.988,166.400 159.988 C 166.933 159.988,166.933 159.945,166.400 159.600 C 166.070 159.387,165.530 159.212,165.200 159.212 C 164.667 159.212,164.667 159.255,165.200 159.600 M171.800 159.600 C 171.508 160.073,171.899 160.073,173.000 159.600 C 173.771 159.269,173.769 159.255,172.924 159.228 C 172.442 159.213,171.936 159.380,171.800 159.600 M168.305 160.283 C 168.802 160.379,169.522 160.375,169.905 160.275 C 170.287 160.175,169.880 160.096,169.000 160.101 C 168.120 160.105,167.807 160.187,168.305 160.283 M186.800 164.760 C 184.447 167.171,183.066 168.196,180.400 169.513 C 178.530 170.436,177.244 171.194,177.542 171.196 C 179.608 171.211,187.027 165.852,189.237 162.748 C 190.397 161.119,190.167 161.309,186.800 164.760 M151.800 165.873 C 153.935 167.838,156.759 169.775,157.056 169.477 C 157.155 169.378,156.453 168.838,155.496 168.277 C 154.539 167.716,153.001 166.525,152.077 165.629 C 151.154 164.733,150.264 164.007,150.100 164.016 C 149.935 164.025,150.700 164.860,151.800 165.873 M161.600 171.600 C 161.930 171.813,162.560 171.978,163.000 171.966 L 163.800 171.944 163.000 171.600 C 161.804 171.086,160.805 171.086,161.600 171.600 M175.000 171.600 L 174.200 171.944 175.000 171.966 C 175.440 171.978,176.070 171.813,176.400 171.600 C 177.195 171.086,176.196 171.086,175.000 171.600 M165.321 172.483 C 165.913 172.859,171.434 172.824,172.800 172.436 C 173.350 172.279,171.785 172.158,169.321 172.165 C 166.858 172.173,165.058 172.316,165.321 172.483 M160.600 183.138 C 159.571 183.317,160.783 183.425,164.000 183.441 C 173.947 183.491,182.096 188.199,186.173 196.251 C 186.785 197.460,187.380 198.353,187.496 198.237 C 187.807 197.926,184.632 192.822,183.113 191.192 C 177.337 184.993,168.372 181.786,160.600 183.138 M288.200 183.387 C 295.978 184.647,303.709 190.433,306.657 197.200 C 306.897 197.750,307.285 198.650,307.520 199.200 C 313.129 212.333,305.537 228.173,291.511 232.604 C 280.985 235.929,267.159 231.030,262.716 222.400 C 262.433 221.850,262.101 221.310,261.978 221.200 C 261.632 220.889,260.000 217.259,260.000 216.799 C 260.000 216.574,259.841 216.077,259.647 215.695 C 258.490 213.416,257.977 206.450,258.773 203.828 C 258.978 203.153,259.377 201.790,259.659 200.800 C 262.482 190.905,272.620 183.301,283.600 182.845 C 284.150 182.822,286.220 183.066,288.200 183.387 M102.100 183.463 C 101.323 183.780,101.375 232.515,102.153 233.161 C 102.532 233.476,104.765 233.586,109.253 233.510 L 115.800 233.400 115.908 224.300 L 116.015 215.200 123.928 215.200 C 133.515 215.200,132.800 215.684,132.800 209.200 C 132.800 202.717,133.514 203.200,123.934 203.200 L 116.029 203.200 115.892 199.399 L 115.754 195.598 115.777 199.499 L 115.800 203.400 123.570 203.509 C 133.037 203.642,132.402 203.235,132.394 209.149 C 132.386 215.278,133.158 214.764,123.782 214.891 L 115.800 215.000 115.600 224.000 L 115.400 233.000 108.910 233.110 C 102.449 233.219,102.419 233.216,102.200 232.310 C 102.078 231.809,102.029 220.690,102.089 207.600 L 102.200 183.800 119.100 183.696 L 136.000 183.591 136.000 189.389 L 136.000 195.186 126.200 195.304 L 116.400 195.421 126.300 195.411 L 136.200 195.400 136.200 189.400 L 136.200 183.400 119.400 183.329 C 110.160 183.290,102.375 183.350,102.100 183.463 M209.767 183.443 C 210.332 183.659,210.400 185.690,210.400 202.243 L 210.400 220.800 220.967 220.800 C 226.779 220.800,231.819 220.909,232.167 221.043 C 233.095 221.399,233.111 232.444,232.185 233.213 C 231.532 233.754,197.709 233.562,196.818 233.011 C 196.535 232.836,196.400 224.854,196.400 208.189 L 196.400 183.625 201.100 183.499 C 203.685 183.429,206.550 183.333,207.467 183.286 C 208.384 183.239,209.419 183.309,209.767 183.443 M251.920 183.680 C 252.632 184.392,252.610 231.959,251.898 232.934 C 251.452 233.543,250.650 233.608,244.798 233.510 L 238.200 233.400 238.096 208.800 C 238.039 195.270,238.079 183.975,238.184 183.700 C 238.450 183.004,251.225 182.985,251.920 183.680 M157.000 184.000 C 156.496 184.217,156.422 184.344,156.800 184.344 C 157.130 184.344,157.760 184.189,158.200 184.000 C 158.704 183.783,158.778 183.656,158.400 183.656 C 158.070 183.656,157.440 183.811,157.000 184.000 M153.701 185.189 C 151.629 186.129,149.073 187.869,147.200 189.614 L 145.800 190.918 147.200 189.851 C 149.587 188.032,151.711 186.682,154.000 185.531 C 156.500 184.274,156.278 184.019,153.701 185.189 M142.326 195.500 C 139.464 199.881,137.746 209.426,139.176 213.000 C 139.353 213.440,139.404 212.119,139.291 210.065 C 139.017 205.093,139.732 201.498,141.826 197.327 C 143.678 193.636,143.775 193.283,142.326 195.500 M163.505 195.483 C 164.002 195.579,164.722 195.575,165.105 195.475 C 165.487 195.375,165.080 195.296,164.200 195.301 C 163.320 195.305,163.007 195.387,163.505 195.483 M160.600 195.877 C 158.497 196.317,154.000 200.852,154.000 202.533 C 154.000 202.776,154.638 201.956,155.417 200.710 C 156.863 198.397,158.682 196.959,161.192 196.142 C 162.562 195.696,162.211 195.539,160.600 195.877 M167.000 196.034 C 170.469 197.261,172.447 198.897,173.658 201.539 C 174.097 202.495,174.546 203.188,174.656 203.078 C 175.928 201.805,170.351 196.401,167.200 195.853 C 165.804 195.610,165.804 195.611,167.000 196.034 M279.832 196.406 C 268.278 200.917,271.515 220.939,283.800 220.946 C 290.120 220.949,293.468 217.791,294.767 210.600 C 296.517 200.913,288.297 193.100,279.832 196.406 M188.434 201.600 C 188.446 201.930,188.611 202.560,188.800 203.000 L 189.144 203.800 189.166 203.000 C 189.178 202.560,189.013 201.930,188.800 201.600 C 188.455 201.067,188.415 201.067,188.434 201.600 M153.400 204.400 C 153.248 205.091,153.214 205.747,153.324 205.857 C 153.434 205.967,153.648 205.491,153.800 204.800 C 153.952 204.109,153.986 203.453,153.876 203.343 C 153.766 203.233,153.552 203.709,153.400 204.400 M174.973 208.200 C 174.973 210.840,175.093 212.460,175.239 211.800 C 175.386 211.140,175.505 209.520,175.505 208.200 C 175.505 206.880,175.386 205.260,175.239 204.600 C 175.093 203.940,174.973 205.560,174.973 208.200 M189.336 208.600 C 189.336 210.929,189.458 212.182,189.628 211.600 C 189.789 211.050,189.920 209.700,189.920 208.600 C 189.920 207.500,189.789 206.150,189.628 205.600 C 189.458 205.018,189.336 206.271,189.336 208.600 M153.256 211.400 C 153.256 211.840,153.411 212.560,153.600 213.000 L 153.944 213.800 153.944 213.000 C 153.944 212.560,153.789 211.840,153.600 211.400 L 153.256 210.600 153.256 211.400 M173.820 214.907 C 170.443 222.760,158.675 223.087,155.041 215.429 C 154.651 214.607,154.235 214.032,154.117 214.149 C 153.752 214.515,155.917 217.859,157.240 218.973 C 161.359 222.438,167.993 222.178,171.942 218.398 C 173.172 217.220,175.083 213.749,174.707 213.374 C 174.619 213.286,174.220 213.976,173.820 214.907 M188.629 214.629 C 188.481 215.215,188.451 215.784,188.561 215.894 C 188.671 216.004,188.881 215.615,189.029 215.029 C 189.176 214.442,189.206 213.873,189.096 213.763 C 188.986 213.653,188.776 214.042,188.629 214.629 M139.600 214.910 C 139.600 215.483,139.787 216.068,140.016 216.210 C 140.289 216.379,140.338 216.077,140.160 215.334 C 139.792 213.801,139.600 213.656,139.600 214.910 M140.402 217.025 C 140.396 218.347,143.530 223.470,145.983 226.147 C 149.070 229.518,155.477 233.004,159.245 233.363 L 161.400 233.569 158.963 233.052 C 151.827 231.537,145.170 226.246,141.787 219.400 C 141.026 217.860,140.403 216.791,140.402 217.025 M186.678 219.805 C 186.312 220.572,186.095 221.200,186.196 221.200 C 186.470 221.200,187.684 218.751,187.501 218.568 C 187.414 218.481,187.044 219.038,186.678 219.805 M184.608 223.189 C 183.136 225.312,180.139 228.076,177.639 229.614 C 175.352 231.021,174.914 231.575,176.900 230.549 C 179.638 229.133,184.246 224.739,185.760 222.100 C 186.403 220.981,185.636 221.705,184.608 223.189 M173.247 231.855 C 172.503 232.180,170.793 232.702,169.447 233.015 L 167.000 233.584 169.120 233.376 C 170.876 233.203,176.274 231.266,175.000 231.265 C 174.780 231.265,173.991 231.531,173.247 231.855 M162.691 233.889 C 163.401 233.977,164.661 233.979,165.491 233.892 C 166.321 233.805,165.740 233.733,164.200 233.731 C 162.660 233.729,161.981 233.800,162.691 233.889 " stroke="none" fill="#ababb3" fill-rule="evenodd"></path><path id="path2" d="M61.700 183.100 L 61.800 366.200 78.000 366.302 C 91.853 366.388,94.264 366.490,94.645 367.003 C 95.038 367.532,101.609 367.591,150.245 367.501 L 205.400 367.400 205.400 300.600 L 205.400 233.800 200.800 233.600 L 196.200 233.400 196.200 208.400 L 196.200 183.400 200.911 183.287 L 205.622 183.174 205.511 177.687 L 205.400 172.200 203.097 172.080 L 200.794 171.960 200.897 147.080 L 201.000 122.200 203.200 122.000 L 205.400 121.800 205.501 60.900 L 205.603 0.000 133.601 0.000 L 61.599 0.000 61.700 183.100 M349.796 73.600 C 349.796 114.190,349.843 130.795,349.900 110.500 C 349.957 90.205,349.957 56.995,349.900 36.700 C 349.843 16.405,349.796 33.010,349.796 73.600 M174.400 122.171 C 180.246 123.613,185.339 126.707,188.484 130.729 C 189.116 131.538,189.851 132.472,190.117 132.804 C 190.995 133.900,193.200 138.499,193.200 139.233 C 193.200 139.629,193.361 140.052,193.558 140.174 C 193.922 140.399,194.203 141.937,194.653 146.151 C 195.103 150.374,192.827 158.031,190.000 161.800 C 178.192 177.544,155.494 175.908,146.430 158.659 C 145.754 157.372,145.200 155.988,145.200 155.583 C 145.200 155.178,145.040 154.748,144.844 154.627 C 144.236 154.251,143.899 151.579,143.881 147.000 C 143.861 141.955,144.136 140.474,145.647 137.505 C 145.841 137.123,146.000 136.632,146.000 136.413 C 146.000 133.925,152.716 127.058,157.668 124.482 C 159.636 123.458,160.489 123.152,164.400 122.069 C 166.471 121.496,171.885 121.551,174.400 122.171 M128.461 122.700 C 128.735 122.975,129.204 123.200,129.502 123.200 C 129.800 123.200,131.116 123.928,132.427 124.819 C 135.675 127.024,137.851 129.814,139.432 133.800 C 141.786 139.737,139.742 147.960,134.767 152.566 C 130.941 156.109,128.727 156.840,121.100 157.083 L 116.000 157.244 116.000 164.631 L 116.000 172.018 108.900 171.909 L 101.800 171.800 101.696 147.400 C 101.639 133.980,101.684 122.762,101.795 122.471 C 102.080 121.724,127.706 121.945,128.461 122.700 M116.500 134.641 C 116.141 134.803,116.000 136.207,116.000 139.633 L 116.000 144.400 119.930 144.400 C 125.074 144.400,125.633 143.929,125.647 139.591 C 125.660 135.431,124.895 134.705,120.320 134.537 C 118.494 134.471,116.775 134.517,116.500 134.641 M166.258 134.821 C 157.020 137.121,155.108 152.804,163.403 158.238 C 165.820 159.823,171.130 160.684,171.800 159.600 C 171.936 159.380,172.487 159.200,173.024 159.200 C 173.561 159.200,174.000 159.020,174.000 158.800 C 174.000 158.580,174.252 158.400,174.560 158.400 C 175.288 158.400,178.000 155.688,178.000 154.960 C 178.000 154.652,178.141 154.400,178.313 154.400 C 179.523 154.400,180.379 144.166,179.354 141.960 C 179.108 141.432,178.663 140.487,178.365 139.861 C 176.540 136.025,170.881 133.670,166.258 134.821 M171.907 183.998 C 183.682 187.878,191.843 200.849,189.568 212.069 C 184.099 239.043,149.864 241.897,140.014 216.200 C 132.966 197.817,152.868 177.723,171.907 183.998 M136.200 189.400 L 136.200 195.400 126.100 195.507 L 116.000 195.614 116.000 199.407 L 116.000 203.200 123.920 203.200 C 133.516 203.200,132.800 202.716,132.800 209.200 C 132.800 215.684,133.515 215.200,123.928 215.200 L 116.015 215.200 115.908 224.300 L 115.800 233.400 109.253 233.510 C 104.765 233.586,102.532 233.476,102.153 233.161 C 101.375 232.515,101.323 183.780,102.100 183.463 C 102.375 183.350,110.160 183.290,119.400 183.329 L 136.200 183.400 136.200 189.400 M161.192 196.142 C 151.437 199.316,150.499 216.288,159.863 220.200 C 167.822 223.526,174.873 218.004,174.946 208.386 C 175.015 199.351,168.676 193.707,161.192 196.142 " stroke="none" fill="#848484" fill-rule="evenodd"></path><path id="path3" d="M350.134 128.494 C 350.280 158.692,350.400 191.725,350.400 201.900 L 350.400 220.400 361.200 220.400 C 368.829 220.400,372.000 220.270,372.000 219.957 C 372.000 219.714,372.270 219.618,372.601 219.745 C 373.135 219.950,373.191 211.776,373.101 146.888 L 373.000 73.800 361.434 73.694 L 349.868 73.588 350.134 128.494 M60.400 383.596 L 60.400 400.000 61.440 400.000 C 62.638 400.000,65.200 398.879,65.200 398.354 C 65.200 398.159,65.436 398.000,65.725 398.000 C 66.013 398.000,66.636 397.640,67.108 397.200 C 67.580 396.760,68.154 396.400,68.383 396.400 C 68.612 396.400,68.800 396.220,68.800 396.000 C 68.800 395.780,69.070 395.600,69.400 395.600 C 69.730 395.600,70.000 395.420,70.000 395.200 C 70.000 394.980,70.236 394.800,70.525 394.800 C 70.813 394.800,71.436 394.440,71.908 394.000 C 72.380 393.560,72.954 393.200,73.183 393.200 C 73.412 393.200,73.600 393.020,73.600 392.800 C 73.600 392.580,73.870 392.400,74.200 392.400 C 74.530 392.400,74.800 392.240,74.800 392.043 C 74.800 391.847,75.250 391.574,75.800 391.436 C 76.350 391.298,76.800 391.008,76.800 390.792 C 76.800 390.577,77.064 390.400,77.386 390.400 C 78.199 390.400,80.800 391.676,80.800 392.074 C 80.800 392.253,81.036 392.400,81.325 392.400 C 81.613 392.400,82.198 392.715,82.625 393.100 C 83.051 393.485,83.895 394.055,84.500 394.368 C 85.105 394.680,85.600 395.085,85.600 395.268 C 85.600 395.450,85.836 395.600,86.125 395.600 C 86.413 395.600,86.998 395.915,87.425 396.300 C 87.851 396.685,88.695 397.255,89.300 397.568 C 89.905 397.880,90.400 398.285,90.400 398.468 C 90.400 398.650,90.648 398.800,90.951 398.800 C 91.254 398.800,91.726 399.070,92.000 399.400 C 92.274 399.730,93.018 400.000,93.653 400.000 L 94.809 400.000 94.704 383.700 L 94.600 367.400 77.500 367.296 L 60.400 367.191 60.400 383.596 " stroke="none" fill="#b2051e" fill-rule="evenodd"></path><path id="path4" d="M372.000 219.960 C 372.000 220.250,368.491 220.421,361.100 220.494 L 350.200 220.600 350.099 294.106 L 349.998 367.612 361.499 367.506 L 373.000 367.400 373.000 293.633 C 373.000 234.976,372.898 219.833,372.500 219.700 C 372.225 219.608,372.000 219.725,372.000 219.960 " stroke="none" fill="#fc9734" fill-rule="evenodd"></path><path id="path5" d="M165.800 122.651 C 162.791 122.936,157.405 125.003,155.000 126.797 C 150.990 129.787,145.600 137.113,145.600 139.574 C 145.600 139.940,145.378 140.462,145.107 140.733 C 144.283 141.557,144.464 151.723,145.346 154.200 C 151.001 170.086,167.883 176.608,181.920 168.328 C 184.426 166.850,189.074 162.390,189.999 160.575 C 190.329 159.929,190.689 159.310,190.800 159.200 C 191.210 158.792,192.360 156.031,193.145 153.572 C 193.710 151.797,193.756 141.744,193.200 141.400 C 192.980 141.264,192.800 140.801,192.800 140.371 C 192.800 139.941,192.636 139.277,192.435 138.895 C 192.234 138.513,191.583 137.149,190.988 135.865 C 188.560 130.622,180.463 123.600,176.846 123.600 C 176.468 123.600,175.989 123.438,175.780 123.240 C 175.353 122.836,168.262 122.417,165.800 122.651 M102.400 147.200 L 102.400 171.600 109.000 171.600 L 115.600 171.600 115.600 164.062 L 115.600 156.524 121.500 156.274 C 127.895 156.003,129.130 155.707,132.264 153.695 C 139.870 148.812,141.943 137.729,136.688 130.046 C 135.271 127.976,132.416 125.200,131.702 125.200 C 131.426 125.200,131.199 125.065,131.197 124.900 C 131.193 124.499,129.219 123.600,128.344 123.600 C 127.961 123.600,127.536 123.420,127.400 123.200 C 127.244 122.947,122.596 122.800,114.776 122.800 L 102.400 122.800 102.400 147.200 M201.600 147.200 L 201.600 171.600 208.000 171.600 L 214.400 171.600 214.400 164.633 C 214.400 156.070,214.290 156.398,217.143 156.406 C 219.787 156.413,220.052 156.547,221.097 158.400 C 221.531 159.170,222.358 160.610,222.935 161.600 C 223.511 162.590,225.022 165.242,226.291 167.493 L 228.600 171.587 236.149 171.593 C 242.139 171.599,243.614 171.497,243.292 171.100 C 243.068 170.825,242.481 169.880,241.986 169.000 C 240.052 165.559,239.178 164.024,236.440 159.263 C 233.063 153.392,233.129 153.976,235.556 151.409 C 243.636 142.865,241.024 129.166,230.343 124.068 L 227.686 122.800 214.643 122.800 L 201.600 122.800 201.600 147.200 M245.600 128.391 L 245.600 133.981 252.500 134.091 L 259.400 134.200 259.504 152.900 L 259.608 171.600 266.200 171.600 L 272.792 171.600 272.896 152.900 L 273.000 134.200 279.783 134.090 C 287.825 133.959,287.186 134.493,287.194 127.900 L 287.200 122.800 266.400 122.800 L 245.600 122.800 245.600 128.391 M124.540 134.524 C 127.528 136.481,127.436 143.149,124.400 144.683 C 123.801 144.986,121.835 145.191,119.500 145.194 L 115.600 145.200 115.600 139.667 C 115.600 136.623,115.735 133.995,115.900 133.827 C 116.485 133.229,123.418 133.788,124.540 134.524 M173.955 134.827 C 181.558 138.191,183.283 151.396,176.907 157.422 C 167.297 166.504,154.214 155.543,158.244 141.785 C 160.154 135.267,167.547 131.993,173.955 134.827 M225.453 135.428 C 227.353 137.444,227.450 141.451,225.651 143.607 L 224.501 144.984 219.979 145.139 C 214.299 145.333,214.400 145.434,214.400 139.556 C 214.400 133.608,214.040 134.000,219.496 134.000 L 224.106 134.000 225.453 135.428 M159.400 184.163 C 152.571 185.741,143.254 192.264,143.207 195.500 C 143.203 195.775,143.064 196.000,142.898 196.000 C 142.731 196.000,142.356 196.585,142.064 197.300 C 141.772 198.015,141.384 198.960,141.203 199.400 C 139.754 202.909,139.188 207.637,139.747 211.550 C 139.998 213.302,140.337 214.870,140.501 215.034 C 140.666 215.199,140.800 215.638,140.800 216.011 C 140.800 219.024,147.327 227.247,151.705 229.750 C 164.854 237.268,181.902 231.489,187.154 217.734 C 188.614 213.911,188.800 212.881,188.800 208.615 C 188.800 202.708,187.602 198.776,184.286 193.800 C 183.172 192.128,178.389 187.600,177.737 187.600 C 177.442 187.600,177.200 187.464,177.200 187.298 C 177.200 186.916,173.811 185.351,171.305 184.575 C 168.515 183.711,162.289 183.495,159.400 184.163 M201.297 183.890 L 196.794 184.026 196.897 208.313 L 197.000 232.600 214.500 232.704 L 232.000 232.808 232.000 227.204 L 232.000 221.600 221.249 221.600 C 212.750 221.600,210.405 221.488,210.053 221.064 C 209.744 220.692,209.576 214.912,209.504 202.164 L 209.400 183.800 207.600 183.777 C 206.610 183.764,203.774 183.815,201.297 183.890 M238.676 183.857 C 238.524 184.009,238.400 195.083,238.400 208.467 L 238.400 232.800 245.003 232.800 L 251.606 232.800 251.503 208.300 L 251.400 183.800 245.176 183.690 C 241.753 183.630,238.828 183.705,238.676 183.857 M278.400 184.083 C 275.846 184.815,272.615 186.127,271.538 186.868 C 270.954 187.271,270.371 187.600,270.243 187.600 C 269.523 187.600,265.233 191.608,263.938 193.490 C 257.177 203.317,257.273 214.118,264.205 223.600 C 270.965 232.846,284.824 235.948,295.145 230.525 C 315.784 219.681,312.113 189.973,289.400 184.024 C 287.414 183.503,280.288 183.542,278.400 184.083 M102.497 208.300 L 102.600 232.600 109.000 232.600 L 115.400 232.600 115.507 223.508 L 115.615 214.417 123.707 214.308 L 131.800 214.200 131.800 209.200 L 131.800 204.200 123.700 204.092 L 115.600 203.983 115.600 199.592 L 115.600 195.200 125.600 195.200 L 135.600 195.200 135.600 189.600 L 135.600 184.000 118.997 184.000 L 102.394 184.000 102.497 208.300 M169.062 196.071 C 172.198 197.545,174.150 200.062,175.544 204.428 C 176.106 206.190,176.146 211.462,175.600 211.800 C 175.380 211.936,175.200 212.481,175.200 213.011 C 175.200 214.828,172.635 218.742,170.635 219.978 C 161.929 225.359,152.723 219.250,152.746 208.108 C 152.766 198.388,161.026 192.294,169.062 196.071 M287.706 195.700 C 294.481 197.700,297.577 207.901,293.758 215.636 C 290.149 222.944,279.336 223.718,274.889 216.985 C 267.704 206.110,276.046 192.258,287.706 195.700 " stroke="none" fill="#fbfbfb" fill-rule="evenodd"></path><path id="path6" d="M60.700 183.500 L 60.600 367.000 55.400 367.218 L 50.200 367.437 55.125 367.518 C 59.170 367.585,60.206 367.482,60.925 366.940 L 61.800 366.280 61.699 183.140 C 61.632 61.778,61.464 -0.000,61.200 -0.000 C 60.935 -0.000,60.767 61.898,60.700 183.500 " stroke="none" fill="#646464" fill-rule="evenodd"></path><path id="path7" d="M165.400 122.356 C 164.740 122.499,166.540 122.621,169.400 122.626 C 172.260 122.631,174.060 122.513,173.400 122.365 C 171.870 122.020,166.967 122.015,165.400 122.356 M203.600 122.349 L 201.400 122.600 201.400 147.200 L 201.400 171.800 208.200 171.800 L 215.000 171.800 215.109 164.500 L 215.218 157.200 217.537 157.200 L 219.857 157.200 221.738 160.500 C 223.945 164.370,225.216 166.559,226.618 168.900 C 227.177 169.835,227.738 170.915,227.864 171.300 C 228.072 171.936,228.826 172.000,236.047 172.000 C 244.517 172.000,244.593 171.980,243.265 170.062 C 242.861 169.478,242.415 168.730,242.274 168.400 C 242.133 168.070,241.466 166.900,240.791 165.800 C 240.117 164.700,239.462 163.485,239.336 163.100 C 239.210 162.715,238.948 162.400,238.753 162.400 C 238.559 162.400,238.400 162.234,238.400 162.032 C 238.400 161.829,237.397 159.926,236.170 157.802 L 233.941 153.940 235.895 151.870 C 244.305 142.960,241.603 129.002,230.400 123.481 L 227.800 122.200 216.800 122.149 C 210.750 122.121,204.810 122.211,203.600 122.349 M244.993 122.896 C 244.870 123.393,244.821 126.140,244.885 129.000 L 245.000 134.200 252.100 134.309 L 259.200 134.418 259.200 153.218 L 259.200 172.018 266.300 171.909 L 273.400 171.800 273.504 153.100 L 273.608 134.400 280.614 134.400 L 287.621 134.400 287.510 128.300 L 287.400 122.200 266.309 122.096 L 245.217 121.993 244.993 122.896 M102.184 122.900 C 102.079 123.175,102.039 134.290,102.096 147.600 L 102.200 171.800 108.900 171.815 L 115.601 171.830 109.000 171.705 L 102.400 171.581 102.400 147.196 L 102.400 122.812 114.300 122.700 L 126.200 122.588 114.287 122.494 C 105.056 122.421,102.332 122.513,102.184 122.900 M127.400 123.200 C 127.536 123.420,128.042 123.587,128.524 123.572 C 129.369 123.545,129.371 123.531,128.600 123.200 C 127.499 122.727,127.108 122.727,127.400 123.200 M161.600 123.200 C 161.067 123.545,161.067 123.588,161.600 123.588 C 161.930 123.588,162.470 123.413,162.800 123.200 C 163.333 122.855,163.333 122.812,162.800 122.812 C 162.470 122.812,161.930 122.987,161.600 123.200 M175.800 123.200 C 175.936 123.420,176.442 123.587,176.924 123.572 C 177.769 123.545,177.771 123.531,177.000 123.200 C 175.899 122.727,175.508 122.727,175.800 123.200 M230.343 124.068 C 241.024 129.166,243.636 142.865,235.556 151.409 C 233.129 153.976,233.063 153.392,236.440 159.263 C 239.178 164.024,240.052 165.559,241.986 169.000 C 242.481 169.880,243.068 170.825,243.292 171.100 C 243.614 171.497,242.139 171.599,236.149 171.593 L 228.600 171.587 226.291 167.493 C 225.022 165.242,223.511 162.590,222.935 161.600 C 222.358 160.610,221.531 159.170,221.097 158.400 C 220.052 156.547,219.787 156.413,217.143 156.406 C 214.290 156.398,214.400 156.070,214.400 164.633 L 214.400 171.600 208.000 171.600 L 201.600 171.600 201.600 147.200 L 201.600 122.800 214.643 122.800 L 227.686 122.800 230.343 124.068 M287.194 127.900 C 287.186 134.493,287.825 133.959,279.783 134.090 L 273.000 134.200 272.896 152.900 L 272.792 171.600 266.200 171.600 L 259.608 171.600 259.504 152.900 L 259.400 134.200 252.500 134.091 L 245.600 133.981 245.600 128.391 L 245.600 122.800 266.400 122.800 L 287.200 122.800 287.194 127.900 M131.200 124.776 C 131.200 125.009,131.426 125.200,131.702 125.200 C 133.237 125.200,137.537 130.633,138.618 133.940 C 138.994 135.090,139.395 135.938,139.509 135.824 C 139.862 135.471,138.347 131.901,136.925 129.736 C 135.300 127.260,131.200 123.709,131.200 124.776 M157.065 125.047 C 156.440 125.386,156.006 125.739,156.100 125.833 C 156.287 126.020,158.800 124.846,158.800 124.571 C 158.800 124.262,158.218 124.422,157.065 125.047 M182.455 126.330 C 185.863 128.556,189.130 132.067,190.636 135.125 C 191.212 136.294,191.772 137.161,191.881 137.052 C 193.198 135.735,182.467 124.400,179.903 124.400 C 179.680 124.400,180.828 125.269,182.455 126.330 M153.988 127.094 C 150.605 129.657,144.863 137.396,145.713 138.246 C 145.816 138.349,146.470 137.252,147.166 135.809 C 148.398 133.254,153.131 127.856,154.997 126.878 C 155.435 126.648,155.699 126.366,155.584 126.251 C 155.470 126.136,154.751 126.515,153.988 127.094 M115.828 133.955 C 115.633 134.271,116.760 134.400,119.718 134.400 C 123.625 134.400,123.951 134.463,124.981 135.417 C 125.584 135.976,126.004 136.212,125.914 135.941 C 125.319 134.158,116.746 132.469,115.828 133.955 M166.200 134.051 C 163.004 134.791,158.380 139.209,158.409 141.495 C 158.414 141.883,158.750 141.468,159.156 140.574 C 161.088 136.321,164.289 134.355,169.363 134.305 C 171.590 134.283,172.226 134.183,171.400 133.984 C 169.761 133.589,168.103 133.610,166.200 134.051 M214.643 134.633 C 214.509 134.981,214.400 137.196,214.400 139.556 C 214.400 145.434,214.299 145.333,219.979 145.139 L 224.501 144.984 225.651 143.607 C 227.450 141.451,227.353 137.444,225.453 135.428 L 224.106 134.000 219.496 134.000 C 215.661 134.000,214.845 134.106,214.643 134.633 M172.800 134.595 C 172.800 134.702,173.385 135.035,174.100 135.336 C 180.169 137.886,182.444 148.858,178.225 155.234 C 177.131 156.887,176.879 157.601,177.700 156.721 C 181.897 152.223,181.744 142.008,177.410 137.409 C 175.670 135.562,172.800 133.810,172.800 134.595 M225.053 135.828 C 226.242 137.090,226.400 137.512,226.400 139.434 C 226.400 143.679,225.463 144.371,219.700 144.387 L 215.200 144.400 215.200 139.400 L 215.200 134.400 219.453 134.400 L 223.706 134.400 225.053 135.828 M139.740 139.600 C 139.740 141.470,139.809 142.235,139.893 141.300 C 139.977 140.365,139.977 138.835,139.893 137.900 C 139.809 136.965,139.740 137.730,139.740 139.600 M126.200 139.600 C 126.200 141.098,126.332 142.116,126.494 141.862 C 126.656 141.608,126.788 140.590,126.788 139.600 C 126.788 138.610,126.656 137.592,126.494 137.338 C 126.332 137.084,126.200 138.102,126.200 139.600 M145.246 139.067 C 145.221 139.324,145.084 139.864,144.941 140.267 C 144.740 140.836,144.794 140.897,145.179 140.542 C 145.452 140.291,145.589 139.751,145.484 139.342 C 145.379 138.934,145.272 138.810,145.246 139.067 M192.828 140.276 C 192.813 140.758,192.980 141.264,193.200 141.400 C 193.673 141.692,193.673 141.301,193.200 140.200 C 192.869 139.429,192.855 139.431,192.828 140.276 M144.254 143.056 C 143.932 145.409,143.964 149.340,144.323 151.358 C 144.484 152.264,144.600 150.462,144.600 147.058 C 144.600 140.471,144.603 140.510,144.254 143.056 M157.843 143.033 C 157.499 143.927,157.552 150.905,157.906 151.462 C 158.068 151.716,158.200 149.781,158.200 147.162 C 158.200 144.543,158.174 142.400,158.143 142.400 C 158.111 142.400,157.976 142.685,157.843 143.033 M125.079 143.727 C 124.429 144.528,124.011 144.600,119.986 144.600 C 117.574 144.600,115.601 144.751,115.601 144.935 C 115.599 145.777,124.349 145.031,125.268 144.111 C 125.756 143.622,126.073 143.139,125.971 143.038 C 125.870 142.936,125.468 143.246,125.079 143.727 M193.699 147.400 C 193.697 151.810,193.727 152.008,194.075 149.841 C 194.313 148.363,194.314 146.569,194.078 145.041 C 193.728 142.770,193.702 142.935,193.699 147.400 M139.002 144.391 C 137.361 151.863,131.488 155.851,121.500 156.274 C 118.255 156.412,115.600 156.631,115.600 156.762 C 115.599 157.202,127.385 156.428,128.800 155.895 C 132.959 154.329,136.254 151.449,138.117 147.753 C 139.080 145.843,139.861 143.200,139.464 143.200 C 139.354 143.200,139.146 143.736,139.002 144.391 M193.073 153.353 C 192.923 153.745,192.811 154.366,192.825 154.733 C 192.842 155.175,192.981 155.074,193.237 154.434 C 193.449 153.903,193.561 153.282,193.485 153.054 C 193.409 152.827,193.224 152.961,193.073 153.353 M145.051 154.200 C 146.153 159.005,151.209 165.890,155.281 168.131 L 156.600 168.857 155.400 167.935 C 150.718 164.339,145.627 157.471,145.594 154.704 C 145.591 154.427,145.405 153.930,145.182 153.600 C 144.886 153.163,144.850 153.326,145.051 154.200 M159.224 154.644 C 159.136 156.299,164.718 160.458,166.896 160.359 C 167.618 160.326,167.559 160.259,166.600 160.025 C 163.729 159.323,161.400 157.605,159.724 154.954 C 159.461 154.539,159.236 154.400,159.224 154.644 M190.400 159.722 C 190.400 160.688,186.166 165.388,183.873 166.968 C 182.623 167.829,181.681 168.615,181.781 168.714 C 182.120 169.053,185.983 165.947,187.895 163.798 C 190.074 161.351,191.443 159.200,190.823 159.200 C 190.590 159.200,190.400 159.435,190.400 159.722 M171.400 160.000 L 170.200 160.305 171.476 160.353 C 172.178 160.379,172.864 160.220,173.000 160.000 C 173.274 159.557,173.140 159.557,171.400 160.000 M156.800 169.002 C 156.800 170.238,164.203 172.144,169.000 172.144 C 173.846 172.144,181.200 170.237,181.200 168.979 C 181.200 168.869,180.705 169.035,180.100 169.348 C 174.319 172.335,162.433 172.487,158.600 169.623 C 158.056 169.216,156.800 168.783,156.800 169.002 M279.800 183.396 C 270.075 185.165,262.170 191.996,259.659 200.800 C 259.377 201.790,258.978 203.153,258.773 203.828 C 257.977 206.450,258.490 213.416,259.647 215.695 C 259.841 216.077,260.000 216.574,260.000 216.799 C 260.000 217.259,261.632 220.889,261.978 221.200 C 262.101 221.310,262.433 221.850,262.716 222.400 C 264.146 225.178,269.263 229.649,273.074 231.453 C 292.464 240.625,314.287 222.158,308.351 201.600 C 307.972 200.287,307.744 199.695,306.657 197.200 C 302.452 187.548,290.563 181.438,279.800 183.396 M163.300 183.487 C 163.905 183.578,164.895 183.578,165.500 183.487 C 166.105 183.395,165.610 183.320,164.400 183.320 C 163.190 183.320,162.695 183.395,163.300 183.487 M201.100 183.499 L 196.400 183.625 196.400 208.189 C 196.400 224.854,196.535 232.836,196.818 233.011 C 197.709 233.562,231.532 233.754,232.185 233.213 C 233.111 232.444,233.095 221.399,232.167 221.043 C 231.819 220.909,226.779 220.800,220.967 220.800 L 210.400 220.800 210.400 202.243 C 210.400 181.513,210.649 183.122,207.467 183.286 C 206.550 183.333,203.685 183.429,201.100 183.499 M238.184 183.700 C 238.079 183.975,238.039 195.270,238.096 208.800 L 238.200 233.400 244.798 233.510 C 250.650 233.608,251.452 233.543,251.898 232.934 C 252.610 231.959,252.632 184.392,251.920 183.680 C 251.225 182.985,238.450 183.004,238.184 183.700 M102.267 183.867 C 101.933 184.200,101.910 231.701,102.243 232.567 C 102.503 233.245,114.929 233.560,115.339 232.900 C 115.441 232.735,112.616 232.600,109.062 232.600 L 102.600 232.600 102.497 208.300 L 102.394 184.000 118.986 184.000 L 135.578 184.000 135.701 189.700 L 135.824 195.400 135.912 189.500 L 136.000 183.600 119.267 183.600 C 110.063 183.600,102.413 183.720,102.267 183.867 M156.600 184.461 C 155.280 184.903,154.022 185.438,153.804 185.649 C 153.586 185.860,154.216 185.741,155.204 185.384 C 156.192 185.028,158.080 184.495,159.400 184.200 C 161.301 183.775,161.509 183.663,160.400 183.660 C 159.630 183.659,157.920 184.019,156.600 184.461 M168.800 184.004 C 169.790 184.174,171.670 184.691,172.977 185.153 C 174.284 185.615,175.184 185.830,174.977 185.631 C 174.331 185.010,169.530 183.598,168.234 183.647 C 167.239 183.685,167.349 183.754,168.800 184.004 M209.504 202.164 C 209.576 214.912,209.744 220.692,210.053 221.064 C 210.405 221.488,212.750 221.600,221.249 221.600 L 232.000 221.600 232.000 227.204 L 232.000 232.808 214.500 232.704 L 197.000 232.600 196.897 208.313 L 196.794 184.026 201.297 183.890 C 203.774 183.815,206.610 183.764,207.600 183.777 L 209.400 183.800 209.504 202.164 M251.503 208.300 L 251.606 232.800 245.003 232.800 L 238.400 232.800 238.400 208.467 C 238.400 195.083,238.524 184.009,238.676 183.857 C 238.828 183.705,241.753 183.630,245.176 183.690 L 251.400 183.800 251.503 208.300 M289.400 184.024 C 318.236 191.576,313.328 233.019,283.600 232.996 C 261.417 232.979,250.246 204.802,266.703 190.377 C 268.972 188.388,269.977 187.600,270.243 187.600 C 270.371 187.600,270.954 187.271,271.538 186.868 C 272.615 186.127,275.846 184.815,278.400 184.083 C 280.288 183.542,287.414 183.503,289.400 184.024 M151.600 186.836 C 150.936 187.379,150.869 187.515,151.400 187.240 C 152.705 186.566,153.428 186.012,153.000 186.015 C 152.780 186.017,152.150 186.386,151.600 186.836 M148.706 188.836 L 147.400 190.072 148.900 188.989 C 149.725 188.393,150.400 187.836,150.400 187.753 C 150.400 187.380,149.922 187.686,148.706 188.836 M180.797 189.930 C 182.226 191.289,183.477 192.400,183.579 192.400 C 183.927 192.400,180.598 189.132,179.400 188.297 C 178.740 187.837,179.369 188.572,180.797 189.930 M144.600 192.689 C 143.205 194.543,143.070 195.052,144.357 193.600 C 145.040 192.830,145.599 192.065,145.599 191.900 C 145.601 191.434,145.460 191.545,144.600 192.689 M184.282 193.800 C 188.289 199.782,190.088 208.887,188.346 214.372 C 186.596 219.884,183.912 224.215,180.476 227.070 C 177.378 229.646,177.254 229.772,178.400 229.190 C 189.365 223.624,192.934 201.932,184.289 193.400 L 183.478 192.600 184.282 193.800 M160.400 195.600 C 159.636 196.094,160.458 196.094,162.000 195.600 L 163.000 195.280 162.000 195.246 C 161.450 195.227,160.730 195.387,160.400 195.600 M166.400 195.600 C 167.942 196.094,168.764 196.094,168.000 195.600 C 167.670 195.387,166.950 195.227,166.400 195.246 L 165.400 195.280 166.400 195.600 M279.259 196.029 C 272.411 199.069,270.165 209.835,274.889 216.985 C 279.336 223.718,290.149 222.944,293.758 215.636 C 299.483 204.040,290.026 191.250,279.259 196.029 M287.767 196.422 C 295.498 199.315,297.556 211.964,291.311 218.209 C 286.600 222.920,277.697 221.678,274.747 215.897 C 268.945 204.523,277.043 192.410,287.767 196.422 M157.064 197.628 C 150.872 203.078,151.448 216.493,158.025 220.013 C 158.439 220.235,157.909 219.547,156.847 218.485 C 150.980 212.619,152.159 200.598,159.000 196.524 C 159.440 196.261,159.600 196.036,159.356 196.024 C 159.112 196.011,158.081 196.732,157.064 197.628 M170.400 196.891 C 170.401 196.951,171.150 197.720,172.065 198.600 C 173.300 199.788,173.551 199.924,173.037 199.128 C 172.471 198.252,170.399 196.494,170.400 196.891 M140.200 200.800 C 140.050 201.273,140.017 201.750,140.127 201.860 C 140.237 201.970,140.450 201.673,140.600 201.200 C 140.750 200.727,140.783 200.250,140.673 200.140 C 140.563 200.030,140.350 200.327,140.200 200.800 M139.490 203.950 C 139.331 204.692,139.220 205.863,139.244 206.550 C 139.281 207.617,139.341 207.536,139.649 206.000 C 139.848 205.010,139.959 203.840,139.896 203.400 C 139.818 202.859,139.686 203.037,139.490 203.950 M115.600 203.692 C 115.600 203.852,119.245 204.032,123.700 204.092 L 131.800 204.200 131.800 209.200 L 131.800 214.200 123.700 214.308 C 119.245 214.368,115.600 214.548,115.600 214.708 C 115.599 215.236,131.739 214.820,132.081 214.283 C 132.633 213.413,132.459 204.547,131.879 204.066 C 131.290 203.577,115.599 203.216,115.600 203.692 M175.400 208.200 C 175.400 210.248,175.535 211.840,175.700 211.738 C 176.087 211.499,176.081 205.547,175.694 204.938 C 175.532 204.684,175.400 206.152,175.400 208.200 M139.293 210.400 C 139.295 212.165,139.891 214.788,139.930 213.200 C 139.943 212.650,139.805 211.480,139.623 210.600 L 139.292 209.000 139.293 210.400 M174.846 213.067 C 174.821 213.324,174.684 213.864,174.541 214.267 C 174.340 214.836,174.394 214.897,174.779 214.542 C 175.052 214.291,175.189 213.751,175.084 213.342 C 174.979 212.934,174.872 212.810,174.846 213.067 M140.028 215.076 C 140.118 216.115,140.744 216.996,140.772 216.124 C 140.787 215.642,140.620 215.136,140.400 215.000 C 140.180 214.864,140.013 214.898,140.028 215.076 M171.400 218.860 C 170.960 219.307,169.970 220.009,169.200 220.419 C 168.430 220.829,167.990 221.173,168.222 221.182 C 168.755 221.205,172.213 219.026,172.576 218.439 C 173.023 217.715,172.258 217.989,171.400 218.860 M141.600 219.020 C 141.600 219.472,142.866 221.667,143.031 221.502 C 143.220 221.314,142.047 218.800,141.771 218.800 C 141.677 218.800,141.600 218.899,141.600 219.020 M162.072 221.653 C 162.725 222.067,165.519 222.053,166.600 221.631 C 167.098 221.436,166.295 221.318,164.472 221.318 C 162.744 221.318,161.760 221.455,162.072 221.653 M145.378 224.883 C 146.729 226.461,149.600 229.054,149.600 228.696 C 149.600 228.482,144.316 223.200,144.102 223.200 C 144.012 223.200,144.586 223.957,145.378 224.883 M150.600 229.411 C 151.707 230.358,156.988 232.804,157.874 232.780 C 158.273 232.770,157.478 232.329,156.107 231.801 C 154.736 231.274,152.756 230.366,151.707 229.784 C 150.658 229.203,150.160 229.035,150.600 229.411 M171.600 232.054 C 170.408 232.565,170.190 232.747,170.956 232.591 C 172.415 232.295,174.802 231.262,174.000 231.274 C 173.670 231.279,172.590 231.630,171.600 232.054 M160.226 233.253 C 161.750 233.581,166.660 233.578,168.200 233.248 C 168.860 233.107,167.071 232.993,164.226 232.996 C 161.380 232.998,159.580 233.114,160.226 233.253 " stroke="none" fill="#d4d4d4" fill-rule="evenodd"></path><path id="path8" d="M350.192 183.800 C 350.192 204.260,350.241 212.571,350.300 202.270 C 350.359 191.968,350.359 175.228,350.300 165.070 C 350.240 154.911,350.192 163.340,350.192 183.800 M61.008 366.787 C 60.848 367.045,66.683 367.221,77.782 367.292 C 88.998 367.363,94.755 367.264,94.667 367.000 C 94.484 366.453,61.344 366.243,61.008 366.787 " stroke="none" fill="#b45464" fill-rule="evenodd"></path></g></svg>