<?xml version="1.0" encoding="UTF-8"?>
<svg version="1.1" xmlns="http://www.w3.org/2000/svg" width="512" height="512">
<path d="M0 0 C1.63309093 -0.00417981 3.26617895 -0.00966086 4.89926165 -0.01631981 C9.35827209 -0.03070842 13.81709665 -0.0265504 18.27611697 -0.019153 C23.0962963 -0.01440722 27.91643623 -0.02694366 32.73660278 -0.03717041 C42.16887874 -0.05433651 51.60108802 -0.05520291 61.03337554 -0.04995751 C68.70316225 -0.04591028 76.3729293 -0.04736593 84.04271507 -0.05270576 C85.68234457 -0.0538284 85.68234457 -0.0538284 87.35509789 -0.05497371 C89.57596551 -0.05650525 91.79683314 -0.05804359 94.01770075 -0.05958868 C114.82887802 -0.07330595 135.64001767 -0.06788159 156.45119407 -0.05640347 C175.47132249 -0.04647324 194.4913536 -0.05940951 213.51146702 -0.08333766 C233.06227401 -0.10774727 252.61303572 -0.11733186 272.16385764 -0.11068493 C283.13174659 -0.10719668 294.09956073 -0.10939867 305.06743813 -0.12693596 C314.40469083 -0.14168127 323.74181605 -0.142263 333.07906631 -0.12486505 C337.83843908 -0.11637164 342.59758433 -0.11416479 347.35694504 -0.1295166 C351.7225472 -0.14342339 356.08772823 -0.13852421 360.4533064 -0.11927737 C362.02386249 -0.11553531 363.59445281 -0.11838696 365.16497824 -0.12888902 C385.88154904 -0.25745587 403.33778018 5.91590528 418.62419128 20.38768005 C423.83434634 25.72855585 427.53892735 31.67153485 430.93669128 38.26268005 C431.42528625 39.19769348 431.42528625 39.19769348 431.92375183 40.15159607 C437.3747468 51.2761624 438.06296219 62.58622921 438.01187134 74.76348877 C438.01605115 76.3965797 438.02153219 78.02966772 438.02819115 79.66275042 C438.04257976 84.12176085 438.03842174 88.58058542 438.03102434 93.03960574 C438.02627856 97.85978507 438.038815 102.679925 438.04904175 107.50009155 C438.06620785 116.93236751 438.06707425 126.36457679 438.06182884 135.79686431 C438.05778162 143.46665102 438.05923727 151.13641807 438.0645771 158.80620384 C438.06532552 159.89929017 438.06607395 160.9923765 438.06684505 162.11858666 C438.06837658 164.33945428 438.06991493 166.56032191 438.07146002 168.78118952 C438.08517729 189.59236679 438.07975293 210.40350644 438.0682748 231.21468284 C438.05834458 250.23481126 438.07128085 269.25484237 438.095209 288.27495579 C438.11961861 307.82576278 438.1292032 327.37652449 438.12255627 346.92734641 C438.11906802 357.89523536 438.12127001 368.8630495 438.1388073 379.8309269 C438.15355261 389.1681796 438.15413434 398.50530482 438.13673639 407.84255508 C438.12824298 412.60192785 438.12603613 417.3610731 438.14138794 422.12043381 C438.15529472 426.48603597 438.15039554 430.851217 438.1311487 435.21679517 C438.12740664 436.78735126 438.1302583 438.35794158 438.14076035 439.92846701 C438.27271023 461.19016003 431.7270297 478.93864477 416.62419128 494.38768005 C400.94936709 508.34471529 383.76415663 512.86143599 363.24838257 512.77536011 C361.61529164 512.77953992 359.98220362 512.78502096 358.34912091 512.79167992 C353.89011048 512.80606853 349.43128592 512.80191051 344.9722656 512.79451311 C340.15208627 512.78976733 335.33194634 512.80230377 330.51177979 512.81253052 C321.07950383 512.82969662 311.64729455 512.83056302 302.21500703 512.82531761 C294.54522032 512.82127039 286.87545327 512.82272604 279.2056675 512.82806587 C277.566038 512.82918851 277.566038 512.82918851 275.89328468 512.83033382 C273.67241705 512.83186535 271.45154943 512.8334037 269.23068181 512.83494879 C248.41950455 512.84866606 227.6083649 512.8432417 206.7971885 512.83176357 C187.77706008 512.82183335 168.75702896 512.83476962 149.73691555 512.85869776 C130.18610856 512.88310738 110.63534685 512.89269197 91.08452493 512.88604504 C80.11663598 512.88255679 69.14882184 512.88475878 58.18094444 512.90229607 C48.84369174 512.91704138 39.50656652 512.91762311 30.16931625 512.90022516 C25.40994349 512.89173174 20.65079824 512.8895249 15.89143753 512.90487671 C11.52583537 512.91878349 7.16065434 512.91388431 2.79507617 512.89463747 C1.22452008 512.89089541 -0.34607024 512.89374707 -1.91659568 512.90424912 C-23.17828869 513.036199 -40.92677344 506.49051847 -56.37580872 491.38768005 C-70.33284395 475.71285586 -74.84956465 458.5276454 -74.76348877 438.01187134 C-74.76766858 436.37878041 -74.77314963 434.74569239 -74.77980858 433.11260968 C-74.79419719 428.65359925 -74.79003917 424.19477469 -74.78264177 419.73575437 C-74.77789599 414.91557504 -74.79043243 410.0954351 -74.80065918 405.27526855 C-74.81782528 395.8429926 -74.81869168 386.41078332 -74.81344628 376.9784958 C-74.80939905 369.30870909 -74.8108547 361.63894204 -74.81619453 353.96915627 C-74.81694296 352.87606994 -74.81769138 351.78298361 -74.81846248 350.65677345 C-74.81999402 348.43590582 -74.82153236 346.2150382 -74.82307745 343.99417058 C-74.83679472 323.18299331 -74.83137036 302.37185367 -74.81989224 281.56067727 C-74.80996201 262.54054885 -74.82289828 243.52051773 -74.84682643 224.50040432 C-74.87123604 204.94959733 -74.88082063 185.39883562 -74.8741737 165.8480137 C-74.87068545 154.88012475 -74.87288744 143.91231061 -74.89042473 132.94443321 C-74.90517004 123.60718051 -74.90575177 114.27005529 -74.88835382 104.93280502 C-74.87986041 100.17343226 -74.87765356 95.41428701 -74.89300537 90.6549263 C-74.90691216 86.28932414 -74.90201297 81.92414311 -74.88276614 77.55856494 C-74.87902408 75.98800885 -74.88187573 74.41741853 -74.89237779 72.84689309 C-75.02094464 52.1303223 -68.84758349 34.67409116 -54.37580872 19.38768005 C-49.03493292 14.17752499 -43.09195392 10.47294399 -36.50080872 7.07518005 C-35.87746643 6.74945007 -35.25412415 6.42372009 -34.6118927 6.08811951 C-23.48732637 0.63712453 -12.17725956 -0.05109085 0 0 Z " fill="#FF4500" transform="translate(74.37580871582031,-0.3876800537109375)"/>
<path d="M0 0 C5.68194832 1.10653308 11.30684201 2.41001259 16.9375 3.75 C18.48998043 4.11271857 20.04263509 4.47469217 21.59545898 4.8359375 C26.0664545 5.87886838 30.53385292 6.9365181 35 8 C36.79872559 8.42829102 36.79872559 8.42829102 38.63378906 8.86523438 C46.85184752 10.82650231 46.85184752 10.82650231 50.13452148 11.62792969 C54.0222127 12.6340934 54.0222127 12.6340934 58 13 C58.721875 11.948125 59.44375 10.89625 60.1875 9.8125 C63.63933699 4.81189158 67.59541305 1.99012404 73.1875 -0.3125 C81.6683163 -1.84182753 89.01506074 -2.0261511 96.671875 2.30859375 C102.19536599 6.32146556 106.99319952 11.3785279 109 18 C109.99629048 27.1763597 109.70455812 35.38931834 104 43 C97.82786528 49.93542644 91.45711043 53.01103245 82.25 53.5625 C74.50270927 53.33694597 67.63970776 50.48895063 62.01953125 45.1015625 C57.51513452 39.47384708 54.77370046 33.27930194 55 26 C54.15066895 25.83781982 53.30133789 25.67563965 52.42626953 25.50854492 C44.97589275 24.05526033 37.5698142 22.4729323 30.1796875 20.73828125 C29.33907776 20.54120575 28.49846802 20.34413025 27.63238525 20.14108276 C24.15924973 19.32482786 20.68687511 18.5054806 17.21582031 17.68041992 C14.64239569 17.06983717 12.06743921 16.466104 9.4921875 15.86328125 C8.71197235 15.6758284 7.9317572 15.48837555 7.12789917 15.29524231 C3.35497919 14.41644112 -0.11979545 13.77053588 -4 14 C-4.1451001 14.71091797 -4.2902002 15.42183594 -4.43969727 16.15429688 C-8.20165542 34.54934897 -12.13367054 52.90136608 -16.17285156 71.23730469 C-17.43733864 76.98945191 -18.68819286 82.74453986 -19.9375 88.5 C-20.14898682 89.47372559 -20.36047363 90.44745117 -20.57836914 91.45068359 C-21.05244801 93.63374522 -21.52625968 95.81686488 -22 98 C-21.03964844 98.02578125 -20.07929688 98.0515625 -19.08984375 98.078125 C11.21974692 99.19413929 44.58734117 107.1049435 69 126 C71.99447867 124.59718116 74.56900595 122.9287727 77.25 121 C85.33390418 115.60195323 94.07189395 114.76580147 103.609375 116.46484375 C114.00847167 119.19379924 121.22979462 125.0154139 127 134 C131.62014367 142.50989699 132.27497692 152.70188214 130.375 162.125 C127.46395196 171.89635006 121.26922784 178.48718144 113 184 C112.64828979 186.63386522 112.64828979 186.63386522 112.84765625 189.72265625 C112.8940625 191.47787598 112.8940625 191.47787598 112.94140625 193.26855469 C112.98136719 194.52055664 113.02132813 195.77255859 113.0625 197.0625 C113.43114281 223.08473289 105.53200346 242.83350239 87.49780273 261.90063477 C71.30742485 278.48073139 51.8902953 288.91687975 30.09228516 296.28613281 C28.32623561 296.88869161 26.57344733 297.52991255 24.82421875 298.1796875 C7.56241276 304.20613668 -10.92941321 305.37792713 -29.0625 305.375 C-29.78213928 305.37681274 -30.50177856 305.37862549 -31.2432251 305.38049316 C-45.23477263 305.37649546 -59.30135866 304.3997242 -72.875 300.8125 C-74.11407104 300.49104004 -74.11407104 300.49104004 -75.37817383 300.16308594 C-100.49027355 293.41947013 -123.11916035 282.05717886 -142 264 C-142.74765625 263.32710938 -143.4953125 262.65421875 -144.265625 261.9609375 C-155.29844173 251.66107013 -162.11036284 239.12378301 -167 225 C-167.3609375 224.01128906 -167.721875 223.02257812 -168.09375 222.00390625 C-170.2468881 214.86699591 -170.1531098 207.75850858 -170.125 200.375 C-170.13080078 198.83972656 -170.13080078 198.83972656 -170.13671875 197.2734375 C-170.13542969 196.2834375 -170.13414062 195.2934375 -170.1328125 194.2734375 C-170.13168457 193.38060059 -170.13055664 192.48776367 -170.12939453 191.56787109 C-169.99783228 188.95698106 -169.57689241 186.54646152 -169 184 C-170.051875 183.6596875 -170.051875 183.6596875 -171.125 183.3125 C-179.40254883 179.53361901 -184.57963269 172.1205387 -187.875 163.8125 C-191.04001151 152.86842405 -189.30490825 142.8730237 -184 133 C-183.45859375 131.98292969 -183.45859375 131.98292969 -182.90625 130.9453125 C-178.72381275 124.22353834 -170.80663377 118.84017559 -163.30859375 116.44140625 C-152.17860438 114.31333722 -141.32501729 116.06328525 -131.85546875 122.4453125 C-130.1875 123.8125 -130.1875 123.8125 -128 126 C-123.97534067 124.52701932 -120.48400578 122.57702616 -116.8125 120.375 C-92.45915331 106.18468081 -63.36354157 96.95807398 -35 98 C-34.86851562 96.84242188 -34.73703125 95.68484375 -34.6015625 94.4921875 C-34.07744774 90.31935744 -33.27644691 86.2310206 -32.375 82.125 C-31.01118144 75.79483549 -29.67902652 69.45924562 -28.390625 63.11328125 C-25.02536104 46.5578407 -21.53814534 30.05242139 -17.60302734 13.62060547 C-17.20401115 11.88658123 -16.83399658 10.14560365 -16.49462891 8.39892578 C-16.33784668 7.59825684 -16.18106445 6.79758789 -16.01953125 5.97265625 C-15.89296143 5.275354 -15.7663916 4.57805176 -15.63598633 3.85961914 C-13.13885935 -3.44196098 -6.12506241 -0.94829017 0 0 Z " fill="#FFFEFD" transform="translate(285,104)"/>
<path d="M0 0 C5.41578268 3.58676835 9.18413173 8.11245268 11.1953125 14.33984375 C12.79718785 22.50678203 12.98562028 30.6944081 8.28515625 37.8046875 C2.64603799 44.6726693 -3.25293879 49.02065096 -12.1484375 50.1171875 C-19.60897038 50.48926011 -25.24813155 49.17650637 -31.328125 44.76953125 C-37.34423691 39.27831501 -40.83625598 34.47594115 -41.69921875 26.21875 C-41.86703324 16.7125526 -40.97242784 10.81983924 -34.49609375 3.77734375 C-24.20214626 -6.00901264 -12.34191428 -6.8264215 0 0 Z " fill="#FF4602" transform="translate(329.328125,269.23046875)"/>
<path d="M0 0 C7.28416495 3.78937258 11.93592775 8.53599818 15.3125 16 C17.44390742 24.85353853 16.43513418 31.63519264 12.03125 39.6328125 C8.28352899 45.02400134 3.74192638 48.26038321 -2.25 50.8125 C-11.65106241 52.27128555 -18.88632014 51.99565551 -26.875 46.375 C-32.74620356 41.18932303 -36.33845478 35.53641388 -37.15234375 27.70703125 C-37.43609712 19.4781834 -35.92301764 13.62076556 -30.75 7.1875 C-22.32320259 -1.71330476 -11.73874347 -4.74758055 0 0 Z " fill="#FF4602" transform="translate(207.875,267.625)"/>
<path d="M0 0 C2.03515625 1.35546875 2.03515625 1.35546875 4.0625 3.1875 C16.6059295 13.43337063 33.18722857 15.53847622 48.90405273 15.39111328 C50.93346589 15.37503197 52.96088083 15.39106912 54.99023438 15.41015625 C71.41140703 15.43691455 89.49484463 12.81038646 102 1.35546875 C104.53091801 -0.35982139 105.99889197 -0.37147265 109 0 C111.375 1.5625 111.375 1.5625 113 4 C113.375 7.25 113.375 7.25 112 11 C100.1683818 24.15472389 78.83252403 29.11060266 61.75732422 30.20849609 C58.41876551 30.3026312 55.08982836 30.32925059 51.75 30.3125 C50.56559326 30.30686035 49.38118652 30.3012207 48.16088867 30.29541016 C29.6059737 30.03916535 9.8017413 25.98112976 -5 14 C-9.01133185 9.66857886 -9.01133185 9.66857886 -8.9375 5.3125 C-7.51384895 0.28226628 -4.91355292 -0.62073804 0 0 Z " fill="#FF4A07" transform="translate(204,345)"/>
</svg>
