<svg id="svg" version="1.1" xmlns="http://www.w3.org/2000/svg" xmlns:xlink="http://www.w3.org/1999/xlink" width="400" height="400" viewBox="0, 0, 400,400"><g id="svgg"><path id="path0" d="M244.200 95.437 C 235.758 96.286,223.985 100.847,218.447 105.414 C 214.360 108.783,211.970 110.979,210.600 112.623 C 209.720 113.678,208.810 114.735,208.578 114.971 C 200.249 123.441,196.144 139.870,197.837 157.959 L 198.077 160.518 195.539 160.233 C 194.142 160.076,191.380 159.779,189.400 159.573 C 185.104 159.127,181.365 158.594,178.500 158.021 C 177.345 157.789,175.545 157.431,174.500 157.225 C 173.455 157.019,171.880 156.677,171.000 156.466 C 170.120 156.255,168.770 155.959,168.000 155.809 C 167.230 155.658,166.240 155.390,165.800 155.213 C 165.360 155.036,164.190 154.667,163.200 154.392 C 158.905 153.201,150.856 150.378,147.688 148.951 C 146.527 148.428,145.447 148.001,145.288 148.003 C 145.028 148.006,139.367 145.342,137.400 144.291 C 136.960 144.055,135.250 143.150,133.600 142.279 C 131.950 141.407,130.122 140.358,129.538 139.947 C 128.954 139.536,128.365 139.200,128.228 139.200 C 127.468 139.200,114.033 129.846,110.796 127.063 C 110.244 126.588,108.804 125.395,107.596 124.412 C 104.981 122.282,100.514 118.066,96.777 114.200 C 94.283 111.620,92.943 110.147,89.699 106.418 L 88.497 105.035 87.454 107.094 C 75.722 130.245,81.880 157.072,102.726 173.621 C 105.402 175.746,105.078 176.383,101.676 175.680 C 100.398 175.416,98.844 175.200,98.222 175.200 C 97.601 175.200,96.352 175.006,95.446 174.768 C 94.541 174.531,93.080 174.150,92.200 173.923 C 91.320 173.695,90.240 173.366,89.800 173.193 C 89.360 173.019,87.512 172.298,85.694 171.591 C 83.876 170.884,82.289 170.144,82.167 169.946 C 80.362 167.026,81.570 178.464,83.819 185.600 C 89.225 202.744,105.987 218.326,121.767 220.876 C 122.798 221.043,123.005 221.828,122.117 222.208 C 119.558 223.301,103.926 224.071,101.495 223.223 C 99.932 222.678,99.879 222.757,100.543 224.638 C 102.013 228.803,105.368 234.905,107.957 238.123 C 109.303 239.795,112.579 243.430,113.372 244.131 C 113.828 244.533,114.836 245.433,115.613 246.131 C 120.322 250.359,127.260 254.323,133.702 256.465 C 137.127 257.605,141.930 258.576,146.500 259.055 C 150.084 259.431,150.033 259.497,142.075 264.800 C 136.398 268.583,123.624 275.200,121.999 275.200 C 121.774 275.200,121.232 275.380,120.795 275.600 C 120.358 275.820,119.642 276.180,119.205 276.400 C 118.768 276.620,118.059 276.800,117.629 276.800 C 117.199 276.800,116.749 276.959,116.629 277.154 C 116.508 277.349,115.913 277.604,115.305 277.721 C 114.697 277.838,113.570 278.115,112.800 278.335 C 111.186 278.798,106.934 279.870,104.600 280.403 C 102.870 280.799,99.480 281.308,93.800 282.024 C 91.719 282.287,86.529 282.420,81.500 282.339 C 72.386 282.193,71.997 282.244,74.100 283.311 C 74.815 283.674,76.480 284.600,77.800 285.368 C 81.258 287.381,92.403 292.849,95.500 294.051 C 97.334 294.763,98.619 295.303,99.295 295.647 C 99.677 295.841,100.316 296.000,100.715 296.000 C 101.114 296.000,101.611 296.149,101.820 296.330 C 102.029 296.512,103.010 296.896,104.000 297.184 C 104.990 297.472,106.790 298.019,108.000 298.400 C 114.296 300.383,119.036 301.479,127.800 302.979 C 135.726 304.336,139.613 304.585,152.600 304.571 C 167.325 304.554,170.601 304.266,184.000 301.812 C 188.174 301.047,200.711 297.775,201.800 297.165 C 202.020 297.042,203.010 296.698,204.000 296.401 C 204.990 296.104,205.971 295.712,206.180 295.530 C 206.389 295.349,206.796 295.200,207.084 295.200 C 207.373 295.200,208.462 294.822,209.504 294.360 C 210.547 293.898,211.760 293.372,212.200 293.191 C 212.640 293.010,213.799 292.533,214.776 292.131 C 216.740 291.323,223.269 288.042,227.000 285.989 C 229.544 284.589,240.861 277.291,241.200 276.833 C 241.310 276.683,242.030 276.129,242.800 275.600 C 243.570 275.071,244.290 274.537,244.400 274.414 C 244.510 274.290,245.590 273.389,246.800 272.411 C 256.300 264.734,269.588 250.561,273.510 243.922 C 273.874 243.305,274.314 242.800,274.486 242.800 C 274.659 242.800,274.800 242.575,274.801 242.300 C 274.801 242.025,275.341 241.170,276.000 240.400 C 276.659 239.630,277.199 238.775,277.199 238.500 C 277.200 238.225,277.380 238.000,277.600 238.000 C 277.820 238.000,278.000 237.807,278.000 237.572 C 278.000 237.337,278.518 236.391,279.152 235.470 C 280.284 233.825,280.776 232.996,283.469 228.200 C 285.257 225.016,289.815 215.568,290.851 212.900 C 291.324 211.681,291.908 210.224,292.454 208.900 C 293.350 206.725,293.555 206.176,294.055 204.600 C 294.335 203.720,294.707 202.829,294.882 202.620 C 295.057 202.411,295.200 201.837,295.200 201.344 C 295.200 200.851,295.359 200.349,295.554 200.229 C 295.749 200.108,296.004 199.513,296.121 198.905 C 296.238 198.297,296.516 197.170,296.738 196.400 C 300.758 182.455,302.800 168.444,302.800 154.796 L 302.800 147.296 304.700 145.762 C 305.745 144.918,306.690 144.130,306.800 144.011 C 306.910 143.893,307.720 143.266,308.600 142.620 C 310.675 141.095,320.132 131.641,322.425 128.800 C 323.401 127.590,324.335 126.540,324.500 126.467 C 324.665 126.393,324.801 126.123,324.802 125.867 C 324.803 125.610,325.298 124.852,325.902 124.183 C 326.919 123.055,328.000 121.437,328.000 121.043 C 328.000 120.823,326.314 121.239,325.800 121.586 C 325.580 121.734,324.590 122.100,323.600 122.398 C 322.610 122.695,321.629 123.088,321.420 123.270 C 321.211 123.451,320.714 123.600,320.315 123.600 C 319.916 123.600,319.277 123.762,318.895 123.961 C 317.698 124.583,310.702 126.426,306.800 127.147 C 305.590 127.370,303.546 127.761,302.258 128.015 C 299.185 128.620,298.596 128.085,300.666 126.570 C 305.109 123.318,306.651 122.066,308.725 120.025 C 311.296 117.495,312.579 116.026,313.988 114.000 C 314.523 113.230,315.071 112.510,315.205 112.400 C 315.689 112.003,318.349 107.351,319.323 105.200 C 320.469 102.668,321.600 99.967,321.600 99.762 C 321.600 99.685,319.575 100.654,317.100 101.916 C 312.345 104.340,307.779 106.400,307.160 106.400 C 306.956 106.400,306.477 106.559,306.095 106.753 C 304.864 107.379,303.438 107.936,301.800 108.429 C 300.920 108.694,299.840 109.045,299.400 109.210 C 298.638 109.495,297.378 109.838,293.800 110.735 C 292.920 110.956,291.424 111.341,290.476 111.592 L 288.752 112.047 286.268 109.723 C 281.026 104.821,271.875 99.218,267.400 98.171 C 266.740 98.016,266.020 97.765,265.800 97.612 C 265.580 97.459,264.320 97.105,263.000 96.824 C 261.680 96.543,260.076 96.153,259.437 95.956 C 258.168 95.565,246.781 95.177,244.200 95.437 " stroke="none" fill="#fbfbfc" fill-rule="evenodd"></path><path id="path1" d="M22.900 0.289 C 22.185 0.378,21.600 0.619,21.600 0.825 C 21.600 1.031,21.060 1.200,20.400 1.200 C 19.740 1.200,19.200 1.380,19.200 1.600 C 19.200 1.820,18.840 2.000,18.400 2.000 C 17.960 2.000,17.600 2.180,17.600 2.400 C 17.600 2.620,17.240 2.800,16.800 2.800 C 16.360 2.800,16.000 2.980,16.000 3.200 C 16.000 3.420,15.659 3.600,15.243 3.600 C 14.826 3.600,14.378 3.881,14.246 4.225 C 14.114 4.569,13.826 4.740,13.606 4.604 C 13.148 4.320,11.123 6.190,11.491 6.558 C 11.716 6.783,10.934 6.922,10.690 6.700 C 10.630 6.645,10.290 6.870,9.934 7.200 C 9.476 7.626,9.421 7.885,9.744 8.094 C 10.014 8.267,9.832 8.390,9.300 8.394 C 8.637 8.398,8.398 8.637,8.394 9.300 C 8.390 9.832,8.267 10.014,8.094 9.744 C 7.881 9.414,7.658 9.442,7.284 9.844 C 7.001 10.150,6.901 10.400,7.062 10.400 C 7.224 10.400,6.676 11.023,5.845 11.784 C 5.014 12.546,4.450 13.357,4.592 13.587 C 4.734 13.817,4.569 14.114,4.225 14.246 C 3.881 14.378,3.600 14.826,3.600 15.243 C 3.600 15.659,3.420 16.000,3.200 16.000 C 2.980 16.000,2.800 16.360,2.800 16.800 C 2.800 17.240,2.620 17.600,2.400 17.600 C 2.180 17.600,2.000 17.960,2.000 18.400 C 2.000 18.840,1.859 19.200,1.687 19.200 C 1.515 19.200,1.334 19.685,1.285 20.278 C 1.236 20.870,0.972 21.494,0.698 21.663 C -0.036 22.117,-0.034 378.055,0.700 378.300 C 0.975 378.392,1.200 378.992,1.200 379.633 C 1.200 380.275,1.380 380.800,1.600 380.800 C 1.820 380.800,2.000 381.160,2.000 381.600 C 2.000 382.040,2.180 382.400,2.400 382.400 C 2.620 382.400,2.800 382.760,2.800 383.200 C 2.800 383.640,2.980 384.000,3.200 384.000 C 3.420 384.000,3.600 384.360,3.600 384.800 C 3.600 385.240,3.780 385.600,4.000 385.600 C 4.220 385.600,4.400 385.865,4.400 386.190 C 4.400 386.704,7.886 390.435,9.759 391.924 C 10.121 392.212,10.313 392.617,10.185 392.824 C 10.057 393.031,10.353 393.200,10.843 393.200 C 11.333 393.200,11.624 393.309,11.491 393.442 C 11.138 393.795,13.054 395.600,13.782 395.600 C 14.122 395.600,14.400 395.780,14.400 396.000 C 14.400 396.220,14.760 396.400,15.200 396.400 C 15.640 396.400,16.000 396.580,16.000 396.800 C 16.000 397.020,16.360 397.200,16.800 397.200 C 17.240 397.200,17.600 397.380,17.600 397.600 C 17.600 397.820,17.960 398.000,18.400 398.000 C 18.840 398.000,19.203 398.225,19.206 398.500 C 19.210 398.833,19.342 398.800,19.600 398.400 C 19.858 398.000,19.990 397.967,19.994 398.300 C 19.997 398.575,20.461 398.800,21.024 398.800 C 21.587 398.800,21.945 398.965,21.820 399.168 C 21.695 399.370,22.719 399.649,24.096 399.787 C 29.346 400.314,378.122 399.835,378.300 399.300 C 378.392 399.025,378.992 398.800,379.633 398.800 C 380.275 398.800,380.801 398.665,380.803 398.500 C 380.807 398.141,382.744 397.200,383.480 397.200 C 383.766 397.200,384.000 397.020,384.000 396.800 C 384.000 396.580,384.360 396.400,384.800 396.400 C 385.240 396.400,385.600 396.220,385.600 396.000 C 385.600 395.780,385.971 395.600,386.424 395.600 C 386.877 395.600,387.136 395.420,387.000 395.200 C 386.864 394.980,386.949 394.800,387.190 394.800 C 387.754 394.800,390.221 392.303,390.084 391.870 C 390.027 391.689,390.141 391.640,390.338 391.762 C 390.536 391.884,391.108 391.627,391.610 391.192 C 392.205 390.675,392.327 390.398,391.961 390.394 C 391.493 390.389,391.497 390.327,391.981 390.020 C 392.300 389.818,392.705 389.742,392.881 389.850 C 393.056 389.958,393.200 389.806,393.200 389.512 C 393.200 389.217,393.560 388.717,394.000 388.400 C 394.440 388.083,394.800 387.583,394.800 387.288 C 394.800 386.994,394.980 386.864,395.200 387.000 C 395.420 387.136,395.600 386.877,395.600 386.424 C 395.600 385.971,395.780 385.600,396.000 385.600 C 396.220 385.600,396.400 385.150,396.400 384.600 C 396.400 384.050,396.535 383.599,396.700 383.597 C 397.065 383.593,398.000 381.651,398.000 380.897 C 398.000 380.598,398.180 380.464,398.400 380.600 C 398.632 380.744,398.800 380.349,398.800 379.657 C 398.800 379.002,399.025 378.392,399.300 378.300 C 399.806 378.131,400.225 26.686,399.723 23.103 C 399.608 22.280,399.353 21.706,399.157 21.827 C 398.960 21.948,398.800 21.396,398.800 20.600 C 398.800 19.737,398.639 19.253,398.400 19.400 C 398.052 19.615,397.810 18.804,397.953 17.900 C 397.979 17.735,397.820 17.600,397.600 17.600 C 397.380 17.600,397.200 17.240,397.200 16.800 C 397.200 16.360,397.020 16.000,396.800 16.000 C 396.580 16.000,396.400 15.640,396.400 15.200 C 396.400 14.760,396.220 14.400,396.000 14.400 C 395.780 14.400,395.600 14.112,395.600 13.760 C 395.600 13.409,395.060 12.617,394.400 12.000 C 393.740 11.383,393.200 10.671,393.200 10.416 C 393.200 10.161,393.020 10.064,392.800 10.200 C 392.580 10.336,392.400 10.182,392.400 9.857 C 392.400 9.533,391.869 9.032,391.220 8.745 C 390.434 8.397,390.200 8.121,390.520 7.917 C 390.879 7.689,390.866 7.611,390.469 7.606 C 390.176 7.603,389.224 6.880,388.353 6.000 C 387.482 5.120,386.450 4.400,386.060 4.400 C 385.670 4.400,384.964 4.040,384.492 3.600 C 384.020 3.160,383.356 2.800,383.017 2.800 C 382.678 2.800,382.400 2.620,382.400 2.400 C 382.400 2.180,381.939 2.000,381.376 2.000 C 380.796 2.000,380.460 1.827,380.600 1.600 C 380.744 1.368,380.349 1.200,379.657 1.200 C 379.002 1.200,378.392 0.975,378.300 0.700 C 378.142 0.225,26.674 -0.182,22.900 0.289 M257.704 94.604 C 263.282 95.516,270.773 97.689,271.133 98.500 C 271.207 98.665,271.505 98.800,271.796 98.800 C 272.288 98.800,275.553 100.353,276.000 100.800 C 276.110 100.910,276.605 101.225,277.100 101.500 C 277.595 101.775,278.405 102.225,278.900 102.500 C 279.395 102.775,279.890 103.099,280.000 103.219 C 280.110 103.340,280.830 103.871,281.600 104.400 C 282.370 104.929,283.291 105.686,283.647 106.081 C 284.003 106.476,284.453 106.808,284.647 106.818 C 284.841 106.828,285.810 107.649,286.800 108.642 L 288.600 110.448 291.400 110.193 C 292.940 110.053,294.260 109.772,294.333 109.569 C 294.407 109.366,295.172 109.200,296.033 109.200 C 296.895 109.200,297.600 109.020,297.600 108.800 C 297.600 108.580,298.140 108.400,298.800 108.400 C 299.460 108.400,300.000 108.220,300.000 108.000 C 300.000 107.780,300.439 107.600,300.976 107.600 C 301.513 107.600,302.064 107.420,302.200 107.200 C 302.336 106.980,302.887 106.800,303.424 106.800 C 303.961 106.800,304.400 106.620,304.400 106.400 C 304.400 106.180,304.940 106.000,305.600 106.000 C 306.260 106.000,306.800 105.820,306.800 105.600 C 306.800 105.380,307.160 105.200,307.600 105.200 C 308.040 105.200,308.400 105.020,308.400 104.800 C 308.400 104.580,308.728 104.400,309.130 104.400 C 309.852 104.400,317.693 100.554,320.400 98.873 C 322.827 97.365,323.580 98.852,321.992 102.017 C 321.777 102.448,321.420 103.158,321.200 103.595 C 320.980 104.032,320.800 104.662,320.800 104.995 C 320.800 105.328,320.620 105.600,320.400 105.600 C 320.180 105.600,320.000 105.960,320.000 106.400 C 320.000 106.840,319.820 107.200,319.600 107.200 C 319.380 107.200,319.200 107.560,319.200 108.000 C 319.200 108.440,319.020 108.800,318.800 108.800 C 318.580 108.800,318.400 109.036,318.400 109.325 C 318.400 109.613,318.040 110.236,317.600 110.708 C 317.160 111.180,316.800 111.804,316.800 112.095 C 316.800 112.386,316.440 112.883,316.000 113.200 C 315.560 113.517,315.200 113.978,315.200 114.225 C 315.200 114.471,314.435 115.498,313.500 116.507 C 312.565 117.516,311.260 118.939,310.600 119.670 C 308.771 121.696,303.853 126.000,303.367 126.000 C 303.244 126.000,302.873 126.270,302.543 126.600 C 302.010 127.133,302.035 127.200,302.771 127.200 C 303.227 127.200,303.600 127.020,303.600 126.800 C 303.600 126.580,304.489 126.400,305.576 126.400 C 306.663 126.400,307.664 126.220,307.800 126.000 C 307.936 125.780,308.757 125.600,309.624 125.600 C 310.491 125.600,311.200 125.420,311.200 125.200 C 311.200 124.980,311.819 124.800,312.576 124.800 C 313.333 124.800,314.064 124.620,314.200 124.400 C 314.336 124.180,314.966 124.000,315.600 124.000 C 316.234 124.000,316.864 123.820,317.000 123.600 C 317.136 123.380,317.676 123.200,318.200 123.200 C 318.724 123.200,319.264 123.020,319.400 122.800 C 319.536 122.580,320.076 122.400,320.600 122.400 C 321.124 122.400,321.664 122.220,321.800 122.000 C 321.936 121.780,322.487 121.600,323.024 121.600 C 323.561 121.600,324.000 121.453,324.000 121.272 C 324.000 121.092,324.900 120.700,326.000 120.400 C 327.100 120.100,328.000 119.708,328.000 119.528 C 328.000 119.347,328.450 119.200,329.000 119.200 C 330.372 119.200,330.302 120.277,328.816 122.015 C 328.165 122.777,327.625 123.537,327.616 123.704 C 327.607 123.871,327.060 124.572,326.400 125.263 C 325.740 125.954,325.200 126.747,325.200 127.026 C 325.200 127.305,325.053 127.593,324.872 127.667 C 324.692 127.740,323.455 129.150,322.124 130.800 C 319.515 134.033,311.021 142.400,310.347 142.400 C 310.122 142.400,309.246 143.120,308.400 144.000 C 307.554 144.880,306.669 145.600,306.431 145.600 C 306.194 145.600,306.000 145.750,306.000 145.932 C 306.000 146.115,305.582 146.489,305.071 146.762 C 304.172 147.243,304.141 147.433,304.123 152.530 C 304.107 157.128,303.731 163.653,302.956 172.800 C 302.834 174.230,302.570 175.571,302.368 175.780 C 302.165 175.989,302.000 177.193,302.000 178.456 C 302.000 179.719,301.820 180.864,301.600 181.000 C 301.380 181.136,301.200 181.946,301.200 182.800 C 301.200 183.654,301.020 184.464,300.800 184.600 C 300.580 184.736,300.400 185.546,300.400 186.400 C 300.400 187.254,300.220 188.064,300.000 188.200 C 299.780 188.336,299.600 189.056,299.600 189.800 C 299.600 190.544,299.420 191.264,299.200 191.400 C 298.980 191.536,298.800 192.256,298.800 193.000 C 298.800 193.744,298.620 194.464,298.400 194.600 C 298.180 194.736,298.000 195.377,298.000 196.024 C 298.000 196.671,297.820 197.200,297.600 197.200 C 297.380 197.200,297.200 197.740,297.200 198.400 C 297.200 199.060,297.020 199.600,296.800 199.600 C 296.580 199.600,296.400 200.129,296.400 200.776 C 296.400 201.423,296.220 202.064,296.000 202.200 C 295.780 202.336,295.600 202.887,295.600 203.424 C 295.600 203.961,295.420 204.400,295.200 204.400 C 294.980 204.400,294.800 204.850,294.800 205.400 C 294.800 205.950,294.620 206.400,294.400 206.400 C 294.180 206.400,294.000 206.940,294.000 207.600 C 294.000 208.260,293.820 208.800,293.600 208.800 C 293.380 208.800,293.200 209.149,293.200 209.576 C 293.200 210.003,293.020 210.464,292.800 210.600 C 292.580 210.736,292.400 211.287,292.400 211.824 C 292.400 212.361,292.243 212.800,292.050 212.800 C 291.858 212.800,291.595 213.327,291.466 213.972 C 291.337 214.617,290.324 217.011,289.216 219.292 C 288.107 221.572,287.200 223.640,287.200 223.886 C 287.200 224.132,287.065 224.393,286.900 224.467 C 286.645 224.580,285.109 227.350,283.446 230.697 C 283.201 231.190,282.865 231.595,282.700 231.597 C 282.535 231.599,282.400 231.878,282.400 232.217 C 282.400 232.556,282.040 233.220,281.600 233.692 C 281.160 234.164,280.800 234.787,280.800 235.075 C 280.800 235.364,280.620 235.600,280.400 235.600 C 280.180 235.600,280.000 235.836,280.000 236.125 C 280.000 236.413,279.685 236.998,279.300 237.425 C 278.915 237.851,278.360 238.666,278.067 239.236 C 277.773 239.806,277.009 240.886,276.368 241.636 C 275.726 242.386,275.201 243.141,275.201 243.312 C 275.200 243.606,270.288 250.303,268.584 252.334 C 261.951 260.236,253.194 268.968,247.800 273.057 C 246.700 273.891,245.451 274.895,245.025 275.287 C 244.598 275.679,244.101 276.000,243.921 276.000 C 243.740 276.000,243.028 276.540,242.337 277.200 C 241.646 277.860,240.878 278.400,240.629 278.400 C 240.380 278.400,239.917 278.760,239.600 279.200 C 239.283 279.640,238.793 280.000,238.512 280.000 C 238.230 280.000,238.000 280.150,238.000 280.332 C 238.000 280.515,237.505 280.920,236.900 281.232 C 236.295 281.545,235.451 282.115,235.025 282.500 C 234.598 282.885,234.013 283.200,233.725 283.200 C 233.436 283.200,233.200 283.359,233.200 283.553 C 233.200 283.748,232.885 284.007,232.500 284.129 C 231.815 284.346,229.596 285.604,229.200 286.000 C 228.562 286.638,218.809 291.600,218.194 291.600 C 217.867 291.600,217.600 291.780,217.600 292.000 C 217.600 292.220,217.328 292.400,216.995 292.400 C 216.662 292.400,216.032 292.580,215.595 292.800 C 215.158 293.020,214.442 293.380,214.005 293.600 C 213.568 293.820,212.938 294.000,212.605 294.000 C 212.272 294.000,212.000 294.180,212.000 294.400 C 212.000 294.620,211.651 294.800,211.224 294.800 C 210.797 294.800,210.336 294.980,210.200 295.200 C 210.064 295.420,209.513 295.600,208.976 295.600 C 208.439 295.600,208.000 295.780,208.000 296.000 C 208.000 296.220,207.638 296.400,207.195 296.400 C 206.752 296.400,206.032 296.580,205.595 296.800 C 205.158 297.020,204.442 297.380,204.005 297.600 C 203.568 297.820,202.859 298.000,202.429 298.000 C 201.999 298.000,201.536 298.180,201.400 298.400 C 201.264 298.620,200.623 298.800,199.976 298.800 C 199.329 298.800,198.800 298.980,198.800 299.200 C 198.800 299.420,198.271 299.600,197.624 299.600 C 196.977 299.600,196.336 299.780,196.200 300.000 C 196.064 300.220,195.333 300.400,194.576 300.400 C 193.819 300.400,193.200 300.580,193.200 300.800 C 193.200 301.020,192.581 301.200,191.824 301.200 C 191.067 301.200,190.336 301.380,190.200 301.600 C 190.064 301.820,189.369 302.000,188.656 302.000 C 187.943 302.000,187.189 302.163,186.980 302.361 C 186.771 302.560,185.790 302.821,184.800 302.942 C 183.810 303.063,181.920 303.359,180.600 303.599 C 171.619 305.234,165.032 305.726,152.200 305.720 C 141.069 305.715,136.627 305.456,129.400 304.390 C 127.860 304.163,125.790 303.875,124.800 303.750 C 123.810 303.625,122.829 303.360,122.620 303.161 C 122.411 302.963,121.477 302.800,120.544 302.800 C 119.611 302.800,118.736 302.620,118.600 302.400 C 118.464 302.180,117.744 302.000,117.000 302.000 C 116.256 302.000,115.536 301.820,115.400 301.600 C 115.264 301.380,114.533 301.200,113.776 301.200 C 113.019 301.200,112.400 301.020,112.400 300.800 C 112.400 300.580,111.781 300.400,111.024 300.400 C 110.267 300.400,109.536 300.220,109.400 300.000 C 109.264 299.780,108.724 299.600,108.200 299.600 C 107.676 299.600,107.136 299.420,107.000 299.200 C 106.864 298.980,106.223 298.800,105.576 298.800 C 104.929 298.800,104.400 298.620,104.400 298.400 C 104.400 298.180,103.860 298.000,103.200 298.000 C 102.540 298.000,102.000 297.820,102.000 297.600 C 102.000 297.380,101.638 297.200,101.195 297.200 C 100.752 297.200,100.032 297.020,99.595 296.800 C 99.158 296.580,98.442 296.220,98.005 296.000 C 97.568 295.780,96.938 295.600,96.605 295.600 C 96.272 295.600,96.000 295.420,96.000 295.200 C 96.000 294.980,95.460 294.800,94.800 294.800 C 94.140 294.800,93.600 294.620,93.600 294.400 C 93.600 294.180,93.240 294.000,92.800 294.000 C 92.360 294.000,92.000 293.820,92.000 293.600 C 92.000 293.380,91.640 293.200,91.200 293.200 C 90.760 293.200,90.400 293.020,90.400 292.800 C 90.400 292.580,90.128 292.400,89.795 292.400 C 89.462 292.400,88.877 292.251,88.495 292.068 C 84.464 290.144,78.158 286.984,78.000 286.810 C 77.890 286.689,76.945 286.158,75.900 285.632 C 74.855 285.105,74.000 284.566,74.000 284.435 C 74.000 284.303,73.505 283.970,72.900 283.694 C 68.848 281.847,69.363 280.605,74.000 281.041 C 80.962 281.695,92.463 281.246,99.800 280.033 C 106.306 278.958,113.327 277.400,114.495 276.773 C 114.877 276.568,115.541 276.400,115.971 276.400 C 116.401 276.400,116.864 276.220,117.000 276.000 C 117.136 275.780,117.687 275.600,118.224 275.600 C 118.761 275.600,119.200 275.420,119.200 275.200 C 119.200 274.980,119.740 274.800,120.400 274.800 C 121.060 274.800,121.600 274.620,121.600 274.400 C 121.600 274.180,121.960 274.000,122.400 274.000 C 122.840 274.000,123.200 273.820,123.200 273.600 C 123.200 273.380,123.639 273.200,124.176 273.200 C 124.713 273.200,125.264 273.020,125.400 272.800 C 125.536 272.580,125.997 272.400,126.424 272.400 C 126.851 272.400,127.200 272.220,127.200 272.000 C 127.200 271.780,127.560 271.600,128.000 271.600 C 128.440 271.600,128.800 271.420,128.800 271.200 C 128.800 270.980,129.160 270.800,129.600 270.800 C 130.040 270.800,130.401 270.665,130.401 270.500 C 130.402 270.335,131.392 269.750,132.600 269.200 C 133.808 268.650,134.798 268.065,134.799 267.900 C 134.799 267.735,134.983 267.600,135.207 267.600 C 135.431 267.600,136.736 266.914,138.107 266.076 C 139.478 265.237,141.041 264.292,141.580 263.976 C 142.674 263.333,142.628 263.365,145.400 261.294 L 147.400 259.800 143.900 259.684 C 141.975 259.621,140.400 259.421,140.400 259.240 C 140.400 259.060,139.421 258.811,138.225 258.687 C 134.370 258.290,122.506 253.451,120.800 251.581 C 120.690 251.460,119.970 250.929,119.200 250.400 C 118.430 249.871,117.710 249.331,117.600 249.200 C 117.490 249.069,116.782 248.530,116.028 248.002 C 113.901 246.515,108.274 240.445,106.014 237.200 C 105.477 236.430,104.940 235.710,104.819 235.600 C 104.432 235.247,103.158 233.023,102.929 232.300 C 102.807 231.915,102.548 231.600,102.353 231.600 C 102.159 231.600,102.000 231.240,102.000 230.800 C 102.000 230.360,101.820 230.000,101.600 230.000 C 101.380 230.000,101.200 229.764,101.200 229.475 C 101.200 229.186,100.840 228.205,100.400 227.294 C 99.960 226.384,99.600 225.371,99.600 225.043 C 99.600 224.715,99.420 224.336,99.200 224.200 C 98.704 223.894,98.692 222.790,99.176 222.026 C 99.463 221.572,99.661 221.553,100.120 221.934 C 100.963 222.633,118.464 222.410,118.701 221.697 C 118.802 221.394,118.375 221.095,117.626 220.945 C 116.943 220.809,116.286 220.540,116.168 220.348 C 116.050 220.157,115.620 220.000,115.214 220.000 C 114.808 220.000,113.784 219.660,112.938 219.244 C 108.342 216.985,107.600 216.575,107.600 216.301 C 107.600 216.135,107.240 216.000,106.800 216.000 C 106.360 216.000,106.000 215.820,106.000 215.600 C 106.000 215.380,105.764 215.200,105.475 215.200 C 105.187 215.200,104.564 214.840,104.092 214.400 C 103.620 213.960,103.090 213.600,102.915 213.600 C 102.739 213.600,101.831 212.880,100.897 212.000 C 99.963 211.120,99.090 210.400,98.958 210.400 C 98.216 210.400,90.400 201.728,90.400 200.904 C 90.400 200.627,90.250 200.400,90.068 200.400 C 89.885 200.400,89.480 199.905,89.168 199.300 C 88.855 198.695,88.285 197.851,87.900 197.425 C 87.515 196.998,87.200 196.413,87.200 196.125 C 87.200 195.836,87.020 195.600,86.800 195.600 C 86.580 195.600,86.400 195.240,86.400 194.800 C 86.400 194.360,86.220 194.000,86.000 194.000 C 85.780 194.000,85.600 193.640,85.600 193.200 C 85.600 192.760,85.420 192.400,85.200 192.400 C 84.980 192.400,84.800 192.128,84.800 191.795 C 84.800 191.462,84.620 190.832,84.400 190.395 C 84.180 189.958,83.820 189.242,83.600 188.805 C 83.380 188.368,83.200 187.659,83.200 187.229 C 83.200 186.799,83.020 186.336,82.800 186.200 C 82.580 186.064,82.400 185.524,82.400 185.000 C 82.400 184.476,82.239 183.948,82.042 183.826 C 81.845 183.705,81.581 182.929,81.454 182.103 C 81.327 181.276,81.031 179.430,80.796 178.000 C 79.270 168.703,79.698 167.553,83.919 169.599 C 85.394 170.313,87.050 171.077,87.600 171.296 C 88.150 171.514,88.913 171.852,89.295 172.047 C 89.677 172.241,90.341 172.400,90.771 172.400 C 91.201 172.400,91.664 172.580,91.800 172.800 C 91.936 173.020,92.667 173.200,93.424 173.200 C 94.181 173.200,94.800 173.380,94.800 173.600 C 94.800 173.820,95.689 174.000,96.776 174.000 C 97.863 174.000,98.864 174.180,99.000 174.400 C 99.136 174.620,99.997 174.800,100.913 174.800 L 102.578 174.800 101.589 174.117 C 98.933 172.281,91.200 164.312,91.200 163.410 C 91.200 163.172,90.840 162.717,90.400 162.400 C 89.960 162.083,89.600 161.543,89.600 161.200 C 89.600 160.857,89.240 160.317,88.800 160.000 C 88.360 159.683,88.000 159.103,88.000 158.712 C 88.000 158.320,87.820 158.000,87.600 158.000 C 87.380 158.000,87.200 157.655,87.200 157.233 C 87.200 156.812,87.065 156.407,86.900 156.333 C 86.610 156.204,85.113 153.245,84.303 151.200 C 84.085 150.650,83.748 149.887,83.553 149.505 C 83.359 149.123,83.200 148.459,83.200 148.029 C 83.200 147.599,83.020 147.136,82.800 147.000 C 82.580 146.864,82.400 146.133,82.400 145.376 C 82.400 144.619,82.237 144.000,82.039 144.000 C 81.652 144.000,81.415 142.333,80.822 135.459 C 80.434 130.965,80.798 123.903,81.607 120.200 C 81.848 119.100,82.144 117.613,82.266 116.896 C 82.388 116.179,82.649 115.494,82.844 115.373 C 83.040 115.252,83.200 114.801,83.200 114.371 C 83.200 113.941,83.380 113.232,83.600 112.795 C 83.820 112.358,84.180 111.642,84.400 111.205 C 84.620 110.768,84.800 110.138,84.800 109.805 C 84.800 109.472,84.980 109.200,85.200 109.200 C 85.420 109.200,85.600 108.840,85.600 108.400 C 85.600 107.960,85.780 107.600,86.000 107.600 C 86.220 107.600,86.400 107.240,86.400 106.800 C 86.400 106.360,86.580 106.000,86.800 106.000 C 87.020 106.000,87.200 105.652,87.200 105.227 C 87.200 103.845,88.822 103.738,89.903 105.049 C 94.249 110.318,108.673 124.800,109.575 124.800 C 109.714 124.800,110.451 125.347,111.214 126.016 C 112.911 127.505,120.791 133.313,122.418 134.274 C 123.068 134.658,123.600 135.114,123.600 135.286 C 123.600 135.459,123.878 135.600,124.217 135.600 C 124.556 135.600,125.220 135.960,125.692 136.400 C 126.164 136.840,126.787 137.200,127.075 137.200 C 127.364 137.200,127.600 137.380,127.600 137.600 C 127.600 137.820,127.836 138.000,128.125 138.000 C 128.413 138.000,129.036 138.360,129.508 138.800 C 129.980 139.240,130.644 139.600,130.983 139.600 C 131.322 139.600,131.600 139.780,131.600 140.000 C 131.600 140.220,131.960 140.400,132.400 140.400 C 132.840 140.400,133.200 140.546,133.200 140.725 C 133.200 140.904,133.830 141.298,134.600 141.600 C 135.370 141.902,136.000 142.252,136.000 142.377 C 136.000 142.502,136.495 142.817,137.100 143.077 C 138.772 143.796,142.365 145.379,144.600 146.382 C 145.700 146.876,147.050 147.463,147.600 147.687 C 148.150 147.910,148.913 148.252,149.295 148.447 C 149.677 148.641,150.262 148.800,150.595 148.800 C 150.928 148.800,151.200 148.980,151.200 149.200 C 151.200 149.420,151.562 149.600,152.005 149.600 C 152.448 149.600,153.168 149.780,153.605 150.000 C 154.042 150.220,154.758 150.580,155.195 150.800 C 155.632 151.020,156.341 151.200,156.771 151.200 C 157.201 151.200,157.664 151.380,157.800 151.600 C 157.936 151.820,158.476 152.000,159.000 152.000 C 159.524 152.000,160.064 152.180,160.200 152.400 C 160.336 152.620,160.977 152.800,161.624 152.800 C 162.271 152.800,162.800 152.980,162.800 153.200 C 162.800 153.420,163.329 153.600,163.976 153.600 C 164.623 153.600,165.264 153.780,165.400 154.000 C 165.536 154.220,166.166 154.400,166.800 154.400 C 167.434 154.400,168.064 154.580,168.200 154.800 C 168.336 155.020,169.157 155.200,170.024 155.200 C 170.891 155.200,171.600 155.380,171.600 155.600 C 171.600 155.820,172.309 156.000,173.176 156.000 C 174.043 156.000,174.864 156.180,175.000 156.400 C 175.136 156.620,176.137 156.800,177.224 156.800 C 178.311 156.800,179.200 156.980,179.200 157.200 C 179.200 157.420,180.179 157.600,181.376 157.600 C 182.573 157.600,183.664 157.780,183.800 158.000 C 183.936 158.220,185.387 158.400,187.024 158.400 C 188.741 158.400,190.000 158.569,190.000 158.800 C 190.000 159.037,191.481 159.200,193.643 159.200 C 196.963 159.200,197.258 159.138,196.977 158.500 C 195.859 155.960,195.999 141.921,197.195 136.600 C 197.442 135.500,197.744 134.013,197.866 133.296 C 197.988 132.579,198.249 131.894,198.444 131.773 C 198.640 131.652,198.800 131.113,198.800 130.576 C 198.800 130.039,198.980 129.600,199.200 129.600 C 199.420 129.600,199.600 129.161,199.600 128.624 C 199.600 128.087,199.780 127.536,200.000 127.400 C 200.220 127.264,200.400 126.803,200.400 126.376 C 200.400 125.949,200.580 125.600,200.800 125.600 C 201.020 125.600,201.200 125.240,201.200 124.800 C 201.200 124.360,201.380 124.000,201.600 124.000 C 201.820 124.000,202.000 123.640,202.000 123.200 C 202.000 122.760,202.180 122.400,202.400 122.400 C 202.620 122.400,202.800 122.122,202.800 121.783 C 202.800 121.444,203.160 120.780,203.600 120.308 C 204.040 119.836,204.400 119.213,204.400 118.925 C 204.400 118.636,204.580 118.400,204.800 118.400 C 205.020 118.400,205.201 118.175,205.202 117.900 C 205.203 117.625,205.743 116.825,206.402 116.122 C 207.061 115.419,207.600 114.726,207.600 114.582 C 207.600 114.438,208.185 113.730,208.900 113.008 C 209.615 112.286,211.202 110.630,212.428 109.327 C 213.653 108.024,215.273 106.523,216.028 105.992 C 216.782 105.461,217.632 104.802,217.915 104.527 C 218.198 104.253,218.963 103.713,219.615 103.328 C 220.267 102.943,220.800 102.486,220.800 102.314 C 220.800 102.141,221.145 102.000,221.567 102.000 C 221.988 102.000,222.393 101.851,222.467 101.668 C 222.596 101.345,226.891 99.061,228.700 98.352 C 230.082 97.811,231.508 97.238,232.500 96.826 C 238.251 94.434,250.212 93.379,257.704 94.604 " stroke="none" fill="#04acf4" fill-rule="evenodd"></path><path id="path2" d="M247.715 94.696 C 248.988 94.776,250.968 94.775,252.115 94.694 C 253.262 94.614,252.220 94.549,249.800 94.550 C 247.380 94.551,246.442 94.616,247.715 94.696 M258.433 95.344 C 258.525 95.423,259.140 95.608,259.800 95.756 C 260.676 95.952,260.838 95.915,260.400 95.618 C 259.860 95.253,258.032 94.998,258.433 95.344 M277.000 102.207 C 277.440 102.566,278.160 103.035,278.600 103.251 L 279.400 103.644 278.600 102.993 C 278.160 102.634,277.440 102.165,277.000 101.949 L 276.200 101.556 277.000 102.207 M309.200 105.000 C 308.650 105.314,308.380 105.572,308.600 105.572 C 308.820 105.572,309.450 105.314,310.000 105.000 C 310.550 104.686,310.820 104.428,310.600 104.428 C 310.380 104.428,309.750 104.686,309.200 105.000 M286.633 109.534 C 288.612 111.600,288.704 111.646,290.033 111.230 L 291.400 110.803 290.020 111.007 C 288.797 111.189,288.409 110.995,286.620 109.311 L 284.600 107.410 286.633 109.534 M212.000 110.200 C 211.028 111.190,210.323 112.000,210.433 112.000 C 210.543 112.000,211.428 111.190,212.400 110.200 C 213.372 109.210,214.077 108.400,213.967 108.400 C 213.857 108.400,212.972 109.210,212.000 110.200 M98.400 115.400 C 101.143 118.150,103.478 120.400,103.588 120.400 C 103.698 120.400,101.543 118.150,98.800 115.400 C 96.057 112.650,93.722 110.400,93.612 110.400 C 93.502 110.400,95.657 112.650,98.400 115.400 M81.293 125.200 C 81.293 125.970,81.375 126.285,81.476 125.900 C 81.576 125.515,81.576 124.885,81.476 124.500 C 81.375 124.115,81.293 124.430,81.293 125.200 M300.215 127.576 C 300.076 127.801,300.591 127.859,301.491 127.720 C 303.500 127.410,303.661 127.200,301.890 127.200 C 301.097 127.200,300.343 127.369,300.215 127.576 M316.191 136.100 L 313.000 139.400 316.300 136.209 C 318.115 134.455,319.600 132.970,319.600 132.909 C 319.600 132.618,319.154 133.035,316.191 136.100 M309.775 142.100 L 308.600 143.400 309.900 142.225 C 310.615 141.579,311.200 140.994,311.200 140.925 C 311.200 140.616,310.870 140.888,309.775 142.100 M303.351 153.600 C 303.351 156.130,303.416 157.165,303.496 155.900 C 303.575 154.635,303.575 152.565,303.496 151.300 C 303.416 150.035,303.351 151.070,303.351 153.600 M184.500 158.676 C 184.885 158.776,185.515 158.776,185.900 158.676 C 186.285 158.575,185.970 158.493,185.200 158.493 C 184.430 158.493,184.115 158.575,184.500 158.676 M191.107 159.490 C 191.826 159.579,192.906 159.577,193.507 159.486 C 194.108 159.395,193.520 159.322,192.200 159.324 C 190.880 159.326,190.388 159.401,191.107 159.490 M195.700 159.876 C 196.085 159.976,196.715 159.976,197.100 159.876 C 197.485 159.775,197.170 159.693,196.400 159.693 C 195.630 159.693,195.315 159.775,195.700 159.876 M302.909 166.000 C 302.909 166.990,302.987 167.395,303.082 166.900 C 303.178 166.405,303.178 165.595,303.082 165.100 C 302.987 164.605,302.909 165.010,302.909 166.000 M80.550 169.787 C 80.426 170.110,80.417 170.605,80.531 170.887 C 80.644 171.169,80.751 171.008,80.768 170.528 C 80.789 169.955,81.109 169.596,81.700 169.482 L 82.600 169.309 81.687 169.254 C 81.186 169.225,80.674 169.464,80.550 169.787 M80.901 173.400 C 80.905 174.280,80.987 174.593,81.083 174.095 C 81.179 173.598,81.175 172.878,81.075 172.495 C 80.975 172.113,80.896 172.520,80.901 173.400 M99.900 175.082 C 100.395 175.178,101.205 175.178,101.700 175.082 C 102.195 174.987,101.790 174.909,100.800 174.909 C 99.810 174.909,99.405 174.987,99.900 175.082 M81.206 178.233 C 81.209 178.655,81.395 179.270,81.618 179.600 C 81.915 180.038,81.952 179.876,81.756 179.000 C 81.427 177.529,81.198 177.210,81.206 178.233 M107.700 223.487 C 108.305 223.578,109.295 223.578,109.900 223.487 C 110.505 223.395,110.010 223.320,108.800 223.320 C 107.590 223.320,107.095 223.395,107.700 223.487 M104.609 234.226 C 104.981 234.901,105.641 235.891,106.076 236.426 L 106.867 237.400 106.191 236.174 C 105.819 235.499,105.159 234.509,104.724 233.974 L 103.933 233.000 104.609 234.226 M277.014 239.435 C 276.641 240.004,276.405 240.538,276.489 240.622 C 276.573 240.707,276.958 240.241,277.344 239.588 C 278.206 238.128,277.948 238.009,277.014 239.435 M112.000 243.800 C 112.746 244.570,113.447 245.200,113.557 245.200 C 113.667 245.200,113.146 244.570,112.400 243.800 C 111.654 243.030,110.953 242.400,110.843 242.400 C 110.733 242.400,111.254 243.030,112.000 243.800 M267.375 252.500 L 266.200 253.800 267.500 252.625 C 268.215 251.979,268.800 251.394,268.800 251.325 C 268.800 251.016,268.470 251.288,267.375 252.500 M261.586 259.100 L 259.400 261.400 261.700 259.214 C 263.837 257.182,264.183 256.800,263.886 256.800 C 263.824 256.800,262.789 257.835,261.586 259.100 M144.505 259.487 C 145.114 259.579,146.014 259.577,146.505 259.482 C 146.997 259.387,146.500 259.311,145.400 259.314 C 144.300 259.317,143.897 259.395,144.505 259.487 M254.987 265.700 L 252.600 268.200 255.100 265.813 C 256.475 264.499,257.600 263.374,257.600 263.313 C 257.600 263.017,257.205 263.378,254.987 265.700 M250.175 270.100 L 249.000 271.400 250.300 270.225 C 251.015 269.579,251.600 268.994,251.600 268.925 C 251.600 268.616,251.270 268.888,250.175 270.100 M239.800 278.235 L 238.600 279.266 239.900 278.406 C 240.615 277.933,241.200 277.468,241.200 277.373 C 241.200 277.073,241.031 277.178,239.800 278.235 M103.400 280.000 C 102.896 280.217,102.822 280.344,103.200 280.344 C 103.530 280.344,104.160 280.189,104.600 280.000 C 105.104 279.783,105.178 279.656,104.800 279.656 C 104.470 279.656,103.840 279.811,103.400 280.000 M71.200 281.551 C 71.200 281.744,71.515 282.149,71.900 282.451 C 72.528 282.943,72.546 282.931,72.075 282.329 C 71.614 281.740,71.687 281.637,72.675 281.489 C 73.753 281.327,73.746 281.317,72.500 281.260 C 71.785 281.227,71.200 281.358,71.200 281.551 M91.200 281.600 C 89.551 281.856,89.517 281.883,90.800 281.917 C 91.570 281.937,92.920 281.805,93.800 281.623 C 95.866 281.196,93.912 281.178,91.200 281.600 M180.600 302.800 C 180.096 303.017,180.022 303.144,180.400 303.144 C 180.730 303.144,181.360 302.989,181.800 302.800 C 182.304 302.583,182.378 302.456,182.000 302.456 C 181.670 302.456,181.040 302.611,180.600 302.800 M127.800 303.600 C 128.240 303.789,128.960 303.938,129.400 303.932 C 130.043 303.923,130.004 303.857,129.200 303.600 C 127.832 303.162,126.781 303.162,127.800 303.600 M176.000 303.600 C 175.208 303.854,175.167 303.920,175.800 303.920 C 176.240 303.920,177.050 303.776,177.600 303.600 C 178.392 303.346,178.433 303.280,177.800 303.280 C 177.360 303.280,176.550 303.424,176.000 303.600 M133.600 304.380 C 134.599 304.720,137.082 304.932,136.767 304.651 C 136.675 304.569,135.700 304.399,134.600 304.272 C 133.251 304.116,132.926 304.151,133.600 304.380 M168.500 304.676 C 168.885 304.776,169.515 304.776,169.900 304.676 C 170.285 304.575,169.970 304.493,169.200 304.493 C 168.430 304.493,168.115 304.575,168.500 304.676 M141.100 305.082 C 141.595 305.178,142.405 305.178,142.900 305.082 C 143.395 304.987,142.990 304.909,142.000 304.909 C 141.010 304.909,140.605 304.987,141.100 305.082 M161.905 305.083 C 162.402 305.179,163.122 305.175,163.505 305.075 C 163.887 304.975,163.480 304.896,162.600 304.901 C 161.720 304.905,161.407 304.987,161.905 305.083 M148.122 305.499 C 150.499 305.570,154.279 305.569,156.522 305.498 C 158.765 305.427,156.820 305.369,152.200 305.369 C 147.580 305.370,145.745 305.428,148.122 305.499 " stroke="none" fill="#63cafa" fill-rule="evenodd"></path><path id="path3" d="M243.400 95.163 C 242.300 95.293,245.270 95.400,250.000 95.400 C 254.730 95.400,257.610 95.283,256.400 95.140 C 253.729 94.823,246.149 94.837,243.400 95.163 M239.000 95.857 C 236.791 96.308,231.410 98.019,228.910 99.063 C 226.742 99.969,227.437 100.053,229.700 99.158 C 232.744 97.954,236.049 96.940,239.800 96.059 C 241.339 95.697,240.641 95.521,239.000 95.857 M258.846 95.779 C 259.050 95.984,261.606 96.571,264.200 97.010 C 265.029 97.150,264.895 97.044,263.766 96.668 C 261.954 96.064,258.508 95.441,258.846 95.779 M265.768 97.548 C 265.886 97.740,266.525 98.005,267.188 98.138 C 267.850 98.270,270.329 99.292,272.695 100.408 C 275.061 101.524,276.818 102.268,276.599 102.061 C 275.824 101.329,270.525 98.812,267.650 97.810 C 265.615 97.101,265.480 97.082,265.768 97.548 M320.300 99.843 C 319.695 100.163,319.200 100.514,319.200 100.623 C 319.200 100.732,319.740 100.541,320.400 100.200 C 321.060 99.859,321.600 99.652,321.600 99.741 C 321.600 100.013,319.521 104.926,318.909 106.100 C 318.823 106.265,318.849 106.400,318.966 106.400 C 319.084 106.400,319.526 105.635,319.949 104.700 C 322.279 99.544,322.336 98.764,320.300 99.843 M224.400 101.247 C 223.190 101.919,222.020 102.662,221.800 102.897 C 221.472 103.248,226.620 100.604,227.167 100.141 C 227.804 99.601,226.231 100.230,224.400 101.247 M317.000 101.627 C 316.340 102.050,315.944 102.397,316.120 102.398 C 316.560 102.401,318.800 101.224,318.800 100.990 C 318.800 100.642,318.212 100.851,317.000 101.627 M313.870 103.079 C 313.248 103.405,312.826 103.760,312.933 103.866 C 313.142 104.076,315.600 102.900,315.600 102.590 C 315.600 102.292,315.094 102.435,313.870 103.079 M278.600 103.448 C 278.820 103.665,280.071 104.643,281.381 105.621 C 282.690 106.600,284.891 108.451,286.271 109.737 C 288.611 111.916,288.855 112.044,289.890 111.641 L 291.000 111.209 289.792 111.416 C 288.772 111.591,288.338 111.368,286.992 109.978 C 285.240 108.167,281.276 104.936,279.400 103.788 C 278.740 103.384,278.380 103.231,278.600 103.448 M88.097 105.300 C 87.537 106.000,85.996 109.102,86.019 109.484 C 86.030 109.658,86.594 108.724,87.272 107.408 L 88.506 105.016 89.885 106.608 C 90.643 107.484,91.654 108.693,92.132 109.296 C 92.609 109.899,93.143 110.394,93.318 110.396 C 93.675 110.400,89.142 104.880,88.749 104.831 C 88.611 104.814,88.318 105.025,88.097 105.300 M215.158 107.724 C 211.683 110.767,207.638 115.200,208.336 115.200 C 208.554 115.200,208.793 115.045,208.867 114.856 C 209.415 113.445,216.192 106.828,218.296 105.650 C 218.680 105.436,218.886 105.153,218.755 105.021 C 218.623 104.890,217.005 106.106,215.158 107.724 M300.800 108.400 C 299.976 108.664,299.941 108.726,300.600 108.754 C 301.040 108.773,301.670 108.613,302.000 108.400 C 302.701 107.947,302.214 107.947,300.800 108.400 M317.170 109.266 C 316.898 109.780,316.413 110.605,316.092 111.100 C 315.771 111.595,315.595 112.000,315.701 112.000 C 316.036 112.000,318.069 108.736,317.862 108.529 C 317.754 108.420,317.442 108.752,317.170 109.266 M298.200 109.200 C 297.429 109.531,297.431 109.545,298.276 109.572 C 298.758 109.587,299.264 109.420,299.400 109.200 C 299.692 108.727,299.301 108.727,298.200 109.200 M295.400 110.000 L 294.600 110.344 295.400 110.366 C 295.840 110.378,296.470 110.213,296.800 110.000 C 297.595 109.486,296.596 109.486,295.400 110.000 M85.023 111.406 C 84.122 113.564,84.311 114.128,85.237 112.042 C 85.666 111.075,85.934 110.200,85.832 110.098 C 85.730 109.997,85.366 110.585,85.023 111.406 M292.200 110.800 C 291.093 111.082,291.077 111.109,292.000 111.147 C 292.550 111.169,293.270 111.013,293.600 110.800 C 294.281 110.360,293.929 110.360,292.200 110.800 M96.064 113.423 C 99.421 116.983,104.800 122.208,104.800 121.909 C 104.800 121.717,94.439 111.376,93.670 110.800 C 93.523 110.690,94.600 111.870,96.064 113.423 M314.320 113.500 C 313.381 115.084,311.338 117.468,308.725 120.032 C 306.651 122.067,305.101 123.324,300.666 126.570 C 298.764 127.962,299.171 128.714,301.467 128.055 L 303.000 127.614 301.400 127.789 L 299.800 127.963 300.846 127.082 C 301.421 126.597,302.861 125.483,304.046 124.608 C 307.968 121.708,316.558 112.400,315.311 112.400 C 315.125 112.400,314.679 112.895,314.320 113.500 M206.724 116.900 C 205.493 118.548,203.880 121.200,204.109 121.200 C 204.204 121.200,205.120 119.940,206.145 118.400 C 208.082 115.486,208.406 114.648,206.724 116.900 M83.049 117.015 C 82.912 117.373,82.816 118.056,82.836 118.533 C 82.862 119.147,82.985 119.008,83.259 118.056 C 83.657 116.672,83.494 115.858,83.049 117.015 M82.225 120.859 C 81.019 128.012,80.884 133.394,81.774 138.800 C 82.432 142.796,83.230 146.103,83.478 145.856 C 83.574 145.759,83.441 144.898,83.183 143.940 C 81.610 138.113,81.215 130.025,82.190 123.616 C 82.507 121.535,82.695 119.762,82.609 119.675 C 82.522 119.589,82.350 120.122,82.225 120.859 M326.800 120.841 C 326.318 121.185,326.377 121.231,327.100 121.072 C 328.011 120.873,328.336 121.345,327.600 121.800 C 327.380 121.936,327.204 122.262,327.209 122.524 C 327.218 123.020,328.776 121.226,328.791 120.700 C 328.804 120.255,327.490 120.348,326.800 120.841 M105.222 122.269 C 105.245 122.603,109.600 126.183,109.600 125.867 C 109.600 125.774,108.610 124.851,107.400 123.818 C 106.190 122.784,105.210 122.087,105.222 122.269 M202.181 124.437 C 201.829 125.118,201.612 125.745,201.699 125.832 C 201.786 125.919,202.156 125.362,202.522 124.595 C 203.344 122.870,203.059 122.738,202.181 124.437 M325.653 124.442 C 325.132 125.101,324.779 125.712,324.868 125.801 C 324.957 125.890,325.526 125.341,326.132 124.581 C 326.738 123.822,327.091 123.210,326.917 123.222 C 326.743 123.234,326.174 123.783,325.653 124.442 M317.800 124.000 C 317.029 124.331,317.031 124.345,317.876 124.372 C 318.358 124.387,318.864 124.220,319.000 124.000 C 319.292 123.527,318.901 123.527,317.800 124.000 M315.200 124.800 C 314.376 125.064,314.341 125.126,315.000 125.154 C 315.440 125.173,316.070 125.013,316.400 124.800 C 317.101 124.347,316.614 124.347,315.200 124.800 M312.000 125.600 L 311.000 125.920 312.000 125.954 C 312.550 125.973,313.270 125.813,313.600 125.600 C 314.364 125.106,313.542 125.106,312.000 125.600 M110.000 126.229 C 110.000 126.511,110.417 126.879,112.500 128.433 C 114.263 129.749,113.768 129.034,111.800 127.421 C 110.810 126.610,110.000 126.074,110.000 126.229 M308.800 126.400 L 307.800 126.720 308.800 126.754 C 309.350 126.773,310.070 126.613,310.400 126.400 C 311.164 125.906,310.342 125.906,308.800 126.400 M200.623 127.806 C 199.722 129.964,199.911 130.528,200.837 128.442 C 201.266 127.475,201.534 126.600,201.432 126.498 C 201.330 126.397,200.966 126.985,200.623 127.806 M322.460 128.649 C 321.503 129.861,320.783 130.903,320.860 130.965 C 320.937 131.027,321.861 130.025,322.913 128.739 C 323.965 127.452,324.685 126.410,324.513 126.422 C 324.341 126.435,323.417 127.436,322.460 128.649 M304.600 127.200 L 303.000 127.486 304.400 127.515 C 305.170 127.531,306.160 127.389,306.600 127.200 C 307.543 126.795,306.862 126.795,304.600 127.200 M115.600 130.728 C 116.590 131.615,117.940 132.635,118.600 132.994 C 120.028 133.770,119.561 133.368,115.890 130.657 L 113.800 129.115 115.600 130.728 M199.098 132.284 C 197.509 137.324,196.804 142.572,196.880 148.800 L 196.946 154.200 197.223 147.800 C 197.524 140.834,197.954 137.688,199.185 133.426 C 200.093 130.283,200.022 129.354,199.098 132.284 M315.563 136.100 C 313.012 138.685,311.035 140.800,311.169 140.800 C 311.520 140.800,320.596 131.649,320.380 131.513 C 320.281 131.451,318.113 133.515,315.563 136.100 M120.894 134.490 C 122.082 135.500,124.400 136.947,124.400 136.679 C 124.400 136.588,123.365 135.849,122.100 135.037 C 120.835 134.225,120.292 133.979,120.894 134.490 M124.800 136.937 C 124.800 137.177,127.941 139.202,128.291 139.187 C 128.461 139.180,128.240 138.897,127.800 138.557 C 126.844 137.818,124.800 136.715,124.800 136.937 M129.561 139.899 C 130.710 140.738,135.157 143.200,135.521 143.200 C 135.947 143.200,134.362 142.227,131.400 140.670 C 129.860 139.861,129.032 139.514,129.561 139.899 M308.613 142.521 C 307.741 143.224,306.481 144.318,305.813 144.952 L 304.600 146.104 305.800 145.274 C 307.180 144.320,310.699 141.232,310.400 141.238 C 310.290 141.240,309.486 141.818,308.613 142.521 M136.800 143.967 C 137.350 144.415,138.055 144.786,138.367 144.791 C 139.094 144.803,138.912 144.652,137.200 143.827 L 135.800 143.152 136.800 143.967 M140.800 145.747 C 140.800 145.948,144.449 147.731,145.721 148.152 C 146.145 148.293,146.341 148.228,146.197 147.995 C 146.063 147.778,145.781 147.600,145.572 147.600 C 145.263 147.600,142.380 146.382,141.100 145.710 C 140.935 145.624,140.800 145.640,140.800 145.747 M303.462 146.731 C 302.896 147.357,302.799 148.558,302.792 155.031 C 302.788 159.194,302.521 165.030,302.200 168.000 C 301.579 173.737,301.497 175.036,301.770 174.763 C 302.277 174.256,303.200 161.500,303.200 154.995 C 303.200 148.548,303.295 147.358,303.862 146.731 C 304.226 146.329,304.434 146.000,304.324 146.000 C 304.214 146.000,303.826 146.329,303.462 146.731 M83.619 146.831 C 83.586 147.927,87.105 156.228,87.456 155.878 C 87.566 155.768,87.255 154.895,86.766 153.939 C 86.276 152.982,85.372 150.850,84.757 149.200 C 84.142 147.550,83.630 146.484,83.619 146.831 M148.338 149.244 C 149.293 149.691,150.174 149.959,150.295 149.838 C 150.416 149.718,150.174 149.511,149.757 149.380 C 149.341 149.249,148.687 148.975,148.305 148.771 C 147.923 148.567,147.383 148.407,147.105 148.415 C 146.827 148.423,147.382 148.796,148.338 149.244 M155.600 152.000 C 155.930 152.213,156.470 152.388,156.800 152.388 C 157.333 152.388,157.333 152.345,156.800 152.000 C 156.470 151.787,155.930 151.612,155.600 151.612 C 155.067 151.612,155.067 151.655,155.600 152.000 M160.400 153.600 C 160.730 153.813,161.270 153.988,161.600 153.988 C 162.133 153.988,162.133 153.945,161.600 153.600 C 161.270 153.387,160.730 153.212,160.400 153.212 C 159.867 153.212,159.867 153.255,160.400 153.600 M163.200 154.400 C 163.530 154.613,164.070 154.788,164.400 154.788 C 164.933 154.788,164.933 154.745,164.400 154.400 C 164.070 154.187,163.530 154.012,163.200 154.012 C 162.667 154.012,162.667 154.055,163.200 154.400 M197.495 157.138 L 197.722 160.077 194.961 159.857 C 193.153 159.713,192.614 159.753,193.400 159.971 C 194.060 160.155,195.365 160.327,196.300 160.353 L 198.000 160.400 197.960 158.300 C 197.938 157.145,197.773 155.750,197.594 155.200 C 197.401 154.609,197.361 155.403,197.495 157.138 M165.800 155.200 C 165.936 155.420,166.442 155.587,166.924 155.572 C 167.769 155.545,167.771 155.531,167.000 155.200 C 165.899 154.727,165.508 154.727,165.800 155.200 M169.000 156.000 C 170.196 156.514,171.195 156.514,170.400 156.000 C 170.070 155.787,169.440 155.622,169.000 155.634 L 168.200 155.656 169.000 156.000 M87.609 156.700 C 87.614 156.865,87.985 157.450,88.433 158.000 L 89.248 159.000 88.614 157.700 C 88.011 156.465,87.589 156.045,87.609 156.700 M172.400 156.800 C 172.730 157.013,173.360 157.178,173.800 157.166 L 174.600 157.144 173.800 156.800 C 172.604 156.286,171.605 156.286,172.400 156.800 M176.400 157.600 C 176.730 157.813,177.450 157.973,178.000 157.954 L 179.000 157.920 178.000 157.600 C 176.458 157.106,175.636 157.106,176.400 157.600 M180.400 158.397 C 180.941 158.750,184.364 158.999,183.967 158.656 C 183.875 158.577,182.900 158.399,181.800 158.259 C 180.435 158.086,179.990 158.130,180.400 158.397 M185.800 159.179 C 186.556 159.524,190.321 159.769,189.967 159.450 C 189.875 159.368,188.720 159.191,187.400 159.057 C 185.816 158.896,185.272 158.938,185.800 159.179 M89.877 160.431 C 90.275 161.108,90.856 161.873,91.168 162.131 C 91.480 162.389,91.232 161.835,90.615 160.900 C 89.320 158.937,88.809 158.612,89.877 160.431 M92.800 164.333 C 92.800 164.960,98.057 170.297,100.746 172.400 C 104.065 174.996,104.113 175.114,101.900 175.287 L 100.200 175.420 102.130 175.760 C 105.039 176.272,105.236 175.615,102.763 173.646 C 100.122 171.544,97.137 168.750,94.700 166.100 C 93.655 164.964,92.800 164.169,92.800 164.333 M80.800 170.800 C 80.800 171.460,80.870 172.000,80.955 172.000 C 81.040 172.000,81.188 171.460,81.285 170.800 C 81.382 170.140,81.313 169.600,81.131 169.600 C 80.949 169.600,80.800 170.140,80.800 170.800 M82.000 169.790 C 82.000 170.095,84.456 171.277,84.662 171.071 C 84.765 170.968,84.271 170.595,83.563 170.242 C 82.176 169.550,82.000 169.499,82.000 169.790 M81.264 174.600 C 81.177 177.344,82.753 184.449,84.347 188.500 C 85.311 190.948,85.029 189.356,83.816 185.500 C 82.644 181.774,81.816 177.729,81.461 174.000 C 81.363 172.971,81.311 173.129,81.264 174.600 M89.800 173.200 C 89.936 173.420,90.442 173.587,90.924 173.572 C 91.769 173.545,91.771 173.531,91.000 173.200 C 89.899 172.727,89.508 172.727,89.800 173.200 M92.400 174.000 C 92.730 174.213,93.360 174.378,93.800 174.366 L 94.600 174.344 93.800 174.000 C 92.604 173.486,91.605 173.486,92.400 174.000 M95.800 174.780 C 96.561 175.126,99.517 175.364,99.167 175.051 C 99.075 174.969,98.100 174.793,97.000 174.659 C 95.654 174.495,95.261 174.535,95.800 174.780 M301.046 177.147 C 300.889 178.327,300.846 179.379,300.950 179.483 C 301.217 179.750,301.722 176.164,301.507 175.525 C 301.411 175.236,301.203 175.966,301.046 177.147 M300.254 181.554 C 300.100 182.518,300.058 183.391,300.161 183.494 C 300.430 183.763,300.915 180.945,300.707 180.322 C 300.612 180.036,300.408 180.590,300.254 181.554 M299.400 186.000 C 299.248 186.691,299.207 187.341,299.309 187.442 C 299.411 187.544,299.609 187.053,299.750 186.350 C 300.083 184.683,299.760 184.360,299.400 186.000 M298.629 189.029 C 298.481 189.615,298.451 190.184,298.561 190.294 C 298.671 190.404,298.881 190.015,299.029 189.429 C 299.176 188.842,299.206 188.273,299.096 188.163 C 298.986 188.053,298.776 188.442,298.629 189.029 M297.800 192.400 C 297.648 193.091,297.607 193.741,297.709 193.842 C 297.811 193.944,298.009 193.453,298.150 192.750 C 298.483 191.083,298.160 190.760,297.800 192.400 M297.000 195.200 C 296.850 195.673,296.817 196.150,296.927 196.260 C 297.037 196.370,297.250 196.073,297.400 195.600 C 297.550 195.127,297.583 194.650,297.473 194.540 C 297.363 194.430,297.150 194.727,297.000 195.200 M87.613 195.309 C 87.598 195.659,89.623 198.800,89.863 198.800 C 90.085 198.800,88.982 196.756,88.243 195.800 C 87.903 195.360,87.620 195.139,87.613 195.309 M91.275 201.087 C 92.705 203.125,99.228 210.106,99.473 209.861 C 99.554 209.779,98.299 208.382,96.683 206.756 C 95.068 205.130,92.987 202.765,92.060 201.500 C 90.040 198.743,89.389 198.401,91.275 201.087 M100.000 210.142 C 100.000 210.532,105.617 214.579,108.049 215.941 C 111.658 217.962,111.320 217.389,107.600 215.181 C 105.730 214.071,103.480 212.601,102.600 211.914 C 100.046 209.921,100.000 209.890,100.000 210.142 M291.373 211.443 C 291.238 211.859,290.934 212.605,290.696 213.099 C 290.459 213.594,290.363 214.097,290.483 214.216 C 290.602 214.335,291.000 213.683,291.367 212.767 C 291.733 211.850,291.940 211.007,291.826 210.893 C 291.712 210.779,291.508 211.026,291.373 211.443 M289.201 216.599 C 288.072 219.077,287.586 220.400,287.805 220.400 C 287.906 220.400,288.262 219.770,288.595 219.000 C 288.928 218.230,289.472 216.970,289.805 216.200 C 290.696 214.140,290.160 214.493,289.201 216.599 M111.200 217.395 C 111.200 217.605,113.935 218.811,114.349 218.783 C 114.670 218.762,111.901 217.239,111.500 217.217 C 111.335 217.208,111.200 217.288,111.200 217.395 M116.000 219.491 C 116.770 219.835,118.570 220.433,120.000 220.819 C 122.775 221.569,122.775 221.467,120.000 222.511 C 119.514 222.694,119.529 222.743,120.081 222.768 C 123.267 222.916,123.197 221.261,119.982 220.397 C 118.562 220.016,116.893 219.500,116.274 219.252 C 114.599 218.580,114.383 218.768,116.000 219.491 M286.386 222.698 C 285.868 223.744,285.379 224.735,285.298 224.900 C 285.218 225.065,285.237 225.200,285.341 225.200 C 285.592 225.200,287.628 221.095,287.460 220.927 C 287.388 220.854,286.904 221.651,286.386 222.698 M101.400 223.194 C 102.153 223.523,107.125 223.766,106.767 223.456 C 106.675 223.376,105.250 223.206,103.600 223.077 C 101.747 222.933,100.906 222.978,101.400 223.194 M113.400 223.200 L 110.600 223.459 113.600 223.501 C 115.250 223.525,116.960 223.389,117.400 223.200 C 118.358 222.788,117.855 222.788,113.400 223.200 M284.186 226.900 L 283.552 228.200 284.367 227.200 C 285.152 226.237,285.408 225.600,285.010 225.600 C 284.906 225.600,284.535 226.185,284.186 226.900 M100.818 226.051 C 100.780 226.580,102.057 229.276,102.252 229.081 C 102.365 228.968,102.093 228.184,101.647 227.338 C 101.200 226.492,100.827 225.913,100.818 226.051 M281.814 231.035 C 281.441 231.604,281.227 232.161,281.339 232.272 C 281.450 232.383,281.829 231.918,282.181 231.237 C 282.959 229.733,282.744 229.615,281.814 231.035 M279.428 235.038 C 278.610 236.268,278.024 237.358,278.125 237.459 C 278.226 237.560,278.723 236.958,279.230 236.121 C 279.737 235.284,280.408 234.195,280.722 233.700 C 281.940 231.777,280.832 232.923,279.428 235.038 M106.607 236.800 C 108.076 239.514,115.399 246.937,118.800 249.159 L 120.200 250.073 119.156 249.137 C 118.582 248.622,117.349 247.583,116.416 246.829 C 114.252 245.081,110.221 241.015,108.855 239.200 C 107.544 237.461,106.171 235.995,106.607 236.800 M275.269 241.239 C 274.510 242.454,274.966 242.616,275.755 241.412 C 276.120 240.856,276.278 240.400,276.105 240.400 C 275.933 240.400,275.557 240.778,275.269 241.239 M273.510 243.922 C 273.145 244.539,271.368 246.924,269.560 249.222 C 267.752 251.520,266.670 253.049,267.157 252.620 C 267.643 252.190,269.325 250.120,270.896 248.020 C 272.466 245.919,274.015 243.885,274.338 243.500 C 274.660 243.115,274.755 242.800,274.548 242.800 C 274.342 242.800,273.874 243.305,273.510 243.922 M121.200 250.753 C 124.029 253.025,135.573 258.160,136.274 257.459 C 136.368 257.365,135.400 256.970,134.122 256.581 C 131.584 255.807,125.868 253.187,122.400 251.207 C 121.190 250.516,120.650 250.312,121.200 250.753 M262.972 257.100 C 261.253 259.025,260.616 259.880,261.557 259.000 C 263.348 257.326,266.611 253.600,266.286 253.600 C 266.183 253.600,264.692 255.175,262.972 257.100 M136.833 257.747 C 136.925 257.828,137.720 258.014,138.600 258.162 C 139.746 258.354,140.030 258.314,139.600 258.021 C 139.060 257.653,136.432 257.393,136.833 257.747 M140.433 258.546 C 140.525 258.626,141.590 258.800,142.800 258.932 C 144.237 259.088,144.722 259.048,144.200 258.814 C 143.443 258.475,140.079 258.236,140.433 258.546 M147.754 259.552 C 148.701 259.924,147.360 261.039,141.140 265.052 C 135.589 268.633,134.984 269.070,137.400 267.754 C 139.251 266.747,146.493 261.952,148.100 260.670 C 149.072 259.895,148.975 259.195,147.900 259.228 C 147.093 259.253,147.078 259.287,147.754 259.552 M253.000 267.022 C 251.240 268.663,248.592 270.950,247.116 272.103 C 245.639 273.256,244.424 274.347,244.416 274.528 C 244.407 274.708,245.780 273.718,247.467 272.328 C 250.616 269.731,256.757 264.031,256.400 264.035 C 256.290 264.036,254.760 265.380,253.000 267.022 M131.000 270.838 C 129.020 271.901,127.539 272.777,127.708 272.785 C 128.140 272.806,135.200 269.235,135.200 268.996 C 135.200 268.639,134.633 268.888,131.000 270.838 M123.200 274.400 C 122.210 274.815,121.603 275.165,121.851 275.178 C 122.418 275.206,125.200 274.057,125.200 273.795 C 125.200 273.548,125.312 273.514,123.200 274.400 M242.505 275.725 C 241.793 276.206,241.208 276.747,241.205 276.927 C 241.199 277.288,243.435 275.790,243.812 275.181 C 244.134 274.660,243.996 274.717,242.505 275.725 M117.800 276.400 C 117.029 276.731,117.031 276.745,117.876 276.772 C 118.358 276.787,118.864 276.620,119.000 276.400 C 119.292 275.927,118.901 275.927,117.800 276.400 M115.400 277.200 C 114.629 277.531,114.631 277.545,115.476 277.572 C 115.958 277.587,116.464 277.420,116.600 277.200 C 116.892 276.727,116.501 276.727,115.400 277.200 M112.800 278.000 C 111.976 278.264,111.941 278.326,112.600 278.354 C 113.040 278.373,113.670 278.213,114.000 278.000 C 114.701 277.547,114.214 277.547,112.800 278.000 M236.890 279.766 C 233.827 281.866,233.265 282.421,235.400 281.240 C 236.890 280.416,240.047 278.006,239.600 278.034 C 239.490 278.041,238.271 278.820,236.890 279.766 M110.000 278.800 C 109.176 279.064,109.141 279.126,109.800 279.154 C 110.240 279.173,110.870 279.013,111.200 278.800 C 111.901 278.347,111.414 278.347,110.000 278.800 M106.200 279.647 C 105.320 279.842,103.378 280.204,101.884 280.451 C 100.390 280.699,99.251 280.985,99.353 281.087 C 99.643 281.376,108.317 279.816,108.734 279.400 C 109.001 279.133,108.141 279.217,106.200 279.647 M94.000 281.617 C 93.135 281.809,93.746 281.846,95.600 281.712 C 97.250 281.593,98.675 281.429,98.767 281.348 C 99.058 281.090,95.457 281.293,94.000 281.617 M72.016 282.219 C 72.298 282.559,72.635 282.676,72.765 282.479 C 72.894 282.281,73.270 282.017,73.600 281.892 C 73.930 281.766,73.593 281.649,72.851 281.632 C 71.677 281.604,71.569 281.680,72.016 282.219 M78.923 282.299 C 81.520 282.369,85.660 282.368,88.123 282.298 C 90.585 282.228,88.460 282.171,83.400 282.172 C 78.340 282.172,76.325 282.229,78.923 282.299 M231.600 283.241 C 230.610 283.895,228.810 284.949,227.600 285.583 C 226.390 286.217,225.040 287.028,224.600 287.386 C 224.160 287.744,225.060 287.366,226.600 286.546 C 229.756 284.864,233.600 282.471,233.600 282.188 C 233.600 281.921,233.588 281.927,231.600 283.241 M73.961 283.475 C 76.297 285.239,90.000 292.369,90.000 291.821 C 90.000 291.736,87.795 290.567,85.100 289.223 C 82.405 287.878,79.390 286.312,78.400 285.743 C 74.817 283.682,73.020 282.764,73.961 283.475 M222.093 288.580 C 220.839 289.272,220.462 289.701,221.412 289.355 C 222.398 288.995,223.914 287.986,223.389 288.039 C 223.175 288.061,222.592 288.304,222.093 288.580 M215.300 291.834 C 214.585 292.146,214.000 292.494,214.000 292.607 C 214.000 292.815,216.806 291.727,217.146 291.387 C 217.486 291.047,216.620 291.257,215.300 291.834 M105.400 298.000 C 106.596 298.514,107.595 298.514,106.800 298.000 C 106.470 297.787,105.840 297.622,105.400 297.634 L 104.600 297.656 105.400 298.000 M199.000 298.000 L 198.200 298.344 199.000 298.366 C 199.440 298.378,200.070 298.213,200.400 298.000 C 201.195 297.486,200.196 297.486,199.000 298.000 M108.000 298.800 C 108.330 299.013,108.870 299.188,109.200 299.188 C 109.733 299.188,109.733 299.145,109.200 298.800 C 108.870 298.587,108.330 298.412,108.000 298.412 C 107.467 298.412,107.467 298.455,108.000 298.800 M196.400 298.800 C 195.867 299.145,195.867 299.188,196.400 299.188 C 196.730 299.188,197.270 299.013,197.600 298.800 C 198.133 298.455,198.133 298.412,197.600 298.412 C 197.270 298.412,196.730 298.587,196.400 298.800 M110.800 299.600 C 111.130 299.813,111.670 299.988,112.000 299.988 C 112.533 299.988,112.533 299.945,112.000 299.600 C 111.670 299.387,111.130 299.212,110.800 299.212 C 110.267 299.212,110.267 299.255,110.800 299.600 M193.800 299.600 C 193.296 299.817,193.222 299.944,193.600 299.944 C 193.930 299.944,194.560 299.789,195.000 299.600 C 195.504 299.383,195.578 299.256,195.200 299.256 C 194.870 299.256,194.240 299.411,193.800 299.600 M113.800 300.400 C 114.240 300.589,114.960 300.738,115.400 300.732 C 116.043 300.723,116.004 300.657,115.200 300.400 C 113.832 299.962,112.781 299.962,113.800 300.400 M190.400 300.400 C 189.596 300.657,189.557 300.723,190.200 300.732 C 190.640 300.738,191.360 300.589,191.800 300.400 C 192.819 299.962,191.768 299.962,190.400 300.400 M117.000 301.200 C 117.440 301.389,118.160 301.538,118.600 301.532 C 119.243 301.523,119.204 301.457,118.400 301.200 C 117.032 300.762,115.981 300.762,117.000 301.200 M187.200 301.200 C 186.396 301.457,186.357 301.523,187.000 301.532 C 187.440 301.538,188.160 301.389,188.600 301.200 C 189.619 300.762,188.568 300.762,187.200 301.200 M119.600 301.748 C 119.600 302.049,127.108 303.296,127.643 303.084 C 127.952 302.961,127.754 302.849,127.200 302.832 C 126.650 302.814,124.940 302.533,123.400 302.207 C 120.536 301.600,119.600 301.487,119.600 301.748 M182.800 302.000 C 181.443 302.286,181.437 302.295,182.600 302.307 C 183.260 302.315,184.250 302.176,184.800 302.000 C 186.112 301.580,184.796 301.580,182.800 302.000 M178.600 302.800 L 177.000 303.086 178.400 303.115 C 179.170 303.131,180.160 302.989,180.600 302.800 C 181.543 302.395,180.862 302.395,178.600 302.800 M129.200 303.598 C 130.188 303.916,133.889 304.135,133.567 303.856 C 133.475 303.777,132.230 303.614,130.800 303.494 C 129.240 303.363,128.600 303.405,129.200 303.598 M173.000 303.600 L 171.000 303.874 173.000 303.897 C 174.100 303.910,175.450 303.776,176.000 303.600 L 177.000 303.280 176.000 303.303 C 175.450 303.315,174.100 303.449,173.000 303.600 M136.000 304.492 C 138.370 305.049,166.305 305.043,169.000 304.486 C 170.670 304.140,170.374 304.116,167.200 304.336 C 162.274 304.678,141.993 304.677,137.600 304.335 C 134.728 304.111,134.479 304.136,136.000 304.492 " stroke="none" fill="#9cddfc" fill-rule="evenodd"></path><path id="path4" d="M80.893 131.200 C 80.893 131.970,80.975 132.285,81.076 131.900 C 81.176 131.515,81.176 130.885,81.076 130.500 C 80.975 130.115,80.893 130.430,80.893 131.200 M316.800 135.800 C 315.828 136.790,315.123 137.600,315.233 137.600 C 315.343 137.600,316.228 136.790,317.200 135.800 C 318.172 134.810,318.877 134.000,318.767 134.000 C 318.657 134.000,317.772 134.810,316.800 135.800 M196.540 148.400 C 196.540 150.270,196.609 151.035,196.693 150.100 C 196.777 149.165,196.777 147.635,196.693 146.700 C 196.609 145.765,196.540 146.530,196.540 148.400 M303.320 160.000 C 303.320 161.210,303.395 161.705,303.487 161.100 C 303.578 160.495,303.578 159.505,303.487 158.900 C 303.395 158.295,303.320 158.790,303.320 160.000 M194.900 159.476 C 195.285 159.576,195.915 159.576,196.300 159.476 C 196.685 159.375,196.370 159.293,195.600 159.293 C 194.830 159.293,194.515 159.375,194.900 159.476 M80.501 172.600 C 80.505 173.480,80.587 173.793,80.683 173.295 C 80.779 172.798,80.775 172.078,80.675 171.695 C 80.575 171.313,80.496 171.720,80.501 172.600 M77.100 281.889 C 77.815 281.978,78.985 281.978,79.700 281.889 C 80.415 281.801,79.830 281.728,78.400 281.728 C 76.970 281.728,76.385 281.801,77.100 281.889 M87.100 281.882 C 87.595 281.978,88.405 281.978,88.900 281.882 C 89.395 281.787,88.990 281.709,88.000 281.709 C 87.010 281.709,86.605 281.787,87.100 281.882 M141.905 305.483 C 142.402 305.579,143.122 305.575,143.505 305.475 C 143.887 305.375,143.480 305.296,142.600 305.301 C 141.720 305.305,141.407 305.387,141.905 305.483 M160.900 305.476 C 161.285 305.576,161.915 305.576,162.300 305.476 C 162.685 305.375,162.370 305.293,161.600 305.293 C 160.830 305.293,160.515 305.375,160.900 305.476 " stroke="none" fill="#36bcf4" fill-rule="evenodd"></path><path id="path5" d="M101.200 117.800 C 101.946 118.570,102.647 119.200,102.757 119.200 C 102.867 119.200,102.346 118.570,101.600 117.800 C 100.854 117.030,100.153 116.400,100.043 116.400 C 99.933 116.400,100.454 117.030,101.200 117.800 M80.893 128.800 C 80.893 129.570,80.975 129.885,81.076 129.500 C 81.176 129.115,81.176 128.485,81.076 128.100 C 80.975 127.715,80.893 128.030,80.893 128.800 M80.893 133.600 C 80.893 134.370,80.975 134.685,81.076 134.300 C 81.176 133.915,81.176 133.285,81.076 132.900 C 80.975 132.515,80.893 132.830,80.893 133.600 M303.742 153.400 C 303.741 155.380,303.808 156.240,303.892 155.312 C 303.976 154.384,303.977 152.764,303.895 151.712 C 303.812 150.660,303.743 151.420,303.742 153.400 M303.314 163.800 C 303.317 164.900,303.395 165.303,303.487 164.695 C 303.579 164.086,303.577 163.186,303.482 162.695 C 303.387 162.203,303.311 162.700,303.314 163.800 M302.493 172.000 C 302.493 172.770,302.575 173.085,302.676 172.700 C 302.776 172.315,302.776 171.685,302.676 171.300 C 302.575 170.915,302.493 171.230,302.493 172.000 M95.800 207.200 C 96.659 208.080,97.452 208.800,97.562 208.800 C 97.672 208.800,97.059 208.080,96.200 207.200 C 95.341 206.320,94.548 205.600,94.438 205.600 C 94.328 205.600,94.941 206.320,95.800 207.200 M82.100 281.891 C 82.925 281.978,84.275 281.978,85.100 281.891 C 85.925 281.805,85.250 281.734,83.600 281.734 C 81.950 281.734,81.275 281.805,82.100 281.891 " stroke="none" fill="#27b4f4" fill-rule="evenodd"></path><path id="path6" d="M328.929 119.481 C 329.416 119.607,329.575 119.891,329.406 120.335 C 329.213 120.842,329.264 120.889,329.621 120.535 C 330.212 119.949,329.770 119.185,328.876 119.246 C 328.296 119.286,328.304 119.320,328.929 119.481 M80.914 125.800 C 80.917 126.900,80.995 127.303,81.087 126.695 C 81.179 126.086,81.177 125.186,81.082 124.695 C 80.987 124.203,80.911 124.700,80.914 125.800 M80.914 136.600 C 80.917 137.700,80.995 138.103,81.087 137.495 C 81.179 136.886,81.177 135.986,81.082 135.495 C 80.987 135.003,80.911 135.500,80.914 136.600 M196.509 141.600 C 196.509 142.590,196.587 142.995,196.682 142.500 C 196.778 142.005,196.778 141.195,196.682 140.700 C 196.587 140.205,196.509 140.610,196.509 141.600 M196.131 148.600 C 196.133 150.140,196.205 150.721,196.292 149.891 C 196.379 149.061,196.377 147.801,196.289 147.091 C 196.200 146.381,196.129 147.060,196.131 148.600 M196.509 154.800 C 196.509 155.790,196.587 156.195,196.682 155.700 C 196.778 155.205,196.778 154.395,196.682 153.900 C 196.587 153.405,196.509 153.810,196.509 154.800 M303.701 158.200 C 303.705 159.080,303.787 159.393,303.883 158.895 C 303.979 158.398,303.975 157.678,303.875 157.295 C 303.775 156.913,303.696 157.320,303.701 158.200 M303.301 167.000 C 303.305 167.880,303.387 168.193,303.483 167.695 C 303.579 167.198,303.575 166.478,303.475 166.095 C 303.375 165.713,303.296 166.120,303.301 167.000 M97.400 170.400 C 98.259 171.280,99.052 172.000,99.162 172.000 C 99.272 172.000,98.659 171.280,97.800 170.400 C 96.941 169.520,96.148 168.800,96.038 168.800 C 95.928 168.800,96.541 169.520,97.400 170.400 M80.893 177.600 C 80.893 178.370,80.975 178.685,81.076 178.300 C 81.176 177.915,81.176 177.285,81.076 176.900 C 80.975 176.515,80.893 176.830,80.893 177.600 M119.149 221.865 C 118.647 222.474,118.685 222.487,119.600 222.011 C 120.941 221.314,121.042 221.200,120.316 221.200 C 119.976 221.200,119.451 221.499,119.149 221.865 M107.500 223.089 C 108.215 223.178,109.385 223.178,110.100 223.089 C 110.815 223.001,110.230 222.928,108.800 222.928 C 107.370 222.928,106.785 223.001,107.500 223.089 M257.787 263.700 L 255.400 266.200 257.900 263.813 C 259.275 262.499,260.400 261.374,260.400 261.313 C 260.400 261.017,260.005 261.378,257.787 263.700 M71.700 281.076 C 72.085 281.176,72.715 281.176,73.100 281.076 C 73.485 280.975,73.170 280.893,72.400 280.893 C 71.630 280.893,71.315 280.975,71.700 281.076 M93.900 281.082 C 94.395 281.178,95.205 281.178,95.700 281.082 C 96.195 280.987,95.790 280.909,94.800 280.909 C 93.810 280.909,93.405 280.987,93.900 281.082 M174.900 304.276 C 175.285 304.376,175.915 304.376,176.300 304.276 C 176.685 304.175,176.370 304.093,175.600 304.093 C 174.830 304.093,174.515 304.175,174.900 304.276 M135.100 305.082 C 135.595 305.178,136.405 305.178,136.900 305.082 C 137.395 304.987,136.990 304.909,136.000 304.909 C 135.010 304.909,134.605 304.987,135.100 305.082 M167.700 305.087 C 168.305 305.178,169.295 305.178,169.900 305.087 C 170.505 304.995,170.010 304.920,168.800 304.920 C 167.590 304.920,167.095 304.995,167.700 305.087 M148.100 305.898 C 150.465 305.969,154.335 305.969,156.700 305.898 C 159.065 305.828,157.130 305.770,152.400 305.770 C 147.670 305.770,145.735 305.828,148.100 305.898 " stroke="none" fill="#16aef4" fill-rule="evenodd"></path><path id="path7" d="M246.882 94.296 C 248.358 94.373,250.878 94.373,252.482 94.297 C 254.087 94.221,252.880 94.158,249.800 94.158 C 246.720 94.157,245.407 94.219,246.882 94.296 M289.105 110.683 C 289.602 110.779,290.322 110.775,290.705 110.675 C 291.087 110.575,290.680 110.496,289.800 110.501 C 288.920 110.505,288.607 110.587,289.105 110.683 M80.520 131.200 C 80.520 132.410,80.595 132.905,80.687 132.300 C 80.778 131.695,80.778 130.705,80.687 130.100 C 80.595 129.495,80.520 129.990,80.520 131.200 M319.775 133.300 L 318.600 134.600 319.900 133.425 C 320.615 132.779,321.200 132.194,321.200 132.125 C 321.200 131.816,320.870 132.088,319.775 133.300 M304.134 153.200 C 304.134 154.850,304.205 155.525,304.291 154.700 C 304.378 153.875,304.378 152.525,304.291 151.700 C 304.205 150.875,304.134 151.550,304.134 153.200 M80.109 173.200 C 80.109 174.190,80.187 174.595,80.282 174.100 C 80.378 173.605,80.378 172.795,80.282 172.300 C 80.187 171.805,80.109 172.210,80.109 173.200 M107.500 222.693 C 108.435 222.777,109.965 222.777,110.900 222.693 C 111.835 222.609,111.070 222.540,109.200 222.540 C 107.330 222.540,106.565 222.609,107.500 222.693 M261.234 260.153 L 260.269 261.400 261.413 260.312 C 262.043 259.714,262.477 259.153,262.379 259.065 C 262.280 258.977,261.765 259.467,261.234 260.153 M108.200 278.400 L 107.000 278.705 108.076 278.753 C 108.668 278.779,109.264 278.620,109.400 278.400 C 109.536 278.180,109.592 278.021,109.524 278.047 C 109.456 278.073,108.860 278.232,108.200 278.400 M91.105 281.083 C 91.602 281.179,92.322 281.175,92.705 281.075 C 93.087 280.975,92.680 280.896,91.800 280.901 C 90.920 280.905,90.607 280.987,91.105 281.083 M141.305 305.887 C 141.914 305.979,142.814 305.977,143.305 305.882 C 143.797 305.787,143.300 305.711,142.200 305.714 C 141.100 305.717,140.697 305.795,141.305 305.887 M161.500 305.882 C 161.995 305.978,162.805 305.978,163.300 305.882 C 163.795 305.787,163.390 305.709,162.400 305.709 C 161.410 305.709,161.005 305.787,161.500 305.882 " stroke="none" fill="#0cacf4" fill-rule="evenodd"></path><path id="path8" d="M8.433 391.304 C 8.525 391.362,9.005 391.750,9.500 392.166 C 9.995 392.583,10.400 392.819,10.400 392.691 C 10.400 392.287,9.163 391.200,8.705 391.200 C 8.464 391.200,8.342 391.247,8.433 391.304 " stroke="none" fill="#04b4f8" fill-rule="evenodd"></path></g></svg>